<?xml version="1.0" standalone="no"?>
<!DOCTYPE svg PUBLIC "-//W3C//DTD SVG 1.1//EN" "http://www.w3.org/Graphics/SVG/1.1/DTD/svg11.dtd" >
<svg>
<metadata>
Created by FontForge 20090914 at Thu May 25 07:56:51 2017
 By www-data
Copyright (C) 1990 ParaGraph JV.
</metadata>
<defs>
<font id="UkrainianBodoni" horiz-adv-x="2179" >
  <font-face 
    font-family="UkrainianBodoni"
    font-weight="400"
    font-stretch="normal"
    units-per-em="4096"
    panose-1="2 2 114 0 0 0 0 0 0 0"
    ascent="3276"
    descent="-820"
    x-height="1745"
    cap-height="2683"
    bbox="-229 -1032 4612 3510"
    underline-thickness="56"
    underline-position="-224"
    unicode-range="U+0020-U+2122"
  />
<missing-glyph horiz-adv-x="3072" 
d="M512 0v2560h2048v-2560h-2048zM2494 66v2428h-1916v-2428h1916z" />
    <glyph glyph-name=".notdef" horiz-adv-x="3072" 
d="M512 0v2560h2048v-2560h-2048zM2494 66v2428h-1916v-2428h1916z" />
    <glyph glyph-name="space" unicode=" " horiz-adv-x="1438" 
 />
    <glyph glyph-name="exclam" unicode="!" horiz-adv-x="1225" 
d="M479 1671c-18 161.333 -45.334 319.667 -82.001 475c-35.333 140 -53 238.333 -53 295c0 191.333 88.667 287 266 287c61.333 0 121.833 -18.167 181.5 -54.5s89.5 -113.833 89.5 -232.5c0 -42.667 -4.33301 -86.834 -13 -132.501s-22 -105.167 -40 -178.5
s-33.667 -143 -47 -209s-26.666 -149.333 -39.999 -250c-32.667 -260 -51.667 -587.667 -57 -983h-143c-16 452.667 -36.667 780.334 -62 983.001zM380.999 184.001c0 60.667 23.5 114.167 70.5 160.5s99.833 69.5 158.5 69.5c56.667 0 109.167 -20.667 157.5 -62
s72.5 -97.333 72.5 -168c0 -65.333 -22.167 -119.833 -66.5 -163.5s-98.833 -65.5 -163.5 -65.5c-70 0 -125.667 24.5 -167 73.5s-62 100.833 -62 155.5z" />
    <glyph glyph-name="quotedbl" unicode="&#x22;" horiz-adv-x="1618" 
d="M594 2728l-115 -905h-160l-114 905h389zM1319 2728l-119 -905h-156l-118 905h393z" />
    <glyph glyph-name="numbersign" unicode="#" horiz-adv-x="3670" 
d="M2294 -242h-361l140 729h-766l-140 -729h-360l135 729h-713l70 369h717l147 778h-717l70 369h717l139 725h361l-140 -725h770l140 725h360l-139 -725h717l-70 -369h-717l-151 -778h716l-69 -369h-717zM2142 856l148 778h-766l-148 -778h766z" />
    <glyph glyph-name="dollar" unicode="$" horiz-adv-x="2171" 
d="M180 4l-7.99902 852h53c183.333 -462 451 -728.333 803 -799v1102l-172 49c-157.333 45.333 -278.833 110.833 -364.5 196.5s-143.334 181.167 -173.001 286.5s-44.5 219 -44.5 341c0 146 34.167 271.333 102.5 376s160.333 183.5 276 236.5s240.834 79.5 375.501 79.5
v303h119v-315c85.333 -7.33301 205.333 -41.666 360 -103c54 -22 93.667 -33 119 -33c45.333 0 85 35.667 119 107h65l17 -647h-58c-148.667 337.333 -356 536.666 -622 598v-1016l242 -66c159.333 -43.333 284.666 -108.833 375.999 -196.5s153.166 -182 185.499 -283
s48.5 -204.5 48.5 -310.5c0 -180.667 -38.5 -331.5 -115.5 -452.5s-180 -210.333 -309 -268s-271.5 -86.5 -427.5 -86.5v-361h-119v373c-123.333 15.333 -254.333 56.333 -393 123c-96.667 44 -158 66 -184 66c-97.333 0 -154.666 -50.667 -171.999 -152h-99zM1147 1126
v-1085c116.667 0 223 19.667 319 59s172 96 228 170s84 160 84 258c0 291.333 -146.333 474.333 -439 549zM1028 1651v999c-106 0 -202 -19.667 -288 -59s-153 -95.333 -201 -168s-72 -156.667 -72 -252c0 -262 168 -431.333 504 -508z" />
    <glyph glyph-name="percent" unicode="%" horiz-adv-x="3457" 
d="M344 2093c0 117.333 26.833 224.502 80.5 321.502s125.5 173.5 215.5 229.5s186.667 84 290 84c102.667 0 200.167 -28.333 292.5 -85s165.666 -133.834 219.999 -231.5c54.333 -97.667 81.5 -203.834 81.5 -318.5c0 -114.667 -27.167 -220.834 -81.5 -318.501
s-127.666 -174.834 -219.999 -231.501s-189.833 -85 -292.5 -85c-103.333 0 -200 28 -290 84s-161.833 132.5 -215.5 229.5s-80.5 204.167 -80.5 321.5zM639 2179l0.000976562 -172c0 -186.667 30.5 -314.5 91.5 -383.5s130.167 -103.5 207.5 -103.5
c81.333 0 150.166 37.333 206.499 112s84.5 199.667 84.5 375v172c0 170.667 -29 294.5 -87 371.5s-126 115.5 -204 115.5c-86 0 -157.333 -42.667 -214 -128s-85 -205 -85 -359zM942.001 -388.998l-127 57l1708 3384l131 -58zM1933 594.002
c0 111.333 25.332 215.671 75.999 313.004s121 175.333 211 234s189.667 88 299 88c102.667 0 200.167 -28.333 292.5 -85s165.666 -133.834 220 -231.501c54.333 -97.667 81.5 -203.834 81.5 -318.501s-27.167 -220.834 -81.5 -318.501
s-127.666 -174.834 -219.999 -231.501s-189.833 -85 -292.5 -85c-103.333 0 -200 28 -290 84s-161.833 132.5 -215.5 229.5s-80.5 204.167 -80.5 321.5zM2228 680.007v-172c0 -188 30.5 -316.333 91.5 -385s130.167 -103 207.5 -103c81.333 0 150.166 37.5 206.5 112.5
c56.333 75 84.5 200.167 84.5 375.5v172c0 170.667 -29 294.5 -87 371.5s-126 115.5 -204 115.5c-87.333 0 -159 -42.833 -215 -128.5s-84 -205.167 -84 -358.5z" />
    <glyph glyph-name="ampersand" unicode="&#x26;" horiz-adv-x="3064" 
d="M2347 1343c152.667 0 285 11.1689 397 33.502s168 75.5 168 159.5c0 38 -6.66699 57 -20 57c-17.333 0 -36.666 -4 -58 -12c-26.667 -13.333 -59.334 -20 -98 -20c-80.667 0 -138.334 23.667 -173 71c-34.667 47.333 -52 102.666 -52 165.999
c0 46.667 20.167 91.167 60.5 133.5s95.166 63.5 164.499 63.5c180 0 270 -121.667 270 -365c0 -126.667 -34.5 -240.167 -103.5 -340.5s-161.5 -177.833 -277.5 -232.5s-241.333 -82 -376 -82h-49c8 -48.667 12 -106 12 -172c0 -224 -62.833 -421.333 -188.5 -592
s-341.5 -256 -647.5 -256c-132.667 0 -267.167 12.167 -403.5 36.5s-265.666 66.666 -387.999 126.999s-221.666 144.666 -297.999 252.999s-114.5 242.5 -114.5 402.5c0 178 53.167 320.167 159.5 426.5s230.666 181.666 372.999 225.999s282.833 72.5 421.5 84.5v21
c-134.667 27.333 -247.5 64.833 -338.5 112.5s-161 111.834 -210 192.501s-73.5 179.667 -73.5 297c0 132.667 42 244 126 334s188.5 155.833 313.5 197.5s247.5 62.5 367.5 62.5c226.667 0 398.667 -49.333 516 -148s176 -211.667 176 -339
c0 -74.667 -21 -139.167 -63 -193.5s-101.667 -81.5 -179 -81.5c-80 0 -140.833 25.833 -182.5 77.5s-62.5 109.167 -62.5 172.5c0 34 9.66699 63.167 29 87.5s50.333 57.833 93 100.5c36 36 54 62 54 78c0 40 -25.833 78 -77.5 114s-136.5 54 -254.5 54
c-273.333 0 -410 -131 -410 -393v-270c0 -165.333 34.333 -274.333 103 -327s154.667 -85.667 258 -99c49.333 -6 91.666 -9 126.999 -9h151v-90h-319c-166.667 0 -293 -34 -379 -102s-141.333 -148 -166 -240s-37 -192.333 -37 -301v-24
c0 -130.667 25.333 -254.167 76 -370.5s130.834 -210.666 240.501 -282.999s247.167 -108.5 412.5 -108.5c252.667 0 428.5 71.667 527.5 215s148.5 313.333 148.5 510c0 94 -5.33301 166.333 -16 217l-230 4c-209.333 0 -356.5 -20.333 -441.5 -61
s-127.5 -84.667 -127.5 -132c0 -38 6.66699 -57 20 -57c24.667 0 44 2.66699 58 8c47.333 16.667 81.333 25 102 25c63.333 0 116 -21.833 158 -65.5s63 -101.167 63 -172.5c0 -49.333 -20.667 -95 -62 -137s-94.333 -63 -159 -63c-76 0 -140.667 30.167 -194 90.5
s-80 152.833 -80 277.5c0 84.667 17.833 166.667 53.5 246s87 150 154 212s148.167 110.5 243.5 145.5s199 52.5 311 52.5z" />
    <glyph glyph-name="quotesingle" unicode="'" horiz-adv-x="893" 
d="M643 2728l-119 -905h-155l-119 905h393z" />
    <glyph glyph-name="parenleft" unicode="(" horiz-adv-x="1999" 
d="M1417 -897l-74 -44.999c-108 112.667 -209.5 243 -304.5 391s-177 302.5 -246 463.5s-122.833 324.167 -161.5 489.5s-58 322 -58 470c0 105.333 10.5 224.666 31.5 357.999s58.333 280.333 112 441s133 334.167 238 520.5s234.5 370.5 388.5 552.5l82 -37
c-94 -148.667 -170 -294.5 -228 -437.5s-102.667 -290 -134 -441s-51.833 -299.5 -61.5 -445.5s-14.5 -316.333 -14.5 -511c0 -314.667 32 -636 96 -964s175.333 -596.333 334 -805z" />
    <glyph glyph-name="parenright" unicode=")" horiz-adv-x="1999" 
d="M655 -942l-73.002 45.001c159.333 210 270.833 477.833 334.5 803.5s95.5 647.5 95.5 965.5c0 194.667 -5 366.667 -15 516s-30 296.666 -60 441.999s-74.667 291 -134 437s-136 292.667 -230 440l82 37c154 -181.333 283.833 -365.833 389.5 -553.5
s185.334 -361.5 239.001 -521.5s90.667 -305 111 -435s30.5 -250.667 30.5 -362c0 -148 -19 -304.333 -57 -469s-92.167 -329 -162.5 -493s-152.666 -319 -246.999 -465s-195.5 -275 -303.5 -387z" />
    <glyph glyph-name="asterisk" unicode="*" horiz-adv-x="2044" 
d="M1208 1999l0.000976562 -77.9961c40 -14.667 117.667 -36 233 -64s196.833 -57.333 244.5 -88s71.5 -78.334 71.5 -143.001c0 -50.667 -18.167 -90 -54.5 -118s-79.5 -42 -129.5 -42c-32 0 -60 9.16699 -84 27.5s-72.333 64.666 -145 138.999s-137 136.5 -193 186.5
l-70 -41c19.333 -126 36.333 -213.833 51 -263.5s29 -88.667 43 -117s21 -54.5 21 -78.5c0 -38.667 -14.5 -78.334 -43.5 -119.001s-71.833 -61 -128.5 -61c-53.333 0 -95.333 18 -126 54s-46 78 -46 126c0 10 11.667 51.667 35 125s48.666 184.666 75.999 333.999l-70 41
c-68.667 -58.667 -136.167 -123.334 -202.5 -194.001s-110.5 -114.834 -132.5 -132.501s-51 -26.5 -87 -26.5c-54 0 -98.167 15.833 -132.5 47.5s-51.5 69.167 -51.5 112.5c0 65.333 23.5 112.833 70.5 142.5s127.833 58.334 242.5 86.001s193.334 49.834 236.001 66.501v78
c-40 14.667 -117.667 36 -233 64s-196.833 57.333 -244.5 88s-71.5 78.334 -71.5 143c0 43.333 16.833 80.833 50.5 112.5s78.167 47.5 133.5 47.5c35.333 0 64.333 -9.33301 87 -28s65.667 -61.834 129 -129.5c63.333 -67.667 132 -132.834 206 -195.5l70 41
c-26.667 149.333 -51.834 260.666 -75.501 334c-23.667 73.333 -35.5 115 -35.5 125c0 48 15.167 90 45.5 126s72.5 54 126.5 54c56.667 0 99.5 -20.167 128.5 -60.5s43.5 -80.166 43.5 -119.5c0 -24 -6.83301 -50 -20.5 -78s-28 -67.333 -43 -118
s-32.167 -138.334 -51.5 -263l70 -41c56 50 120.333 112.167 193 186.5s121 120.666 145 139c24 18.333 52 27.5 84 27.5c51.333 0 94.833 -14 130.5 -42s53.5 -67.333 53.5 -118c0 -64.667 -23.333 -112.334 -70 -143c-46.667 -30.667 -128.667 -60.334 -246 -89
c-117.333 -28.667 -195 -49.667 -233 -63z" />
    <glyph glyph-name="plus" unicode="+" horiz-adv-x="2859" 
d="M201 1380h1142v1143h173v-1143h1142v-172h-1142v-1138h-173v1138h-1142v172z" />
    <glyph glyph-name="comma" unicode="," horiz-adv-x="1343" 
d="M578 -623l-50 66c84 60.667 152.833 138.834 206.5 234.501s80.5 181.167 80.5 256.5c0 15.333 -4.16699 30.833 -12.5 46.5s-17.833 23.5 -28.5 23.5c-8.66699 0 -34.667 -9.66699 -78 -29c-26.667 -13.333 -56.667 -20 -90 -20c-56 0 -104.167 20.167 -144.5 60.5
s-60.5 93.833 -60.5 160.5c0 71.333 26 126.666 78 165.999s115 59 189 59c50.667 0 109 -28.5 175 -85.5s99 -155.5 99 -295.5c0 -134.667 -29.167 -248 -87.5 -340s-150.5 -193 -276.5 -303z" />
    <glyph glyph-name="hyphen" unicode="-" horiz-adv-x="1438" 
d="M287 745v185h864v-185h-864z" />
    <glyph glyph-name="period" unicode="." horiz-adv-x="1262" 
d="M401 184c0 70.667 24.167 126.667 72.5 168s100.833 62 157.5 62c60.667 0 114 -23.333 160 -70s69 -100 69 -160c0 -56 -20.667 -108.167 -62 -156.5s-97 -72.5 -167 -72.5c-64.667 0 -119.167 21.833 -163.5 65.5s-66.5 98.167 -66.5 163.5z" />
    <glyph glyph-name="slash" unicode="/" horiz-adv-x="1982" 
d="M258 -1032l-143 49l1609 3793l144 -53z" />
    <glyph glyph-name="zero" unicode="0" horiz-adv-x="2191" 
d="M172 1343c0 174.667 29.333 369.501 88 584.501s157.167 402.167 295.5 561.5s316.5 239 534.5 239c171.333 0 328.166 -61.833 470.499 -185.5s254.333 -292.167 336 -505.5s122.5 -444.666 122.5 -693.999c0 -286.667 -46.833 -535.334 -140.5 -746.001
s-212.167 -370.334 -355.5 -479.001s-287.666 -163 -432.999 -163c-144 0 -286.833 53.667 -428.5 161s-258.667 266.333 -351 477s-138.5 460.667 -138.5 750zM631 1774v-861c0 -178.667 10.5 -330.667 31.5 -456s65.667 -227.333 134 -306s167.5 -118 297.5 -118
c129.333 0 228.333 40 297 120s114.167 183.167 136.5 309.5s33.5 276.5 33.5 450.5v861c0 212 -17.5 382.5 -52.5 511.5s-86.833 222 -155.5 279s-155 85.5 -259 85.5c-170.667 0 -290.5 -72 -359.5 -216s-103.5 -364 -103.5 -660z" />
    <glyph glyph-name="one" unicode="1" horiz-adv-x="1962" 
d="M799 82l-0.000976562 2429c0 46 -30 69 -90 69h-111c-60 0 -120 -2.66699 -180 -8l-4 99c62.667 3.33301 187.334 10.666 374.001 22c186.667 11.333 290 17.666 310 19l168 16l-9 -238v-2408h316v-82h-1090v82h316z" />
    <glyph glyph-name="two" unicode="2" horiz-adv-x="2204" 
d="M1868 803l94.001 0.00292969l-37 -803h-1696v258l709 664c98.667 91.333 181.5 174.166 248.5 248.499s132 172.5 195 294.5s100.833 256.333 113.5 403v213c-7.33301 135.333 -45.833 263.333 -115.5 384s-207.167 181 -412.5 181c-103.333 0 -196.166 -26 -278.499 -78
s-123.5 -113.333 -123.5 -184c0 -60 26 -106.333 78 -139c42.667 -30.667 74 -59.334 94 -86c30 -40.667 45 -91.334 45 -152c0 -86 -27.333 -149.833 -82 -191.5s-114.667 -62.5 -180 -62.5c-74.667 0 -139 28.167 -193 84.5s-81 130.5 -81 222.5c0 112 35.5 220 106.5 324
s168.5 188 292.5 252s261.333 96 412 96c185.333 0 342.166 -35.333 470.499 -106s226.333 -159.334 294 -266c67.667 -106.667 110.5 -216 128.5 -328c5.33301 -24.667 8 -63 8 -115s-2.66699 -90.333 -8 -115c-17.333 -109.333 -57.166 -208.833 -119.499 -298.5
s-127.833 -164.334 -196.5 -224.001s-161.334 -133.834 -278.001 -222.501l-889 -680h1130c79.333 0 136.833 15.333 172.5 46s57.167 66.167 64.5 106.5s18.666 131.5 33.999 273.5z" />
    <glyph glyph-name="three" unicode="3" 
d="M1221 1532l-0.00195312 -21c127.333 -12.667 246.666 -50.5 357.999 -113.5s201 -148.333 269 -256s102 -230.167 102 -367.5c0 -114 -27.333 -233.167 -82 -357.5s-155.334 -232.333 -302.001 -324s-345 -137.5 -595 -137.5c-180 0 -329.167 30.5 -447.5 91.5
s-204.5 136 -258.5 225s-81 174.5 -81 256.5c0 94.667 25.667 172.334 77 233.001s116 91 194 91c70.667 0 131.334 -25.333 182.001 -76s76 -114 76 -190c0 -82 -42.333 -151.667 -127 -209c-32 -24 -54.333 -41.833 -67 -53.5s-19 -29.5 -19 -53.5
c0 -37.333 19 -74.5 57 -111.5s89.833 -67.167 155.5 -90.5s138.167 -35 217.5 -35c48.667 0 97.667 4 147 12l156 82c131.333 99.333 197 264.666 197 495.999v462c0 92 -30.667 177.833 -92 257.5s-162 119.5 -302 119.5c-21.333 0 -41.166 -1.5 -59.499 -4.5
s-42.833 -7.83301 -73.5 -14.5s-51.667 -11 -63 -13c-35.333 -8.66699 -73.666 -13 -114.999 -13c-60 0 -90 27.333 -90 82c0 71.333 34 107 102 107c22 0 56.333 -5.66699 103 -17c68 -13.333 133.333 -20 196 -20c240.667 0 361 139.333 361 418v270
c0 262 -135.333 393 -406 393c-120 0 -206 -18.167 -258 -54.5s-78 -74.166 -78 -113.5c0 -19.333 10.667 -39.166 32 -59.5l67 -63.5c51.333 -51.333 77 -99 77 -143c0 -63.333 -20.833 -120.833 -62.5 -172.5s-102.5 -77.5 -182.5 -77.5c-71.333 0 -128.833 25 -172.5 75
s-65.5 116.667 -65.5 200c0 128.667 58 242 174 340s287.333 147 514 147c90.667 0 182.334 -11 275.001 -33s179.667 -57 261 -105s146.833 -110 196.5 -186s74.5 -166 74.5 -270c0 -172.667 -53.5 -306.5 -160.5 -401.5s-260.833 -161.833 -461.5 -200.5z" />
    <glyph glyph-name="four" unicode="4" horiz-adv-x="2228" 
d="M1147 82v684h-930v106l1143 1876h217v-1818h422v-164h-422v-684h315v-82h-1089v82h344zM1147 930v1286l-803 -1286h803z" />
    <glyph glyph-name="five" unicode="5" horiz-adv-x="2232" 
d="M557 2290l-53.002 -709.004c154.667 131.333 333.334 197 536.001 197c215.333 0 392.166 -42.833 530.499 -128.5s237.5 -191.667 297.5 -318s90 -253.5 90 -381.5c0 -131.333 -23.167 -271.666 -69.5 -420.999s-140 -282.333 -281 -399s-340.833 -175 -599.5 -175
c-134 0 -258.667 22.167 -374 66.5s-207.5 109 -276.5 194s-103.5 183.833 -103.5 296.5c0 89.333 24.333 163.5 73 222.5s114.334 88.5 197.001 88.5c69.333 0 128.333 -20 177 -60s73 -96.333 73 -169c0 -87.333 -28.667 -155.666 -86 -204.999l-45.5 -37.5
c-17.667 -14.333 -32.834 -29.666 -45.501 -45.999s-19 -33.5 -19 -51.5c0 -49.333 26 -98.5 78 -147.5s142 -73.5 270 -73.5c210.667 0 349.334 64.833 416.001 194.5s100 292.834 100 489.501v438c0 60 -11 128.333 -33 205s-70.167 147 -144.5 211s-180.5 96 -318.5 96
c-190.667 0 -350.334 -87.333 -479.001 -262l-49 8l86 1315c136 -56 252.833 -92.5 350.5 -109.5s204.834 -25.5 321.501 -25.5c201.333 0 396.333 45 585 135l41 -53c-42 -90.667 -118 -167 -228 -229s-232.167 -107.667 -366.5 -137s-254.166 -44 -359.499 -44
c-49.333 0 -146.333 8.33301 -291 25z" />
    <glyph glyph-name="six" unicode="6" horiz-adv-x="2208" 
d="M692 1851l-8 -491.001c32.667 73.333 79.834 135 141.501 185s129.167 87 202.5 111s147 36 221 36c124.667 0 247.167 -36.167 367.5 -108.5s218.166 -175.166 293.499 -308.499s113 -285.333 113 -456c0 -166 -41.333 -315 -124 -447s-191.334 -234.5 -326.001 -307.5
s-275.334 -109.5 -422.001 -109.5c-141.333 0 -280.666 33.667 -417.999 101s-255.666 197.5 -354.999 390.5s-149 459.167 -149 798.5c0 370 69.667 709.667 209 1019s401.666 464 786.999 464c150.667 0 279.334 -21 386.001 -63s187 -97.667 241 -167
s81 -144.333 81 -225c0 -74 -20.333 -138.833 -61 -194.5s-102 -83.5 -184 -83.5c-84.667 0 -146.834 22.667 -186.501 68s-59.5 95 -59.5 149c0 37.333 17.667 93.333 53 168c32.667 64 49 113 49 147c0 37.333 -32.167 67.833 -96.5 91.5s-138.5 35.5 -222.5 35.5
c-119.333 0 -215.666 -24.167 -288.999 -72.5s-127 -111.5 -161 -189.5s-56 -159.5 -66 -244.5s-15.667 -183.833 -17 -296.5zM684 1049v-471c0 -134.667 27.5 -242.667 82.5 -324s120.5 -138.5 196.5 -171.5s147 -49.5 213 -49.5c165.333 0 271.5 63.667 318.5 191
s70.5 256 70.5 386v402c0 390 -129.667 585 -389 585c-130 0 -244.5 -52.167 -343.5 -156.5s-148.5 -234.833 -148.5 -391.5z" />
    <glyph glyph-name="seven" unicode="7" horiz-adv-x="2130" 
d="M344 2003l-86.001 -0.000976562l107 680h1466c20 0 31.833 -2.33301 35.5 -7s5.5 -18.667 5.5 -42c0 -55.333 -17.167 -134.333 -51.5 -237s-112.833 -312 -235.5 -628c-72 -183.333 -129.167 -342.833 -171.5 -478.5s-77 -268.5 -104 -398.5
s-48.167 -257.5 -63.5 -382.5s-33.333 -294.833 -54 -509.5h-442c16.667 179.333 52.334 352.833 107.001 520.5s114 316 178 445s132.667 256.5 206 382.5c115.333 198.667 206.166 366.334 272.499 503.001s122.833 283 169.5 439h-1069c-50 0 -90.667 -7.5 -122 -22.5
s-55.666 -35.833 -72.999 -62.5s-30.833 -55.5 -40.5 -86.5z" />
    <glyph glyph-name="eight" unicode="8" horiz-adv-x="2167" 
d="M815 1409l-213.001 139.001c-58.667 38.667 -123.167 105.5 -193.5 200.5s-105.5 205.833 -105.5 332.5c0 100.667 27.667 200.5 83 299.5s142.833 181.667 262.5 248s268.167 99.5 445.5 99.5c152.667 0 286.667 -25.167 402 -75.5s204 -117.333 266 -201
s93 -173.167 93 -268.5c0 -140.667 -43.5 -259 -130.5 -355s-218.167 -179.667 -393.5 -251l201 -131c292 -192 438 -416 438 -672c0 -121.333 -23.667 -233 -71 -335s-112 -189 -194 -261s-174 -127.167 -276 -165.5s-205.667 -57.5 -311 -57.5
c-190.667 0 -355.667 32.667 -495 98s-245.166 153 -317.499 263s-108.5 230 -108.5 360c0 287.333 206 531.666 618 732.999zM871.999 1868l360.999 -229.999c218.667 102.667 328 274.667 328 516c0 154 -43.167 275.167 -129.5 363.5s-200.166 132.5 -341.499 132.5
c-159.333 0 -280.5 -35.167 -363.5 -105.5s-124.5 -155.166 -124.5 -254.5c0 -164.667 90 -305.334 270 -422.001zM1368 1057l-446.001 290.999c-237.333 -128.667 -368.666 -348.667 -393.999 -660v-135c12.667 -168.667 73.5 -297.5 182.5 -386.5
s242.167 -133.5 399.5 -133.5c162 0 292 49.833 390 149.5s147 217.834 147 354.501c0 226.667 -93 400 -279 520z" />
    <glyph glyph-name="nine" unicode="9" horiz-adv-x="2195" 
d="M1528 831l8 491.998c-48 -108.667 -125.5 -191.167 -232.5 -247.5s-217.833 -84.5 -332.5 -84.5c-123.333 0 -245 36.333 -365 109s-218.167 175.667 -294.5 309s-114.5 286.333 -114.5 459c0 166 41.167 314.667 123.5 446s190.833 233.166 325.5 305.5
c134.667 72.333 275.667 108.5 423 108.5c138.667 0 277.334 -34.167 416.001 -102.5s257.667 -198.166 357 -389.5c99.333 -191.333 149 -456 149 -794c0 -154 -12.167 -312.167 -36.5 -474.5s-71.333 -321.166 -141 -476.499s-171.834 -283.5 -306.501 -384.5
s-305.334 -151.5 -512.001 -151.5c-164.667 0 -300 23.5 -406 70.5s-182.833 105.833 -230.5 176.5s-71.5 141.334 -71.5 212.001c0 74 22.667 138.833 68 194.5s104.333 83.5 177 83.5c82 0 143.5 -23.167 184.5 -69.5s61.5 -96.833 61.5 -151.5
c0 -40 -17.667 -94.667 -53 -164c-32.667 -58.667 -49 -107.667 -49 -147s31.833 -71 95.5 -95s138.167 -36 223.5 -36c144.667 0 255.834 34.833 333.501 104.5s129.5 160.5 155.5 272.5s40.667 253.667 44 425zM1536 1638v466.998c0 172 -48.5 305.833 -145.5 401.5
s-212.5 143.5 -346.5 143.5c-165.333 0 -271.5 -63.5 -318.5 -190.5s-70.5 -254.5 -70.5 -382.5v-406c0 -387.333 129.667 -581 389 -581c98 0 184.333 26.333 259 79s132.167 121.334 172.5 206.001s60.5 172.334 60.5 263.001z" />
    <glyph glyph-name="colon" unicode=":" horiz-adv-x="1262" 
d="M401 1561c0 70 24.167 125.667 72.5 167s100.833 62 157.5 62c60.667 0 114 -23.333 160 -70s69 -99.667 69 -159c0 -56.667 -20.667 -109.167 -62 -157.5s-97 -72.5 -167 -72.5c-65.333 0 -120 22 -164 66s-66 98.667 -66 164zM401 184
c0 60.667 23.5 114.167 70.5 160.5s100.167 69.5 159.5 69.5c56 0 108.167 -20.667 156.5 -62s72.5 -97.333 72.5 -168c0 -66 -22 -120.667 -66 -164s-98.333 -65 -163 -65c-69.333 0 -125 24.5 -167 73.5s-63 100.833 -63 155.5z" />
    <glyph glyph-name="semicolon" unicode=";" horiz-adv-x="1343" 
d="M578 -623l-50.001 65.998c84 60.667 152.833 138.834 206.5 234.501s80.5 181.167 80.5 256.5c0 15.333 -4.16699 30.833 -12.5 46.5s-17.833 23.5 -28.5 23.5c-8.66699 0 -34.667 -9.66699 -78 -29c-26.667 -13.333 -56.667 -20 -90 -20
c-56 0 -104.167 20.167 -144.5 60.5s-60.5 93.833 -60.5 160.5c0 72.667 25.833 128.334 77.5 167.001s114.834 58 189.501 58c38 0 78 -12.333 120 -37s78.167 -65.5 108.5 -122.5s45.5 -130.833 45.5 -221.5c0 -134.667 -29.167 -248 -87.5 -340s-150.5 -193 -276.5 -303z
M454.999 1561c0 58.667 23 111.5 69 158.5s99.333 70.5 160 70.5c34 0 69 -9 105 -27s65.667 -44.333 89 -79s35 -75.667 35 -123c0 -66 -21.833 -120.833 -65.5 -164.5s-98.167 -65.5 -163.5 -65.5c-69.333 0 -124.833 24.167 -166.5 72.5s-62.5 100.833 -62.5 157.5z" />
    <glyph glyph-name="less" unicode="&#x3c;" 
d="M57 1348l1889 1089l118 -221l-1503 -868l1503 -869l-118 -221z" />
    <glyph glyph-name="equal" unicode="=" horiz-adv-x="2859" 
d="M201 1667h2457v-172h-2457v172zM201 1094h2457v-172h-2457v172z" />
    <glyph glyph-name="greater" unicode="&#x3e;" 
d="M2122 1348l-1889 -1090l-118 221l1503 869l-1503 868l118 221z" />
    <glyph glyph-name="question" unicode="?" horiz-adv-x="2146" 
d="M1049 659l-95.001 -0.00195312v62c0 147.333 12 276 36 386s52.667 202.167 86 276.5s81.666 168.833 144.999 283.5c50.667 90.667 87.834 165.5 111.501 224.5s35.5 131.5 35.5 217.5c0 360.667 -131 541 -393 541c-144.667 0 -256 -42.167 -334 -126.5
s-117 -174.5 -117 -270.5c0 -34 12.333 -55.5 37 -64.5s59 -13.5 103 -13.5h41c54.667 0 99 -19.167 133 -57.5s51 -86.166 51 -143.499c0 -72 -25.167 -126.167 -75.5 -162.5s-103.166 -54.5 -158.499 -54.5c-56 0 -112.333 34.5 -169 103.5s-85 172.5 -85 310.5
c0 104.667 24.833 199.5 74.5 284.5s119.167 151.667 208.5 200s190.333 72.5 303 72.5c173.333 0 317 -30.667 431 -92s197 -138 249 -230s78 -185.333 78 -280c0 -156 -31.833 -290.333 -95.5 -403s-146.5 -220 -248.5 -322
c-96.667 -93.333 -179.5 -193.166 -248.5 -299.499s-103.5 -230.5 -103.5 -372.5v-70zM744.999 183.998c0 60.667 23.5 114.167 70.5 160.5s100.167 69.5 159.5 69.5c56 0 108.167 -20.667 156.5 -62s72.5 -97.333 72.5 -168c0 -66 -22 -120.667 -66 -164
s-98.333 -65 -163 -65c-69.333 0 -125 24.5 -167 73.5s-63 100.833 -63 155.5z" />
    <glyph glyph-name="at" unicode="@" horiz-adv-x="3846" 
d="M3015 2327l-340.001 -1127c-52 -168.667 -78 -283.334 -78 -344.001c0 -96 21.667 -163.667 65 -203s87 -59 131 -59c117.333 0 238.5 48.333 363.5 145s228.167 229.334 309.5 398.001s122 355 122 559c0 193.333 -36.5 378 -109.5 554s-178.833 331.5 -317.5 466.5
s-310 241.667 -514 320s-433.667 117.5 -689 117.5c-241.333 0 -463.666 -47.5 -666.999 -142.5s-377.833 -224 -523.5 -387s-257.5 -347.5 -335.5 -553.5s-117 -415.667 -117 -629c0 -216 39.667 -428.167 119 -636.5s193.166 -395 341.499 -560s324.833 -295 529.5 -390
s426.334 -142.5 665.001 -142.5c450.667 0 819.334 125.667 1106 377l90 -115c-150.667 -112 -295.334 -197.667 -434 -257c-138.667 -59.333 -266.834 -98.833 -384.5 -118.5c-117.667 -19.667 -239.5 -29.5 -365.5 -29.5c-270 0 -520 51 -750 153
s-428.667 242.167 -596 420.5s-296 380.333 -386 606s-135 457.834 -135 696.501c0 230 42.667 455.667 128 677s208.5 420.666 369.5 598c161 177.333 355.5 317.666 583.5 420.999s479.333 155 754 155c242 0 470 -36.5 684 -109.5s403.5 -179 568.5 -318
s294.333 -308.167 388 -507.5s140.5 -421.333 140.5 -666c0 -208 -39.5 -408.167 -118.5 -600.5s-192.667 -347.833 -341 -466.5s-321.166 -178 -518.5 -178c-216.667 0 -378 86 -484 258c-182.667 -144.667 -375 -217 -577 -217c-138 0 -256.833 34.667 -356.5 104
s-175.167 162.666 -226.5 279.999s-77 247.333 -77 390c0 147.333 27.5 290 82.5 428s131.667 259.667 230 365s214.5 188.5 348.5 249.5s278.333 91.5 433 91.5c196 0 358.333 -88.667 487 -266l62 193h340zM2236 893.001l279 982.999
c-20.667 125.333 -69.5 222.166 -146.5 290.499s-160.5 102.5 -250.5 102.5c-102 0 -207 -44.667 -315 -134s-197.167 -213.166 -267.5 -371.499s-105.5 -335.166 -105.5 -530.499c0 -192 24.167 -339 72.5 -441s140.166 -153 275.499 -153
c178.667 0 331.334 84.667 458.001 254z" />
    <glyph glyph-name="A" unicode="A" horiz-adv-x="2527" 
d="M1765 82l-303 826.999h-803l-147 -364l-35 -82.5c-12 -28.333 -22.167 -58 -30.5 -89s-12.5 -64.167 -12.5 -99.5c0 -62 17.333 -108.167 52 -138.5s104.667 -48.166 210 -53.499v-82h-696v82c79.333 5.33301 148.333 35.5 207 90.5s101.667 117.5 129 187.5l905 2323h74
l934 -2601h278v-82h-1126v82h364zM1434 990.999l-353 1016l-401 -1016h754z" />
    <glyph glyph-name="B" unicode="B" horiz-adv-x="2724" 
d="M172 2683h1241c262.667 0 465.667 -34 609 -102s238.166 -147.333 284.499 -238s69.5 -180.667 69.5 -270c0 -118 -38.833 -220.833 -116.5 -308.5s-178.667 -156.167 -303 -205.5s-253.5 -80.333 -387.5 -93v-20c364 -56 611.333 -150.167 742 -282.5
s196 -278.5 196 -438.5c0 -206 -82.167 -378.333 -246.5 -517s-429.166 -208 -794.499 -208h-1294v82h315v2519h-315v82zM946 1495l299 -0.000976562c240.667 0 402.5 53.333 485.5 160s124.5 244.334 124.5 413.001c0 226 -51 371.333 -153 436s-238 97 -408 97h-348v-1106
zM946 81.999h463c388 0 582 206 582 618c0 190.667 -38.167 339 -114.5 445s-167.833 177.167 -274.5 213.5s-216 54.5 -328 54.5h-328v-1331z" />
    <glyph glyph-name="C" unicode="C" horiz-adv-x="2417" 
d="M2204 893h98.002l-33 -893h-106c-10.667 109.333 -54.334 164 -131 164c-42 0 -99.333 -22 -172 -66c-165.333 -95.333 -339 -143 -521 -143c-197.333 0 -379 51.333 -545 154s-299.667 246.167 -401 430.5s-160 393.5 -176 627.5v263c16 240.667 76.5 460 181.5 658
s246.167 354.167 423.5 468.5s377 171.5 599 171.5c79.333 0 145.666 -7.5 198.999 -22.5s117.166 -36.167 191.499 -63.5s125.833 -41 154.5 -41c82 0 136.667 42.333 164 127h98l8 -873h-90c-19.333 170 -53.666 312.833 -103 428.5
c-49.333 115.667 -122.5 205.667 -219.5 270s-222.833 96.5 -377.5 96.5c-107.333 0 -214.666 -28.5 -321.999 -85.5s-199.333 -163.5 -276 -319.5s-115 -369 -115 -639v-664c0 -344 76.167 -581.5 228.5 -712.5s311.166 -196.5 476.499 -196.5
c172.667 0 329.5 66.5 470.5 199.5s239.5 353.167 295.5 660.5z" />
    <glyph glyph-name="D" unicode="D" horiz-adv-x="2945" 
d="M172 2683h1196c319.333 0 584.666 -65.833 795.999 -197.5s365.666 -299.167 463 -502.5c97.333 -203.333 146 -413.666 146 -630.999c0 -174 -30 -342.167 -90 -504.5s-146.833 -307.333 -260.5 -435s-251.167 -228.334 -412.5 -302.001s-338.333 -110.5 -531 -110.5
h-1307v82h315v2523h-315v78zM946.001 82l552.999 0.000976562c272 0 466.333 118.5 583 355.5s175 529.5 175 877.5c0 341.333 -33.5 606.166 -100.5 794.499s-163.167 318 -288.5 389s-286.666 106.5 -483.999 106.5h-438v-2523z" />
    <glyph glyph-name="E" unicode="E" horiz-adv-x="2462" 
d="M487 82v2523h-315v78h2019l45 -774h-98c-64.667 464 -290 696 -676 696h-516v-1130h148c113.333 0 210.5 30.167 291.5 90.5s131.167 193.833 150.5 400.5h82v-1073h-82c-23.333 136.667 -48.5 239.167 -75.5 307.5s-66.167 117.5 -117.5 147.5s-126.333 45 -225 45h-172
v-1311h586c169.333 0 315.833 50.5 439.5 151.5s211.834 301.833 264.5 602.5h99l-86 -836h-2077v82h315z" />
    <glyph glyph-name="F" unicode="F" horiz-adv-x="2322" 
d="M487 82v2523h-315v78h2048l45 -860h-98c-38.667 521.333 -273.667 782 -705 782h-516v-1188h262c114 0 211.5 30.5 292.5 91.5s131.167 194.5 150.5 400.5h82v-1073h-82c-10.667 208.667 -56 344 -136 406s-174 93 -282 93h-287v-1253h316v-82h-1090v82h315z" />
    <glyph glyph-name="G" unicode="G" horiz-adv-x="2879" 
d="M2281 1855l-89.999 0.000976562c-25.333 291.333 -107.333 495.333 -246 612s-309 175 -511 175c-148.667 0 -270 -35.667 -364 -107s-165.5 -168.333 -214.5 -291s-81.667 -256.667 -98 -402s-24.5 -308.666 -24.5 -489.999c0 -190.667 11.167 -378.834 33.5 -564.501
s81.166 -358.5 176.499 -518.5s239.666 -240 432.999 -240c86 0 165 8.33301 237 25s139 49.667 201 99s111.667 122.333 149 219s56 219.667 56 369v295h-286v78h1032v-78h-287v-159c0 -139.333 -31 -266.5 -93 -381.5s-145.667 -212.333 -251 -292
s-222.666 -140.334 -351.999 -182.001s-262 -62.5 -398 -62.5c-244 0 -454.5 69.667 -631.5 209s-310.5 319.833 -400.5 541.5s-135 452.167 -135 691.5c0 164.667 30.667 326.5 92 485.5s147 301.833 257 428.5s238.333 227.167 385 301.5s302 111.5 466 111.5
c90.667 0 159.167 -5.66699 205.5 -17s89.5 -27.833 129.5 -49.5s75.667 -37.167 107 -46.5s82 -14 152 -14c76.667 0 132.667 42.333 168 127h94z" />
    <glyph glyph-name="H" unicode="H" horiz-adv-x="3101" 
d="M946 1393v-1311h287v-82h-1061v82h315v2523h-315v78h1061v-78h-287v-1130h1208v1130h-286v78h1061v-78h-316v-2523h316v-82h-1061v82h286v1311h-1208z" />
    <glyph glyph-name="I" unicode="I" horiz-adv-x="1434" 
d="M487 82v2523h-315v78h1090v-78h-316v-2523h316v-82h-1090v82h315z" />
    <glyph glyph-name="J" unicode="J" horiz-adv-x="1860" 
d="M1372 692l-8.00293 -109.997c-13.333 -194.667 -85.166 -347.834 -215.499 -459.501s-282.5 -167.5 -456.5 -167.5c-135.333 0 -251.166 29.167 -347.499 87.5s-168.333 129 -216 212s-71.5 160.5 -71.5 232.5c0 72.667 25.667 134.667 77 186s110.333 77 177 77
c72 0 131 -21.667 177 -65s69 -98.333 69 -165c0 -68 -32.667 -132 -98 -192c-19.333 -19.333 -39.166 -36.333 -59.499 -51s-30.5 -26.334 -30.5 -35.001c0 -48 24 -94.167 72 -138.5s120.667 -66.5 218 -66.5c76 0 128.333 18.167 157 54.5s53 82.166 73 137.499
c16 49.333 24 90.333 24 123v2253h-315v78h1090v-78h-316v-1913z" />
    <glyph glyph-name="K" unicode="K" horiz-adv-x="2802" 
d="M946 1282l922.001 942c82 82 123 149 123 201c0 48 -26.833 90 -80.5 126s-143.167 54 -268.5 54v78h963v-78c-87.333 -2.66699 -169 -25.334 -245 -68c-76 -42.667 -155.833 -103.5 -239.5 -182.5s-219.834 -215.167 -408.501 -408.5l-168 -172l1049 -1692h151v-82
h-1114v82h377l-770 1372l-291 -299v-1073h287v-82h-1061v82h315v2523h-315v78h1061v-78h-287v-1323z" />
    <glyph glyph-name="L" unicode="L" horiz-adv-x="2367" 
d="M487 82l-0.000976562 2523h-315v78h1090v-78h-316v-2523h475c107.333 0 215.833 33 325.5 99s207.834 157.833 294.501 275.5s150.334 249.5 191 395.5h78l-127 -852h-2011v82h315z" />
    <glyph glyph-name="M" unicode="M" horiz-adv-x="3469" 
d="M1757 606l765.998 2077h774v-78h-315v-2523h315v-82h-1089v82h315v2355l-909 -2486h-74l-950 2466v-1995c0 -83.333 4.83301 -145 14.5 -185s36.834 -73.167 81.501 -99.5s116.334 -44.833 215.001 -55.5v-82h-729v82c131.333 0 219.5 37.167 264.5 111.5
s67.5 151.833 67.5 232.5v1946c0 155.333 -83.333 233 -250 233h-74l4 78h774z" />
    <glyph glyph-name="N" unicode="N" horiz-adv-x="2904" 
d="M2294 799l-0.000976562 1532c0 103.333 -35.667 174.833 -107 214.5s-153 59.5 -245 59.5v78h790v-78c-106.667 -0.666992 -186 -19.667 -238 -57s-84 -81 -96 -131s-18 -111.667 -18 -185v-2277h-29l-1741 2318v-1822c0 -80.667 26.333 -162.334 79 -245.001
s145.334 -124 278.001 -124v-82h-795v82c112 0 198.667 27.333 260 82s92 150.334 92 287.001v1937c0 76.667 -33.333 131.167 -100 163.5s-135.667 50.166 -207 53.5v78h651z" />
    <glyph glyph-name="O" unicode="O" horiz-adv-x="2994" 
d="M205 1343c0 206.667 37.002 396.665 111.002 569.998s174.167 320.666 300.5 441.999s265.5 213.833 417.5 277.5s305.667 95.5 461 95.5c166.667 0 327.5 -33.833 482.5 -101.5s294 -164.167 417 -289.5s219.5 -273 289.5 -443s105 -353.667 105 -551
c0 -283.333 -64.833 -530.166 -194.5 -740.499s-294.834 -370.833 -495.5 -481.5c-200.667 -110.667 -402 -166 -604 -166c-128 0 -266.833 28.333 -416.5 85s-291.334 142.834 -425.001 258.501s-241.834 261.334 -324.501 437.001s-124 378.167 -124 607.5zM1495 2650
c-93.333 0 -184.333 -19.002 -273 -57.002s-170.834 -104.5 -246.501 -199.5s-137 -230 -184 -405s-70.5 -390.167 -70.5 -645.5c0 -488.667 76.667 -829.167 230 -1021.5s334.666 -288.5 543.999 -288.5c92.667 0 183.5 18.833 272.5 56.5s172 104.834 249 201.501
s139 231.834 186 405.501s70.5 389.167 70.5 646.5c0 352 -42.667 625 -128 819s-185.666 323.833 -300.999 389.5s-231.666 98.5 -348.999 98.5z" />
    <glyph glyph-name="P" unicode="P" horiz-adv-x="2572" 
d="M487 82l0.000976562 2523h-315v78h1180c142.667 0 292.167 -19.667 448.5 -59s295.333 -119.666 416.999 -241c121.667 -121.333 182.5 -293 182.5 -515c0 -234 -79.333 -426.333 -238 -577s-430 -226 -814 -226h-402v-983h316v-82h-1090v82h315zM946.001 1143h283
c256 0 426.833 56.167 512.5 168.5s133.167 244.5 142.5 396.5v299c0 398.667 -218.333 598 -655 598h-283v-1462z" />
    <glyph glyph-name="Q" unicode="Q" horiz-adv-x="3019" 
d="M1016 -348l-40.999 53.001c164.667 148 325.667 231.333 483 250c-240.667 19.333 -455.334 93.5 -644.001 222.5s-335.334 296.167 -440.001 501.5s-157 426.666 -157 663.999c0 195.333 35.5 378.666 106.5 549.999s167.667 319.5 290 444.5s261 221.333 416 289
s314.167 101.5 477.5 101.5c166.667 0 327.5 -33.833 482.5 -101.5s294 -164.167 417 -289.5s219.667 -272.833 290 -442.5s105.5 -353.5 105.5 -551.5c0 -164 -27 -324.667 -81 -482s-133 -300.333 -237 -429s-230.667 -234.5 -380 -317.5
s-316.666 -134.833 -501.999 -155.5c148.667 -14.667 298.667 -124 450 -328c62 -78 119.667 -141.833 173 -191.5s107.666 -74.5 162.999 -74.5c36 0 71 14 105 42s51 59 51 93c0 15.333 -3 30.333 -9 45c-2 4.66699 -15.333 25.334 -40 62.001s-37 70.667 -37 102
c0 49.333 15 92.5 45 129.5s69.333 55.5 118 55.5c42 0 82.667 -13.667 122 -41s59 -72.666 59 -135.999c0 -96.667 -31.833 -183.334 -95.5 -260.001s-145.167 -136.334 -244.5 -179.001s-200.333 -64 -303 -64c-96 0 -189.333 26.333 -280 79s-205 157.334 -343 314.001
c-94.667 109.333 -178 164 -250 164c-38 0 -83.667 -12.5 -137 -37.5s-97.666 -52.167 -132.999 -81.5zM1507 2650c-92.667 0 -183.668 -19 -273.001 -57s-171.666 -104.5 -246.999 -199.5s-136.5 -230 -183.5 -405s-70.5 -390.167 -70.5 -645.5
c0 -488.667 76.667 -829.167 230 -1021.5s334.666 -288.5 543.999 -288.5c212.667 0 395.667 96.167 549 288.5s230 532.833 230 1021.5c0 256.667 -23.333 472.167 -70 646.5s-108.167 309 -184.5 404s-159.166 161.5 -248.499 199.5s-181.333 57 -276 57z" />
    <glyph glyph-name="R" unicode="R" horiz-adv-x="2793" 
d="M946 82l316.001 -0.00195312v-82h-1090v82h315v2523h-315v78h1110c208.667 0 390.667 -11.5 546 -34.5s290.166 -78.5 404.499 -166.5s171.5 -220.333 171.5 -397c0 -116 -29.5 -220.333 -88.5 -313s-151.333 -169 -277 -229s-283.5 -97.667 -473.5 -113v-17
c220 -34.667 379.667 -85.334 479 -152.001s166.5 -159.5 201.5 -278.5s67.5 -314.167 97.5 -585.5c8.66699 -90.667 21.667 -162.5 39 -215.5s49.333 -79.5 96 -79.5c32.667 0 71.334 15.667 116.001 47s79.667 62.333 105 93l62 -66
c-70 -93.333 -139.333 -153.5 -208 -180.5s-144 -40.5 -226 -40.5c-112 0 -199.833 16.833 -263.5 50.5s-112.334 93.834 -146.001 180.501s-59.834 215.667 -78.501 387c-20 195.333 -43.667 347.833 -71 457.5s-61.166 188.834 -101.499 237.501s-88 78.834 -143 90.501
s-136.833 17.5 -245.5 17.5h-332v-1294zM946.001 1458h287c200.667 0 360 43 478 129s177 253.333 177 502c0 193.333 -50.833 327.666 -152.5 403c-101.667 75.333 -261.167 113 -478.5 113h-311v-1147z" />
    <glyph glyph-name="S" unicode="S" horiz-adv-x="2171" 
d="M180 0l-8.00098 856.001h53c118.667 -296.667 263.834 -507.334 435.501 -632.001s351.5 -187 539.5 -187c94.667 0 187 19.167 277 57.5s162.667 94.833 218 169.5s83 162.667 83 264c0 288.667 -146.333 471.667 -439 549l-483 131
c-171.333 47.333 -311.166 136 -419.499 266s-162.5 316 -162.5 558c0 139.333 32.333 261.833 97 367.5s151 186.834 259 243.5c108 56.667 223 85 345 85s217.667 -9.16699 287 -27.5s141.666 -43 216.999 -74s132.666 -46.5 171.999 -46.5c30 0 61.333 34.333 94 103h65
l17 -647h-58c-96 222.667 -212.333 381.334 -349 476c-136.667 94.667 -281 142 -433 142c-102 0 -192.667 -21.5 -272 -64.5s-140.5 -101.667 -183.5 -176s-64.5 -155.166 -64.5 -242.499c0 -111.333 25.333 -201.5 76 -270.5s110.334 -119.5 179.001 -151.5
s151.667 -60.667 249 -86l418 -111c233.333 -62 393.333 -166 480 -312s130 -305.333 130 -478c0 -145.333 -30.5 -279.833 -91.5 -403.5s-148.833 -221.834 -263.5 -294.501s-247.667 -109 -399 -109c-218.667 0 -422 45 -610 135c-96.667 44 -158 66 -184 66
c-44 0 -81.667 -14 -113 -42s-51 -66 -59 -114h-99z" />
    <glyph glyph-name="T" unicode="T" horiz-adv-x="2597" 
d="M1069 82v2523c-200.667 0 -360.5 -26.5 -479.5 -79.5s-207.667 -134.667 -266 -245s-97.833 -257.5 -118.5 -441.5h-115l21 844h2375l21 -844h-115c-16 156.667 -43.333 284.167 -82 382.501c-38.667 98.333 -91.334 175.166 -158 230.5
c-66.667 55.333 -149.667 94.666 -249 118c-99.333 23.333 -224.333 35 -375 35v-2523h315v-82h-1089v82h315z" />
    <glyph glyph-name="U" unicode="U" horiz-adv-x="2994" 
d="M2466 2232v-1482c0 -161.333 -40.5 -302.5 -121.5 -423.5s-191.333 -213.167 -331 -276.5s-293.5 -95 -461.5 -95c-158 0 -317.833 23.5 -479.5 70.5s-299.667 129.833 -414 248.5s-171.5 277.334 -171.5 476.001v1855h-315v78h1090v-78h-316v-1921
c0 -192 66 -341.667 198 -449s306.333 -161 523 -161c210 0 368 39.833 474 119.5s173 173 201 280s42 227.833 42 362.5v1478c0 73.333 -13 130.166 -39 170.5c-26 40.333 -63.667 68.5 -113 84.5s-117.333 28 -204 36v78h794v-78
c-100.667 -5.33301 -174.667 -16.5 -222 -33.5s-81.5 -50.667 -102.5 -101s-31.5 -129.833 -31.5 -238.5z" />
    <glyph glyph-name="V" unicode="V" horiz-adv-x="2683" 
d="M57 2683h1143v-78h-323l692 -1892l561 1478c30 74.667 45 141.667 45 201c0 136.667 -84.667 207.667 -254 213v78h705v-78c-100 -4 -177.5 -33.667 -232.5 -89s-105.833 -144.333 -152.5 -267l-861 -2294l-1048 2650h-275v78z" />
    <glyph glyph-name="W" unicode="W" horiz-adv-x="4133" 
d="M57 2683h1020v-78h-303l701 -1880l499 1286l-217 594h-282v78h1085v-78h-311l708 -1909l533 1332c46 110.667 69 193.667 69 249c0 218.667 -137.667 328 -413 328v78h930v-78c-88.667 -6.66699 -159.834 -31.834 -213.5 -75.5c-53.667 -43.667 -96 -96 -127 -157
s-73.167 -158.167 -126.5 -291.5l-852 -2126l-734 1913l-757 -1913l-992 2650h-217v78z" />
    <glyph glyph-name="X" unicode="X" horiz-adv-x="2867" 
d="M1491 1675l410 627c24 39.333 36 92.666 36 160c0 36 -21.5 68.833 -64.5 98.5s-100.5 44.5 -172.5 44.5h-58v78h898v-78c-97.333 -7.33301 -175.666 -22 -235 -44c-59.333 -22 -113.5 -56.5 -162.5 -103.5s-102.5 -115.167 -160.5 -204.5l-430 -664l988 -1507h237v-82
h-1089v82h319l-762 1147l-475 -733c-38 -56 -57 -115 -57 -177c0 -145.333 106.333 -224.333 319 -237v-82h-942v82c130 30 233.833 70.167 311.5 120.5s148.5 124.833 212.5 223.5l582 889l-868 1290h-238v78h1049v-78h-267z" />
    <glyph glyph-name="Y" unicode="Y" horiz-adv-x="2687" 
d="M1135 1069l-832 1536h-246v78h1078v-78h-295l692 -1352l479 889c36 63.333 59.333 119.333 70 168v123c-35.333 112 -117.333 168 -246 168c-32.667 0 -60 1.33301 -82 4v78h877v-78c-84.667 0 -159 -23.667 -223 -71s-113.667 -98.166 -149 -152.5
c-35.333 -54.333 -82 -134.166 -140 -239.5l-525 -971v-1089h316v-82h-1090v82h316v987z" />
    <glyph glyph-name="Z" unicode="Z" horiz-adv-x="2519" 
d="M381 2003l97.998 680h1868l-1589 -2601h770c128.667 0 254.167 39.833 376.5 119.5s231.5 250.167 327.5 511.5h86l-86 -713h-2060l1655 2605h-619c-2 0 -10.5 -0.833008 -25.5 -2.5s-35.167 -3.5 -60.5 -5.5c-62 -5.33301 -125.167 -21.5 -189.5 -48.5
s-136.166 -83.5 -215.499 -169.5s-158.666 -211.333 -237.999 -376h-98z" />
    <glyph glyph-name="bracketleft" unicode="[" horiz-adv-x="1827" 
d="M1540 -770v-102h-852v3555h852v-98h-434v-3355h434z" />
    <glyph glyph-name="backslash" unicode="\" 
d="M1892 -287h-286l-1319 3441h286z" />
    <glyph glyph-name="bracketright" unicode="]" horiz-adv-x="1827" 
d="M287 -770h438v3355h-438v98h852v-3555h-852v102z" />
    <glyph glyph-name="asciicircum" unicode="^" horiz-adv-x="1491" 
d="M745 2351l-331 -332h-344l675 676l676 -676h-344z" />
    <glyph glyph-name="underscore" unicode="_" 
d="M0 -803v287h2179v-287h-2179z" />
    <glyph glyph-name="grave" unicode="`" horiz-adv-x="901" 
d="M500 2683l397 -561h-102l-791 561h496z" />
    <glyph glyph-name="a" unicode="a" horiz-adv-x="1925" 
d="M1868 217l57 -53.001c-98 -139.333 -234.333 -209 -409 -209c-175.333 0 -288.666 88.667 -339.999 266c-122 -106.667 -229.167 -177.667 -321.5 -213s-184.5 -53 -276.5 -53c-150 0 -266.833 42.167 -350.5 126.5s-125.5 192.5 -125.5 324.5
c0 127.333 38.833 234.666 116.5 321.999s187.167 152.333 328.5 195s305.666 64 492.999 64c60 0 105.333 -1.33301 136 -4v459c0 81.333 -16.167 147.333 -48.5 198s-107.833 76 -226.5 76c-70.667 0 -132 -8.16699 -184 -24.5s-78 -38.166 -78 -65.499
c0 -36 13.667 -82.333 41 -139c35.333 -65.333 53 -110.333 53 -135c0 -70 -22.167 -129.833 -66.5 -179.5s-105.5 -74.5 -183.5 -74.5c-76 0 -137.333 25.5 -184 76.5s-70 119.5 -70 205.5c0 78.667 31.5 149.334 94.5 212.001s146.667 111.334 251 146.001
s214.5 52 330.5 52c196 0 343.833 -25.333 443.5 -76s162.667 -111.334 189 -182.001s39.5 -152.667 39.5 -246v-1065c0 -90 31.333 -135 94 -135c32 0 68.333 14.333 109 43s70 58 88 88zM1176 347.999l0.000976562 570c-151.333 0 -270.333 -12.5 -357 -37.5
s-151.334 -74 -194.001 -147s-64 -180.833 -64 -323.5c0 -188.667 94.333 -283 283 -283c36 0 80.5 12.333 133.5 37s99.333 54.5 139 89.5s59.5 66.5 59.5 94.5z" />
    <glyph glyph-name="b" unicode="b" horiz-adv-x="2052" 
d="M729 221v-221h-659v70h258v2531h-258v70h405c113.333 0 198 8 254 24v-1098c88 128.667 215 193 381 193c151.333 0 292.666 -41.167 423.999 -123.5s235.5 -193.5 312.5 -333.5s115.5 -292 115.5 -456c0 -178 -39.167 -337.5 -117.5 -478.5
s-181.166 -250.167 -308.499 -327.5s-259.666 -116 -396.999 -116c-65.333 0 -136.833 18.833 -214.5 56.5s-142.834 107.5 -195.501 209.5zM1503 561v545.001c0 226.667 -40 385.667 -120 477s-168.333 137 -265 137c-105.333 0 -196.5 -35.5 -273.5 -106.5
s-115.5 -148.833 -115.5 -233.5v-913c0 -79.333 19 -152.833 57 -220.5s88.5 -120.834 151.5 -159.501s128.833 -58 197.5 -58c97.333 0 183 38 257 114s111 215.333 111 418z" />
    <glyph glyph-name="c" unicode="c" horiz-adv-x="1692" 
d="M1536 455l66.0029 -28.998c-117.333 -314 -322.333 -471 -615 -471c-168 0 -320.333 39.667 -457 119s-244.167 189 -322.5 329s-117.5 296.333 -117.5 469c0 113.333 20 224.333 60 333s98.5 207.167 175.5 295.5s172.167 158.666 285.5 210.999
s238.666 78.5 375.999 78.5c108 0 208.167 -18.833 300.5 -56.5s165.666 -89.167 219.999 -154.5s81.5 -137 81.5 -215c0 -76 -21.333 -139.333 -64 -190s-99 -76 -169 -76c-78.667 0 -140.667 25.333 -186 76s-68 110 -68 178c0 24 8 55.333 24 94
c14 35.333 33.333 69.666 58 102.999s37 56.333 37 69c0 23.333 -17.833 46.833 -53.5 70.5s-91.834 35.5 -168.501 35.5c-136 0 -245 -37.5 -327 -112.5s-123 -232.5 -123 -472.5v-516c0 -127.333 13.5 -234.666 40.5 -321.999s73.5 -154.5 139.5 -201.5
s156 -70.5 270 -70.5c91.333 0 171 17 239 51s125.833 82.667 173.5 146s89.167 139.666 124.5 228.999z" />
    <glyph glyph-name="d" unicode="d" horiz-adv-x="2052" 
d="M1323 0v220.999c-100.667 -177.333 -238.667 -266 -414 -266c-138.667 0 -271.167 38.667 -397.5 116s-228.166 186.5 -305.499 327.5s-116 300.5 -116 478.5c0 128.667 22.833 248.334 68.5 359.001s108.5 207.667 188.5 291s171.667 148 275 194s208.666 69 315.999 69
c158 0 286.333 -64.333 385 -193v1004h-258v70h410c110.667 0 193.667 8 249 24v-2625h258v-70h-659zM545 1106l4.00098 -545c0 -128 23.667 -248.667 71 -362s146.666 -170 297.999 -170c66 0 130.333 19.5 193 58.5s113.667 92 153 159s59 140.5 59 220.5v786
c0 311.333 -129.667 467 -389 467c-96 0 -184.833 -46.333 -266.5 -139s-122.5 -251 -122.5 -475z" />
    <glyph glyph-name="e" unicode="e" horiz-adv-x="1802" 
d="M1642 487l69.999 -45.002c-102.667 -163.333 -213.167 -285.333 -331.5 -366s-254.833 -121 -409.5 -121c-153.333 0 -297.666 36.5 -432.999 109.5s-243.833 179 -325.5 318s-122.5 302.167 -122.5 489.5c0 161.333 36 312.833 108 454.5s170.833 254.334 296.5 338.001
s265.167 125.5 418.5 125.5c108 0 218.333 -21.667 331 -65s212.667 -126 300 -248s138 -290.667 152 -506h-1147l4 -283c1.33301 -117.333 11.333 -222.666 30 -315.999s57.5 -171.833 116.5 -235.5s143.833 -95.5 254.5 -95.5c252.667 0 482 148.667 688 446z
M548.999 1036h720.999c0 15.333 0.666992 37 2 65s2 48.667 2 62c0 178.667 -23.5 316.167 -70.5 412.5s-136.833 144.5 -269.5 144.5c-149.333 0 -250.166 -47 -302.499 -141s-78.5 -189 -78.5 -285z" />
    <glyph glyph-name="f" unicode="f" horiz-adv-x="1204" 
d="M340 1675h-229v70h229v135c0 178 34 328.833 102 452.5s151.333 215 250 274s193 88.5 283 88.5c78 0 147.333 -17.5 208 -52.5s108 -81.167 142 -138.5s51 -116.333 51 -177c0 -38 -12.833 -79 -38.5 -123s-70.167 -66 -133.5 -66c-52.667 0 -95.167 15.5 -127.5 46.5
s-48.5 68.833 -48.5 113.5c0 54.667 28.667 105 86 151c27.333 27.333 41 59 41 95c0 28 -17.333 52 -52 72s-73.334 30 -116.001 30c-72.667 0 -127.167 -26.667 -163.5 -80s-59.166 -120 -68.499 -200s-14 -179.333 -14 -298v-323h422v-70h-422v-1605h258v-70h-917v70h258
v1605z" />
    <glyph glyph-name="g" unicode="g" horiz-adv-x="1851" 
d="M516 -274c-82 -75.333 -123.002 -149.33 -123.002 -221.997c0 -76.667 28.167 -149.667 84.5 -219s170.166 -104 341.499 -104c156 0 290.833 28.5 404.5 85.5s199 128.833 256 215.5s85.5 173.334 85.5 260.001c0 142 -142 213 -426 213
c-132 0 -290.333 -13.667 -475 -41c-148.667 0 -278.834 34.333 -390.501 103s-167.5 171 -167.5 307c0 135.333 39.667 235 119 299s153 104.667 221 122c-72.667 47.333 -129 111.166 -169 191.499s-60 168.166 -60 263.499c0 122.667 32.167 228.5 96.5 317.5
s148.666 156.667 252.999 203s211.833 69.5 322.5 69.5c130.667 0 256.334 -37 377.001 -111c10 89.333 45.333 163.666 106 222.999s130.334 89 209.001 89c70.667 0 133.334 -21 188.001 -63s82 -96.333 82 -163c0 -34 -9.83301 -69.667 -29.5 -107
s-58.834 -56 -117.501 -56c-104 0 -156 61.333 -156 184c0 5.33301 0.666992 14.333 2 27s2 21.334 2 26.001c0 35.333 -17.667 53 -53 53c-33.333 0 -67.5 -22.833 -102.5 -68.5s-56.833 -108.834 -65.5 -189.501c67.333 -44.667 120.333 -107.5 159 -188.5
s58 -166.833 58 -257.5c0 -83.333 -23.333 -170.5 -70 -261.5s-119.667 -167.833 -219 -230.5s-221.333 -94 -366 -94c-137.333 0 -263 31.333 -377 94c-74.667 -8 -133.667 -26.667 -177 -56s-65 -62.333 -65 -99c0 -158.667 87.667 -238 263 -238
c184.667 17.333 411.334 28.333 680.001 33h114c94.667 -4.66699 189.834 -32.334 285.501 -83.001s149.5 -150 161.5 -298v-115c-12 -126.667 -60.333 -245.667 -145 -357s-198.167 -200.5 -340.5 -267.5s-300.166 -100.5 -473.499 -100.5
c-255.333 0 -444 46.833 -566 140.5s-183 206.5 -183 338.5c0 89.333 26 160.833 78 214.5s113.333 80.5 184 80.5c40.667 0 78 -15.333 112 -46s58 -69.667 72 -117zM1151 1016l0.000976562 348c-6.66699 96.667 -31.5 176.167 -74.5 238.5s-104.167 93.5 -183.5 93.5
c-64 0 -125.333 -23.167 -184 -69.5s-90.334 -133.833 -95.001 -262.5v-320c19.333 -237.333 111 -356 275 -356c166 0 253.333 109.333 262 328z" />
    <glyph glyph-name="h" unicode="h" horiz-adv-x="2167" 
d="M328 2601l-258.001 -0.000976562v70h409c112 0 195.333 8 250 24v-1188c109.333 115.333 207.833 192 295.5 230s181.834 57 282.501 57c147.333 0 272.833 -35.167 376.5 -105.5s155.5 -173.166 155.5 -308.499v-1310h258v-70h-889v70h230v1310
c0 199.333 -89 299 -267 299c-148.667 0 -296 -90 -442 -270v-1339h229v-70h-888v70h258v2531z" />
    <glyph glyph-name="i" unicode="i" horiz-adv-x="1069" 
d="M82 70h258v1605h-258v70h405c87.333 0 172 6.66699 254 20v-1695h258v-70h-917v70zM303 2408c0 60 22.833 113.333 68.5 160s99.167 70 160.5 70c56.667 0 109.167 -20.667 157.5 -62s72.5 -97.333 72.5 -168c0 -70 -24.5 -125.667 -73.5 -167s-101.167 -62 -156.5 -62
c-61.333 0 -114.833 23.333 -160.5 70s-68.5 99.667 -68.5 159z" />
    <glyph glyph-name="j" unicode="j" horiz-adv-x="1122" 
d="M414 1675l-316.001 0.00292969v70h467c84.667 0 168 6.66699 250 20v-2011c0 -102.667 -16.667 -196.334 -50 -281.001s-79.333 -156.5 -138 -215.5s-124 -103.667 -196 -134s-146 -45.5 -222 -45.5c-139.333 0 -247.166 30.667 -323.499 92s-114.5 141.333 -114.5 240
c0 55.333 19.5 100.666 58.5 135.999s90.5 53 154.5 53c62.667 0 111.667 -16.833 147 -50.5s53 -72.834 53 -117.501c0 -51.333 -12.333 -98 -37 -140c-13.333 -31.333 -20 -54.333 -20 -69c0 -22 13.667 -35.667 41 -41h25c64 4 116.5 30.667 157.5 80
s64.833 107.333 71.5 174v94c-5.33301 70.667 -8 119.667 -8 147v1999zM376.999 2408c0 60 22.5 113.333 67.5 160s98.833 70 161.5 70c56.667 0 109.167 -20.667 157.5 -62s72.5 -97.333 72.5 -168c0 -70 -24.5 -125.667 -73.5 -167s-101.167 -62 -156.5 -62
c-62.667 0 -116.5 23.333 -161.5 70s-67.5 99.667 -67.5 159z" />
    <glyph glyph-name="k" unicode="k" horiz-adv-x="2040" 
d="M328 70l0.00195312 2531h-258v70h409c113.333 0 196.666 8 249.999 24v-1814l365 356c122 124 191.667 218.333 209 283v73c-20 54.667 -74.667 82 -164 82h-45v70h721v-70c-142.667 -28 -290.334 -122 -443.001 -282l-209 -222l697 -1101h151v-70h-868v70h229l-504 811
l-139 -140v-671h229v-70h-888v70h258z" />
    <glyph glyph-name="l" unicode="l" horiz-adv-x="1057" 
d="M328 2601h-258v70h409c110.667 0 194 8 250 24v-2625h258v-70h-917v70h258v2531z" />
    <glyph glyph-name="m" unicode="m" horiz-adv-x="3133" 
d="M741 1765v-258c170.667 188.667 349.667 283 537 283c127.333 0 233.5 -26.167 318.5 -78.5s138.5 -125.833 160.5 -220.5c168.667 199.333 353 299 553 299c141.333 0 259.333 -35.167 354 -105.5s142 -171.833 142 -304.5v-1310h258v-70h-889v70h229v1310
c0 199.333 -76.333 299 -229 299c-81.333 0 -151.5 -22.5 -210.5 -67.5s-122.5 -112.5 -190.5 -202.5v-1339h229v-70h-860v70h229v1310c0 199.333 -76.333 299 -229 299c-134 0 -268 -90 -402 -270v-1339h230v-70h-889v70h258v1605h-258v70h410
c70.667 0 153.667 6.66699 249 20z" />
    <glyph glyph-name="n" unicode="n" 
d="M340 1675h-258.001v70h410c70.667 0 153.667 6.66699 249 20v-258c109.333 115.333 207.833 192 295.5 230s181.834 57 282.501 57c147.333 0 272.833 -35.167 376.5 -105.5s155.5 -173.166 155.5 -308.499v-1310h258v-70h-888v70h229v1310
c0 66.667 -16 133.167 -48 199.5s-104.667 99.5 -218 99.5c-72 0 -141.167 -17.333 -207.5 -52s-144.833 -107.334 -235.5 -218.001v-1339h230v-70h-889v70h258v1605z" />
    <glyph glyph-name="o" unicode="o" horiz-adv-x="1954" 
d="M90 872c0 161.333 38.668 312.831 116.001 454.498s183.666 254.334 318.999 338.001s285.333 125.5 450 125.5c128 0 246.5 -24.833 355.5 -74.5s203.5 -118 283.5 -205s141.667 -185.5 185 -295.5s65 -224.333 65 -343c0 -158 -38.5 -307.667 -115.5 -449
s-183.667 -254.666 -320 -339.999s-287.5 -128 -453.5 -128c-124.667 0 -241.5 24.667 -350.5 74s-204 117.5 -285 204.5s-142.833 185.5 -185.5 295.5s-64 224.333 -64 343zM553.001 1167c-2.66699 -68 -4.00098 -170.333 -4.00098 -307c0 -200.667 11 -360 33 -478
s64.333 -207 127 -267s152.667 -90 270 -90c108.667 0 194 27.833 256 83.5s105.833 144 131.5 265s38.5 284.5 38.5 490.5c0 174.667 -8.66699 322 -26 442s-57 219 -119 297s-155.667 117 -281 117c-112 0 -209.167 -44.5 -291.5 -133.5
s-127.166 -228.833 -134.499 -419.5z" />
    <glyph glyph-name="p" unicode="p" horiz-adv-x="2052" 
d="M729 1765v-245c91.333 180 228 270 410 270c102.667 0 203 -21.833 301 -65.5s186.5 -106.5 265.5 -188.5s141.5 -180.5 187.5 -295.5s69 -239.167 69 -372.5c0 -123.333 -22.167 -240.333 -66.5 -351s-106.333 -208.5 -186 -293.5s-171 -151 -274 -198
s-211.5 -70.5 -325.5 -70.5c-167.333 0 -294.333 65.667 -381 197v-955h258v-69h-917v69h258v2478h-258v70h405c87.333 0 172 6.66699 254 20zM1503 635v544.999c0 354.667 -122.667 532 -368 532c-111.333 0 -206.833 -41.667 -286.5 -125s-119.5 -186.333 -119.5 -309
v-913c0 -97.333 41.667 -179.166 125 -245.499s171.333 -99.5 264 -99.5c95.333 0 183.333 44 264 132s121 249 121 483z" />
    <glyph glyph-name="q" unicode="q" horiz-adv-x="2052" 
d="M1323 1520l0.00195312 245.001c95.333 -13.333 178.666 -20 249.999 -20h409v-70h-258v-2478h258v-69h-917v69h258v955c-93.333 -131.333 -221.666 -197 -384.999 -197c-148.667 0 -288.334 41 -419.001 123s-234.834 193 -312.501 333s-116.5 292.333 -116.5 457
c0 134 22.667 258.333 68 373s107 213 185 295s166 144.833 264 188.5s198.667 65.5 302 65.5c89.333 0 170.333 -23.333 243 -70s129.667 -113.334 171 -200.001zM549.002 1180l-3.99902 -544.998c0 -232.667 41 -393.334 123 -482.001s170.667 -133 266 -133
c100 0 189.833 32.667 269.5 98s119.5 190 119.5 374v786c0 68 -16.333 135.667 -49 203s-79.834 122.666 -141.501 165.999s-133.167 65 -214.5 65c-150 0 -249 -55.833 -297 -167.5s-72 -233.167 -72 -364.5z" />
    <glyph glyph-name="r" unicode="r" horiz-adv-x="1618" 
d="M82 70l258 0.000976562v1605h-258v70h410c84 0 167 6.66699 249 20v-364c46.667 112.667 117 205 211 277s198.667 108 314 108c114.667 0 197.167 -25.333 247.5 -76s75.5 -103.334 75.5 -158.001c0 -76 -19.333 -138 -58 -186s-87.667 -72 -147 -72
c-57.333 0 -106.333 18.5 -147 55.5s-61 82.833 -61 137.5c0 8 0.666992 19.333 2 34s2 25 2 31c0 33.333 -7.83301 54.666 -23.5 63.999s-42.167 14 -79.5 14c-82 0 -158.5 -54.667 -229.5 -164s-106.5 -237.666 -106.5 -384.999v-1011h258v-70h-917v70z" />
    <glyph glyph-name="s" unicode="s" horiz-adv-x="1503" 
d="M90 -16l-0.00390625 548h57c52.667 -148 134.834 -268.833 246.501 -362.5s239.834 -140.5 384.501 -140.5c111.333 0 204.666 23 279.999 69s113 107.667 113 185c0 78 -17.5 147.5 -52.5 208.5s-112.833 108.833 -233.5 143.5l-332 94
c-278.667 80.667 -418 259.667 -418 537c0 125.333 30.5 227.166 91.5 305.499s134.333 134.333 220 168s164.834 50.5 237.501 50.5c112.667 0 219.334 -23.333 320.001 -70c56.667 -21.333 93.334 -32 110.001 -32c50 0 85.667 19 107 57h53v-483h-53
c-122 308 -297 462 -525 462c-114 0 -203.167 -27.333 -267.5 -82s-96.5 -118.667 -96.5 -192c0 -144 77.667 -239.667 233 -287l484 -151c242.667 -78.667 364 -233 364 -463c0 -138.667 -33 -252.667 -99 -342s-150 -153.666 -252 -192.999s-207.667 -59 -317 -59
c-91.333 0 -186.666 20.333 -285.999 61c-6 2.66699 -25.333 12.5 -58 29.5s-55.334 28 -68.001 33s-25.334 7.5 -38.001 7.5c-71.333 0 -120.666 -34 -147.999 -102h-57z" />
    <glyph glyph-name="t" unicode="t" horiz-adv-x="1380" 
d="M82 1745h336v577l401 144v-721h357v-70h-357v-1347c0 -14 1.33301 -37.333 4 -70c8 -74 27 -120.5 57 -139.5s67 -28.5 111 -28.5c84 0 172.667 39.667 266 119l41 -49c-67.333 -62.667 -143.833 -113.167 -229.5 -151.5s-166.167 -57.5 -241.5 -57.5
c-106.667 0 -190 19.667 -250 59s-101.5 93 -124.5 161s-34.5 150.333 -34.5 247v1257h-336v70z" />
    <glyph glyph-name="u" unicode="u" horiz-adv-x="2167" 
d="M1839 70h258v-70h-659v233c-165.333 -190.667 -356.666 -286 -573.999 -286c-357.333 0 -536 180 -536 540v1188h-258v70h409c71.333 0 154.666 6.66699 249.999 20v-1400c0 -65.333 16.833 -131.5 50.5 -198.5s106.834 -100.5 219.501 -100.5c164.667 0 311 90 439 270
v1339h-230v70h381c93.333 0 176.666 6.66699 249.999 20v-1695z" />
    <glyph glyph-name="v" unicode="v" horiz-adv-x="1954" 
d="M0 1745h941.999v-70h-307l487 -1192l373 881c22 68.667 33 115 33 139c0 114.667 -76.667 172 -230 172v70h656v-70c-101.333 -6.66699 -175.166 -37.5 -221.499 -92.5s-89.833 -127.833 -130.5 -218.5l-607 -1409h-98l-717 1720h-180v70z" />
    <glyph glyph-name="w" unicode="w" horiz-adv-x="3064" 
d="M0 1675v70.001h836v-70h-201l532 -1188l303 693l-221 495h-176v70h873v-70h-242l528 -1188l336 832c22 54 33 104.333 33 151c0 82 -30.333 136.667 -91 164s-121.667 41 -183 41v70h737v-70c-68.667 -8.66699 -124.667 -27.334 -168 -56.001
s-77.666 -64.167 -103 -106.5c-25.333 -42.333 -56.666 -106.833 -94 -193.5l-581 -1364h-103l-479 1081l-463 -1081h-110l-787 1720h-176z" />
    <glyph glyph-name="x" unicode="x" horiz-adv-x="2056" 
d="M844 811l-593.996 864.003h-217v70h889v-70h-185l418 -598l184 271c8 12.667 21.833 30.667 41.5 54s34.167 45.666 43.5 66.999s14 47.666 14 78.999c0 84.667 -72.333 127 -217 127v70h708v-70h-61c-58.667 0 -121.834 -23.333 -189.501 -70
s-124.834 -102.334 -171.501 -167.001l-315 -439l647 -929h184v-70h-905v70h238l-471 667l-258 -356c-41.333 -54.667 -62 -121.667 -62 -201c0 -27.333 20.167 -52.5 60.5 -75.5s80.166 -34.5 119.499 -34.5h33v-70h-745v70h33c163.333 0 329.666 116 498.999 348z" />
    <glyph glyph-name="y" unicode="y" horiz-adv-x="1913" 
d="M1032 -119l-848.001 1794h-184v70h885v-70h-258l602 -1261l327 929c16.667 47.333 25 92.666 25 135.999c0 130.667 -77.667 196 -233 196h-37v70h659v-70c-89.333 -5.33301 -155.833 -38.833 -199.5 -100.5s-86.5 -146.834 -128.5 -255.501l-724 -1950
c-38.667 -103.333 -94 -178.333 -166 -225s-149.333 -70 -232 -70c-125.333 0 -225.666 30 -300.999 90s-113 128.333 -113 205c0 79.333 20.833 147 62.5 203s93.5 84 155.5 84c59.333 0 114.333 -15.5 165 -46.5s76 -81.167 76 -150.5c0 -31.333 -5.33301 -60 -16 -86
c-16.667 -44.667 -25 -76 -25 -94c0 -46.667 46.667 -70 140 -70c72 0 130.667 56 176 168z" />
    <glyph glyph-name="z" unicode="z" horiz-adv-x="1663" 
d="M176 1229l32.999 516h1384l-1007 -1675h147c169.333 0 324.333 29.333 465 88s238.334 185 293.001 379h65l-32 -537h-1467l1020 1675h-213c-121.333 0 -220.5 -16.5 -297.5 -49.5s-138.333 -80.167 -184 -141.5s-92.5 -146.333 -140.5 -255h-66z" />
    <glyph glyph-name="braceleft" unicode="{" horiz-adv-x="1446" 
d="M1208 2982l21.0039 -139c-78.667 -14.667 -151 -51.334 -217 -110c-66 -58.667 -99 -151.667 -99 -279c0 -48 2.66699 -112.167 8 -192.5s9.66602 -151.5 12.999 -213.5v-221c-8 -126 -30 -236 -66 -330s-88.833 -175.5 -158.5 -244.5s-160.167 -131.5 -271.5 -187.5
c112 -52 203.667 -114 275 -186s124.166 -154.667 158.499 -248s55.166 -201.333 62.499 -324v-221c-4 -69.333 -9.33301 -137.666 -16 -204.999c-3.33301 -43.333 -5 -110 -5 -200c0 -103.333 29.667 -190.833 89 -262.5s135 -114.167 227 -127.5l-21 -139
c-406.667 43.333 -610 316.333 -610 819c0 33.333 2 83 6 149s6 116 6 150c0 165.333 -16.833 300.166 -50.5 404.499s-79 180.833 -136 229.5s-121.833 75 -194.5 79v168c105.333 10 195.166 67.667 269.499 173s111.5 285.333 111.5 540c0 32 -2 83 -6 153
s-6 118.667 -6 146c0 502.667 203.333 775.667 610 819z" />
    <glyph glyph-name="bar" unicode="|" 
d="M946 -803v4313h287v-4313h-287z" />
    <glyph glyph-name="braceright" unicode="}" horiz-adv-x="1446" 
d="M238 -848l-21 139.002c90 14 165 55.167 225 123.5s90 157.166 90 266.499c0 38.667 -1.5 86.667 -4.5 144s-5.5 101.333 -7.5 132l-8 129v221c7.33301 126 28 234.833 62 326.5s86.833 173.5 158.5 245.5s163.5 134 275.5 186c-111.333 56 -201.833 118.5 -271.5 187.5
s-122.5 150.5 -158.5 244.5s-58 204 -66 330v221c1.33301 26.667 4 63.667 8 111l8 94c2.66699 43.333 4 110.333 4 201c0 214 -105 343.667 -315 389l21 139c256.667 -28.667 422.5 -121.167 497.5 -277.5s112.5 -336.833 112.5 -541.5c0 -36.667 -1.33301 -85.667 -4 -147
s-4 -112 -4 -152c0 -454.667 125.667 -692.334 377 -713.001v-168c-251.333 -17.333 -377 -255 -377 -713c0 -36 1.33301 -85 4 -147s4 -112.667 4 -152c0 -204.667 -37.667 -385.167 -113 -541.5s-241 -248.833 -497 -277.5z" />
    <glyph glyph-name="asciitilde" unicode="~" horiz-adv-x="2122" 
d="M1839 1503h111.001c-132.667 -286.667 -281.667 -430 -447 -430c-86.667 0 -246.334 24.667 -479.001 74c-214.667 46.667 -355.334 70 -422.001 70c-118 0 -204 -49.333 -258 -148h-115c54.667 126 130.334 232 227.001 318s204 129 322 129
c119.333 0 284.666 -27.333 495.999 -82c178.667 -52 312.334 -78 401.001 -78c30 0 55.5 11.5 76.5 34.5s50.167 60.5 87.5 112.5z" />
    <glyph glyph-name="afii10062" unicode="&#xa1;" horiz-adv-x="2548" 
d="M1589 901l503.999 1286c38 100 57 182 57 246c0 51.333 -15.5 92.833 -46.5 124.5s-76.833 47.5 -137.5 47.5h-57v78h696v-78c-172.667 0 -294 -90 -364 -270l-578 -1495c-10 -25.333 -56.333 -122.333 -139 -291c-102.667 -223.333 -202.834 -378.166 -300.501 -464.499
s-199.5 -129.5 -305.5 -129.5c-100.667 0 -194.334 21.667 -281.001 65s-155.167 101.5 -205.5 174.5s-75.5 151.5 -75.5 235.5c0 90 24.167 166.5 72.5 229.5s114.5 94.5 198.5 94.5c82.667 0 148.334 -23.667 197.001 -71s73 -101.666 73 -162.999
c0 -34 -19 -81.667 -57 -143c-18 -26.667 -36 -46 -54 -58c-78.667 -52.667 -118 -96.334 -118 -131.001c0 -40.667 25.833 -76.667 77.5 -108s119.834 -47 204.501 -47c82.667 0 150.334 29.333 203.001 88s112 145.334 178 260.001l-1048 2224h-283v78h1126v-78h-344z
M1393 2847c-165.333 0 -318 36.333 -458 109s-210 178.334 -210 317c0 72.667 24.167 130.334 72.5 173c48.333 42.667 104.833 64 169.5 64c66.667 0 118.834 -22.5 156.501 -67.5s56.5 -98.833 56.5 -161.5c0 -30.667 -12.333 -60.667 -37 -90
c-8 -10 -21 -23.167 -39 -39.5s-31.667 -31.333 -41 -45s-14 -30.5 -14 -50.5c0 -80 107.667 -123.667 323 -131h49c96 3.33301 174.667 13.166 236 29.5c61.333 16.333 92 50.166 92 101.5c0 23.333 -9.66699 46.333 -29 69c-5.33301 7.33301 -19.5 20.833 -42.5 40.5
s-40 37.5 -51 53.5s-16.5 36.667 -16.5 62c0 56.667 19.167 109 57.5 157s91.5 72 159.5 72c63.333 0 120.166 -21.333 170.499 -64s75.5 -100.334 75.5 -173c0 -132 -67.333 -236 -202 -312s-294 -114 -478 -114z" />
    <glyph glyph-name="afii10110" unicode="&#xa2;" horiz-adv-x="1913" 
d="M1032 -119l-848.001 1794h-184v70h885v-70h-258l602 -1261l327 929c16.667 47.333 25 92.666 25 135.999c0 130.667 -77.667 196 -233 196h-37v70h659v-70c-89.333 -5.33301 -155.833 -38.833 -199.5 -100.5s-86.5 -146.834 -128.5 -255.501l-724 -1950
c-38.667 -103.333 -94 -178.333 -166 -225s-149.333 -70 -232 -70c-125.333 0 -225.666 30 -300.999 90s-113 128.333 -113 205c0 79.333 20.833 147 62.5 203s93.5 84 155.5 84c59.333 0 114.333 -15.5 165 -46.5s76 -81.167 76 -150.5c0 -31.333 -5.33301 -60 -16 -86
c-16.667 -44.667 -25 -76 -25 -94c0 -46.667 46.667 -70 140 -70c72 0 130.667 56 176 168zM1085 1978c-135.333 0 -249.834 21 -343.501 63s-164.167 97.667 -211.5 167s-71 143 -71 221c0 68 25.167 119.833 75.5 155.5s108.5 53.5 174.5 53.5
c65.333 0 115.666 -22.5 150.999 -67.5s53 -92.167 53 -141.5c0 -38 -10.667 -72 -32 -102c-28 -36.667 -71.667 -60 -131 -70c-44 -6 -66 -30.667 -66 -74c0 -38 35 -69.5 105 -94.5s145.667 -38.5 227 -40.5h131c80.667 2 154.667 15 222 39s101 56 101 96
c0 34.667 -4.5 54.834 -13.5 60.5c-9 5.66699 -28.833 11.5 -59.5 17.5c-98.667 17.333 -148 73.333 -148 168c0 58 18.333 107.333 55 148s86.667 61 150 61c70.667 0 129.334 -19.667 176.001 -59s70 -89.333 70 -150c0 -80 -21.667 -154 -65 -222
s-111.166 -123.167 -203.499 -165.5s-207.833 -63.5 -346.5 -63.5z" />
    <glyph glyph-name="afii10057" unicode="&#xa3;" horiz-adv-x="1860" 
d="M1372 692l-8.00293 -109.997c-13.333 -194.667 -85.166 -347.834 -215.499 -459.501s-282.5 -167.5 -456.5 -167.5c-135.333 0 -251.166 29.167 -347.499 87.5s-168.333 129 -216 212s-71.5 160.5 -71.5 232.5c0 72.667 25.667 134.667 77 186s110.333 77 177 77
c72 0 131 -21.667 177 -65s69 -98.333 69 -165c0 -68 -32.667 -132 -98 -192c-19.333 -19.333 -39.166 -36.333 -59.499 -51s-30.5 -26.334 -30.5 -35.001c0 -48 24 -94.167 72 -138.5s120.667 -66.5 218 -66.5c76 0 128.333 18.167 157 54.5s53 82.166 73 137.499
c16 49.333 24 90.333 24 123v2253h-315v78h1090v-78h-316v-1913z" />
    <glyph glyph-name="currency" unicode="&#xa4;" horiz-adv-x="3170" 
d="M2720 2712l164 -164l-414 -410c89.333 -106.667 155.333 -222 198 -346s64 -250.333 64 -379s-21.167 -254.5 -63.5 -377.5s-108.5 -238.833 -198.5 -347.5l414 -409l-164 -164l-410 413c-210 -174.667 -451.667 -262 -725 -262s-515 87.333 -725 262l-409 -413l-164 164
l413 409c-174.667 210 -262 451.667 -262 725s87.333 515 262 725l-413 410l164 164l409 -414c108.667 90 224.5 156.167 347.5 198.5s248.833 63.5 377.5 63.5s255 -21.333 379 -64s239.333 -108.667 346 -198zM668 1413c0 -170.667 41.5 -328.334 124.5 -473.001
s194.833 -259 335.5 -343s293 -126 457 -126s316.333 42 457 126s252.667 198.333 336 343s125 302.334 125 473.001s-41.667 328.334 -125 473.001s-195.333 259 -336 343s-293 126 -457 126s-316.333 -42 -457 -126s-252.5 -198.333 -335.5 -343
s-124.5 -302.334 -124.5 -473.001z" />
    <glyph glyph-name="afii10050" unicode="&#xa5;" horiz-adv-x="2220" 
d="M946 2605l0.000976562 -2523h316v-82h-1090v82h315v2523h-315v78h1208c139.333 0 251.166 41.833 335.499 125.5s143.833 177 178.5 280s57.334 201.167 68.001 294.5h98l58 -1106h-86c-56 141.333 -132.333 231.333 -229 270s-199.334 58 -308.001 58h-549z" />
    <glyph glyph-name="brokenbar" unicode="&#xa6;" horiz-adv-x="1262" 
d="M401 1561c0 70 24.167 125.667 72.5 167s100.833 62 157.5 62c60.667 0 114 -23.333 160 -70s69 -99.667 69 -159c0 -56.667 -20.667 -109.167 -62 -157.5s-97 -72.5 -167 -72.5c-65.333 0 -120 22 -164 66s-66 98.667 -66 164zM401 184
c0 60.667 23.5 114.167 70.5 160.5s100.167 69.5 159.5 69.5c56 0 108.167 -20.667 156.5 -62s72.5 -97.333 72.5 -168c0 -66 -22 -120.667 -66 -164s-98.333 -65 -163 -65c-69.333 0 -125 24.5 -167 73.5s-63 100.833 -63 155.5z" />
    <glyph glyph-name="section" unicode="&#xa7;" horiz-adv-x="2220" 
d="M1307 49l-622.998 265.998c-60.667 26 -125.834 68.333 -195.501 127s-130.334 136.334 -182.001 233.001s-77.5 206.334 -77.5 329.001c0 94 18.167 185.833 54.5 275.5s89 166.167 158 229.5s149.833 103.666 242.5 120.999
c-182.667 125.333 -274 339.666 -274 642.999c0 138 34.833 257.5 104.5 358.5s159 177.167 268 228.5s219.5 77 331.5 77s219.333 -24.667 322 -74s185.334 -118.333 248.001 -207s94 -189 94 -301c0 -70.667 -21.833 -124.5 -65.5 -161.5s-91.5 -55.5 -143.5 -55.5
c-64.667 0 -115 22 -151 66s-54 97 -54 159c0 39.333 7.5 70.333 22.5 93s36.667 46.5 65 71.5s46.833 46.833 55.5 65.5c6 18.667 9 48.667 9 90c0 37.333 -21.667 69 -65 95s-95.666 45.333 -156.999 58s-118.666 19 -171.999 19c-107.333 0 -200.5 -22.667 -279.5 -68
s-138.833 -104.833 -179.5 -178.5s-61 -151.167 -61 -232.5c0 -206.667 95.667 -348.667 287 -426l676 -275c123.333 -49.333 222.666 -126.166 297.999 -230.499s118 -225.5 128 -363.5v-114c-10.667 -141.333 -63.167 -271.666 -157.5 -390.999
s-211.166 -179 -350.499 -179c245.333 -114.667 368 -284 368 -508c0 -135.333 -28 -266.666 -84 -393.999s-141.833 -231.333 -257.5 -312s-257.167 -121 -424.5 -121c-146 0 -275.833 27.333 -389.5 82s-201.334 125.667 -263.001 213s-92.5 177.333 -92.5 270
c0 68 22.167 126.667 66.5 176s102.833 74 175.5 74c57.333 0 103 -20.667 137 -62s51 -97 51 -167c0 -43.333 -6.83301 -73.5 -20.5 -90.5s-36.834 -36.167 -69.501 -57.5l-31.5 -19.5c-15.667 -9.66699 -28 -19.667 -37 -30s-13.5 -22.5 -13.5 -36.5
c0 -35.333 20.333 -74.833 61 -118.5s95.667 -80.5 165 -110.5s141.333 -45 216 -45c80 0 162.667 13.333 248 40s158.166 72.334 218.499 137.001s90.5 149 90.5 253c0 141.333 -30.667 249.166 -92 323.499s-127.333 126.166 -198 155.499zM1495 1266l-598 244.998
c-40 16.667 -87.667 25 -143 25c-92 0 -174.167 -25.667 -246.5 -77s-114.5 -126.666 -126.5 -225.999v-98c8 -76.667 37.333 -147.167 88 -211.5s112.667 -111.5 186 -141.5l738 -299c20 -8 45.667 -12 77 -12c84 0 164.5 31 241.5 93s115.5 147 115.5 255
c0 92.667 -27 178.834 -81 258.501s-137.667 142.5 -251 188.5z" />
    <glyph glyph-name="afii10023" unicode="&#xa8;" horiz-adv-x="2449" 
d="M1692 2925c-158.667 0 -238 62.667 -238 188c0 120 79.333 180 238 180c158 0 237 -60 237 -180c0 -125.333 -79 -188 -237 -188zM827 2925c-158 0 -237 62.667 -237 188c0 68.667 20 115.834 60 141.5c40 25.667 99 38.5 177 38.5c158.667 0 238 -60 238 -180
c0 -125.333 -79.333 -188 -238 -188zM487 82v2523h-315v78h2019l45 -774h-98c-64.667 464 -290 696 -676 696h-516v-1130h152c274.667 0 420.667 163.667 438 491h82v-1073h-82c-23.333 136.667 -48.5 239.167 -75.5 307.5s-66.167 117.5 -117.5 147.5s-126.333 45 -225 45
h-172v-1311h586c172 0 319.167 50.333 441.5 151s209.833 301.667 262.5 603h99l-86 -836h-2077v82h315z" />
    <glyph glyph-name="copyright" unicode="&#xa9;" horiz-adv-x="3121" 
d="M172 1339c0 173.333 32.665 342.998 97.998 508.998s159.5 315.667 282.5 449s270.667 238.5 443 315.5s360.833 115.5 565.5 115.5c251.333 0 483.5 -62.5 696.5 -187.5s381.5 -294.167 505.5 -507.5s186 -444.666 186 -693.999c0 -246.667 -61.667 -476.5 -185 -689.5
s-291.666 -382 -504.999 -507s-446 -187.5 -698 -187.5c-190.667 0 -371.167 36.167 -541.5 108.5s-319.166 173 -446.499 302s-226 277.333 -296 445s-105 343.834 -105 528.501zM286.998 1339c0 -228 56.333 -439.168 169 -633.501s267 -348.833 463 -463.5
s410 -172 642 -172c230.667 0 443.667 57 639 171s349.833 268.333 463.5 463s170.5 406.334 170.5 635.001c0 175.333 -33.333 341 -100 497s-159.334 292.333 -278 409c-118.667 116.667 -255.5 207.167 -410.5 271.5s-316.5 96.5 -484.5 96.5
c-226 0 -437 -56.5 -633 -169.5s-351.833 -267 -467.5 -462s-173.5 -409.167 -173.5 -642.5zM2064 1663l-68.9951 -0.00292969c-48 308.667 -197 463 -447 463c-150.667 0 -253.167 -67.167 -307.5 -201.5s-86.833 -269.166 -97.5 -404.499v-197
c5.33301 -283.333 51.166 -483.166 137.499 -599.499s186.5 -174.5 300.5 -174.5c111.333 0 214.166 49 308.499 147s156.833 221 187.5 369h69l-20 -561h-70c0 20.667 -4.33301 38.834 -13 54.501s-19.334 23.5 -32.001 23.5c-28.667 0 -57.334 -10.833 -86.001 -32.5
s-65.167 -39.5 -109.5 -53.5s-123.833 -21 -238.5 -21c-182.667 0 -334.167 40.833 -454.5 122.5s-207.833 185.667 -262.5 312s-82 257.5 -82 393.5c0 149.333 28.833 293 86.5 431s144.667 250.833 261 338.5s257.166 131.5 422.499 131.5c92 0 159.333 -3.66699 202 -11
s78.5 -16.333 107.5 -27s54.167 -16 75.5 -16c20 0 35 18 45 54h62z" />
    <glyph glyph-name="afii10053" unicode="&#xaa;" horiz-adv-x="2486" 
d="M2286 983l86 0.00292969c-30.667 -250.667 -118.834 -484.667 -264.5 -702c-145.667 -217.333 -383.834 -326 -714.501 -326c-190.667 0 -359.667 37.167 -507 111.5s-270.833 178.166 -370.5 311.499s-174.334 288.666 -224.001 465.999s-74.5 367 -74.5 569
c0 235.333 39.833 438.666 119.5 609.999s181 308.833 304 412.5s251.667 179 386 226s257.833 70.5 370.5 70.5c110 0 211 -15 303 -45c24 -6.66699 64.333 -20.667 121 -42s98.334 -32 125.001 -32c43.333 0 76 9.83301 98 29.5s43.667 53.5 65 101.5l99 4l20 -872l-90 -4
c-32.667 254.667 -102.667 448.667 -210 582s-275 200 -503 200c-99.333 0 -201.666 -29.167 -306.999 -87.5s-196.5 -166.5 -273.5 -324.5s-115.5 -373 -115.5 -645l4 -143l1077 21v-82l-1077 -17l8 -442c4 -206 39.5 -376.333 106.5 -511s154 -232.667 261 -294
s224.833 -92 353.5 -92c129.333 0 250.833 36.667 364.5 110s210.5 181 290.5 323s136.333 313 169 513z" />
    <glyph glyph-name="guillemotleft" unicode="&#xab;" horiz-adv-x="1556" 
d="M1139 45l-37 -33c-291.333 338.667 -620.333 624 -987 856c375.333 234 704.333 519.333 987 856l37 -32c-162 -284 -352 -558.667 -570 -824c104.667 -126.667 205 -259 301 -397s185.667 -280 269 -426zM1442 422l-41 -16c-162 182.667 -350.333 336.667 -565 462
c215.333 130 403.666 285.667 564.999 467l41 -16c-69.333 -162.667 -165 -311.667 -287 -447c114.667 -130 210.334 -280 287.001 -450z" />
    <glyph glyph-name="logicalnot" unicode="&#xac;" horiz-adv-x="3035" 
d="M2863 1147v-746h-147v615h-2544v131h2691z" />
    <glyph glyph-name="registered" unicode="&#xae;" horiz-adv-x="3150" 
d="M1348 623l175.996 0.00195312v-45h-684v45h180v1425h-180v45h663c178 0 333.833 -20.167 467.5 -60.5s200.5 -132.166 200.5 -275.499c0 -202.667 -158.333 -325.334 -475 -368.001v-13c189.333 -43.333 312 -110 368 -200c20.667 -34.667 38.5 -113.834 53.5 -237.501
s26 -205.167 33 -244.5s24.833 -59 53.5 -59c27.333 0 68.333 27.333 123 82l36 -41c-50.667 -54 -94.334 -88 -131 -102c-36.667 -14 -83 -21 -139 -21c-109.333 0 -185.166 22.667 -227.499 68s-70.166 138.666 -83.499 279.999c-13.333 143.333 -30.166 247 -50.499 311
s-46.666 104 -78.999 120s-83.5 24 -153.5 24h-151v-733zM1348 1401h127c100.667 0 181.667 22.333 243 67s92 141 92 289c0 112 -24.5 188.5 -73.5 229.5s-130.833 61.5 -245.5 61.5h-143v-647zM183.996 1343c0 252.667 63.332 485.999 189.999 699.999s297 383 511 507
s443.333 186 688 186c246.667 0 477.334 -62 692.001 -186s385.167 -292.667 511.5 -506s189.5 -447 189.5 -701c0 -248 -62 -478.667 -186 -692s-293 -382.666 -507 -507.999s-447.333 -188 -700 -188c-251.333 0 -483.5 62.333 -696.5 187s-381.667 293.5 -506 506.5
s-186.5 444.5 -186.5 694.5zM298.995 1343c0 -226 56.833 -436.669 170.5 -632.002s268 -351 463 -467s408.5 -174 640.5 -174c229.333 0 441.833 56.667 637.5 170s350.667 267.833 465 463.5s171.5 408.834 171.5 639.501c0 232 -57.333 445.833 -172 641.5
s-270 350 -466 463s-408 169.5 -636 169.5c-168 0 -329 -32 -483 -96s-290.833 -154.833 -410.5 -272.5s-213 -254.167 -280 -409.5s-100.5 -320.666 -100.5 -495.999z" />
    <glyph glyph-name="afii10056" unicode="&#xaf;" horiz-adv-x="1430" 
d="M1147 2925c-158.667 0 -237.999 62.667 -237.999 188c0 120 79.333 180 238 180c101.333 0 166.166 -17.5 194.499 -52.5s42.5 -77.5 42.5 -127.5c0 -125.333 -79 -188 -237 -188zM283.001 2925c-158.667 0 -238 62.667 -238 188c0 69.333 20.167 116.666 60.5 142
c40.333 25.333 99.5 38 177.5 38c158 0 237 -60 237 -180c0 -125.333 -79 -188 -237 -188zM487.001 82v2523h-315v78h1090v-78h-316v-2523h316v-82h-1090v82h315z" />
    <glyph glyph-name="degree" unicode="&#xb0;" horiz-adv-x="1204" 
d="M229 2437c0 106 36.167 194.667 108.5 266s160.5 107 264.5 107c102 0 189.667 -35.833 263 -107.5s110 -160.167 110 -265.5c0 -103.333 -36 -191.333 -108 -264s-160.333 -109 -265 -109c-105.333 0 -193.833 36.667 -265.5 110s-107.5 161 -107.5 263zM332 2437
c0 -74.667 26.6709 -138.334 80.0039 -191c53.333 -52.667 116.666 -79 189.999 -79c75.333 0 139.166 26.833 191.499 80.5s78.5 116.834 78.5 189.5c0 75.333 -25.833 139.166 -77.5 191.5c-51.667 52.333 -115.834 78.5 -192.501 78.5
c-74.667 0 -138.334 -26 -191.001 -78s-79 -116 -79 -192z" />
    <glyph glyph-name="plusminus" unicode="&#xb1;" horiz-adv-x="2753" 
d="M1466 717h-172v618h-1007v176h1007v795h172v-795h1000v-176h-1000v-618zM287 238v168h2179v-168h-2179z" />
    <glyph glyph-name="afii10055" unicode="&#xb2;" horiz-adv-x="1434" 
d="M487 82v2523h-315v78h1090v-78h-316v-2523h316v-82h-1090v82h315z" />
    <glyph glyph-name="afii10103" unicode="&#xb3;" horiz-adv-x="1069" 
d="M82 70h258v1605h-258v70h405c87.333 0 172 6.66699 254 20v-1695h258v-70h-917v70zM303 2408c0 60 22.833 113.333 68.5 160s99.167 70 160.5 70c56.667 0 109.167 -20.667 157.5 -62s72.5 -97.333 72.5 -168c0 -70 -24.5 -125.667 -73.5 -167s-101.167 -62 -156.5 -62
c-61.333 0 -114.833 23.333 -160.5 70s-68.5 99.667 -68.5 159z" />
    <glyph glyph-name="afii10098" unicode="&#xb4;" horiz-adv-x="1610" 
d="M340 70l0.000976562 1605h-258v70h913c103.333 0 184.833 11.5 244.5 34.5s109.167 69 148.5 138s73.666 175.167 102.999 318.5h86v-884h-86c-30.667 131.333 -98.167 218 -202.5 260s-226.5 63 -366.5 63h-111h-70v-1605h258v-70h-917v70h258z" />
    <glyph glyph-name="mu" unicode="&#xb5;" horiz-adv-x="2167" 
d="M1839 70l257.997 0.000976562v-70h-659v233c-166 -190.667 -357.333 -286 -574 -286c-129.333 0 -237 45 -323 135h-17c23.333 -82.667 54.5 -211.167 93.5 -385.5s58.5 -286.166 58.5 -335.499c0 -191.333 -83.333 -287 -250 -287c-95.333 0 -156.666 27 -183.999 81
s-41 122.667 -41 206c0 46 15.333 177.167 46 393.5s51.834 369.666 63.501 459.999s17.5 181.166 17.5 272.499v1258h401v-1380c0 -86.667 26.833 -158.167 80.5 -214.5s123.834 -84.5 210.501 -84.5c152.667 0 292 90 418 270v1409h401v-1675z" />
    <glyph glyph-name="paragraph" unicode="&#xb6;" horiz-adv-x="1835" 
d="M856 -803l0.000976562 2237c-148.667 4 -277.5 41.333 -386.5 112s-191.333 160.334 -247 269.001s-83.5 220.334 -83.5 335.001c0 115.333 28 227.5 84 336.5s138.667 198.5 248 268.5s237.666 107.333 384.999 112h287v-3670h-287zM1430 -803.002v3670h286v-3670h-286z
" />
    <glyph glyph-name="periodcentered" unicode="&#xb7;" horiz-adv-x="791" 
d="M172 1511c0 64.667 21.501 118.5 64.501 161.5s96.5 64.5 160.5 64.5c62 0 114.333 -21.333 157 -64s64 -96.667 64 -162c0 -62 -21 -114.333 -63 -157s-94.667 -64 -158 -64c-64.667 0 -118.334 21.667 -161.001 65s-64 95.333 -64 156z" />
    <glyph glyph-name="afii10071" unicode="&#xb8;" horiz-adv-x="1798" 
d="M295 2408c0 65.333 23.667 120 71 164s100 66 158 66c56.667 0 109.167 -20.667 157.5 -62s72.5 -97.333 72.5 -168c0 -70 -24.5 -125.667 -73.5 -167s-101.167 -62 -156.5 -62c-60.667 0 -114 23.5 -160 70.5s-69 99.833 -69 158.5zM1040 2408
c0 60 22.833 113.333 68.5 160s99.5 70 161.5 70c56 0 108.167 -20.667 156.5 -62s72.5 -97.333 72.5 -168c0 -70 -24.5 -125.667 -73.5 -167s-100.833 -62 -155.5 -62c-62 0 -115.833 23.333 -161.5 70s-68.5 99.667 -68.5 159zM1638 487l70 -45.0039
c-66.667 -105.333 -139.834 -194.166 -219.501 -266.499s-169.167 -127.166 -268.5 -164.499s-211 -56 -335 -56c-142 0 -274 39.333 -396 118s-219 187.834 -291 327.501s-108 296.834 -108 471.501c0 161.333 35.833 312.666 107.5 453.999s170.334 254 296.001 338
s264.167 126 415.5 126c108 0 218.333 -21.667 331 -65s212.667 -126 300 -248s138 -290.667 152 -506h-1147l4 -283c1.33301 -117.333 11.333 -222.666 30 -315.999s57.5 -171.833 116.5 -235.5s143.833 -95.5 254.5 -95.5c252.667 0 482 148.667 688 446zM545 1036
h720.999c0 15.333 0.666992 37 2 65s2 48.667 2 62c0 178.667 -23.5 316.167 -70.5 412.5s-136.833 144.5 -269.5 144.5c-149.333 0 -250.166 -47 -302.499 -141s-78.5 -189 -78.5 -285z" />
    <glyph glyph-name="afii61352" unicode="&#xb9;" horiz-adv-x="4542" 
d="M2732 -45l-98 -0.00292969l-1540 2302v-1794c0 -338.667 -138 -508 -414 -508c-84 0 -164.833 15.833 -242.5 47.5s-141.334 78.834 -191.001 141.501s-74.5 136.334 -74.5 221.001c0 96.667 24.667 171.334 74 224.001s113.333 79 192 79c62 0 113 -22.5 153 -67.5
s60 -94.833 60 -149.5c0 -48.667 -13.667 -95.334 -41 -140.001c-10.667 -17.333 -29 -41.5 -55 -72.5s-39 -55.833 -39 -74.5c0 -35.333 12.333 -66.666 37 -93.999s63 -41 115 -41c218 0 327 143.333 327 430v1941c-11.333 126 -98.666 189 -261.999 189h-102v94h717
l1286 -1954v1499c0 142.667 35.333 261.667 106 357s177.334 143 320 143c84 0 164.833 -19 242.5 -57s139.834 -89.667 186.5 -155c46.667 -65.333 70 -135.333 70 -210c0 -84 -21.5 -152.167 -64.5 -204.5s-100.5 -78.5 -172.5 -78.5c-73.333 0 -131.333 23.167 -174 69.5
s-64 101.166 -64 164.5c0 36 5.5 65.5 16.5 88.5s26.667 45 47 66s35.333 38.5 45 52.5s14.5 32.333 14.5 55c0 28 -14.167 56.167 -42.5 84.5s-64.5 42.5 -108.5 42.5c-92.667 0 -169.834 -36.5 -231.5 -109.5c-61.667 -73 -92.5 -177.167 -92.5 -312.5v-2269zM2970 1090
c0 139.333 34 259.503 102 360.503s156.167 177.333 264.5 229s222.166 77.5 341.5 77.5c125.333 0 241 -28.833 347 -86.5s190 -138.334 252 -242.001s93 -220.834 93 -351.501c0 -114.667 -28.666 -223.834 -86 -327.501s-138.167 -187.667 -242.5 -252
s-224.166 -96.5 -359.5 -96.5c-120 0 -234.833 28.5 -344.5 85.5s-198.334 138 -266 243c-67.667 105 -101.5 225.167 -101.5 360.5zM4043 885v380.998c0 60.667 -12.833 123.334 -38.5 188.001s-65.667 119 -120 163s-121.833 66 -202.5 66
c-96.667 0 -184.334 -32.167 -263 -96.5c-78.667 -64.333 -118 -171.166 -118 -320.499v-344c0 -102.667 27.667 -202.167 83 -298.5s153.333 -144.5 294 -144.5c88 0 170.833 29 248.5 87s116.5 164.333 116.5 319zM4264 163.998v-98h-1225v98h1225z" />
    <glyph glyph-name="afii10101" unicode="&#xba;" horiz-adv-x="1688" 
d="M1552 455l65.998 -29.002c-119.333 -314 -324 -471 -614 -471c-180.667 0 -340.667 45.5 -480 136.5s-246.5 210.5 -321.5 358.5s-112.5 304 -112.5 468c0 170 39.333 321.667 118 455s184.834 236.833 318.501 310.5s277.5 110.5 431.5 110.5
c100 0 198.333 -16.333 295 -49c74 -22 116.333 -33 127 -33c43.333 0 76.333 26 99 78h69l17 -614h-74c-12.667 139.333 -59.167 264.833 -139.5 376.5s-200.5 167.5 -360.5 167.5c-74.667 0 -144.667 -15.5 -210 -46.5s-119.666 -87.167 -162.999 -168.5
s-65 -191 -65 -329v-234h717v-70h-717v-225c0 -251.333 45.167 -417.166 135.5 -497.499s199.5 -120.5 327.5 -120.5c127.333 0 233.5 32.833 318.5 98.5s157.5 174.834 217.5 327.501z" />
    <glyph glyph-name="guillemotright" unicode="&#xbb;" horiz-adv-x="1556" 
d="M422 1692l32.999 32.001c146.667 -174 302 -331.5 466 -472.5s337.667 -268.833 521 -383.5c-366 -230.667 -695 -516 -987 -856l-33 33c164 295.333 352.333 569.666 565 822.999c-211.333 252 -399.666 526.667 -564.999 824zM114.999 1319l44.999 16
c153.333 -178 340.333 -333.667 561 -467c-219.333 -128.667 -406.333 -282.667 -561 -462l-45 16c80.667 170 176 320 286 450c-113.333 134.667 -208.666 283.667 -285.999 447z" />
    <glyph glyph-name="afii10105" unicode="&#xbc;" horiz-adv-x="1122" 
d="M414 1675l-316.001 0.00292969v70h467c84.667 0 168 6.66699 250 20v-2011c0 -102.667 -16.667 -196.334 -50 -281.001s-79.333 -156.5 -138 -215.5s-124 -103.667 -196 -134s-146 -45.5 -222 -45.5c-139.333 0 -247.166 30.667 -323.499 92s-114.5 141.333 -114.5 240
c0 55.333 19.5 100.666 58.5 135.999s90.5 53 154.5 53c62.667 0 111.667 -16.833 147 -50.5s53 -72.834 53 -117.501c0 -51.333 -12.333 -98 -37 -140c-13.333 -31.333 -20 -54.333 -20 -69c0 -22 13.667 -35.667 41 -41h25c64 4 116.5 30.667 157.5 80
s64.833 107.333 71.5 174v94c-5.33301 70.667 -8 119.667 -8 147v1999zM376.999 2408c0 60 22.5 113.333 67.5 160s98.833 70 161.5 70c56.667 0 109.167 -20.667 157.5 -62s72.5 -97.333 72.5 -168c0 -70 -24.5 -125.667 -73.5 -167s-101.167 -62 -156.5 -62
c-62.667 0 -116.5 23.333 -161.5 70s-67.5 99.667 -67.5 159z" />
    <glyph glyph-name="afii10054" unicode="&#xbd;" horiz-adv-x="2171" 
d="M180 0l-8.00098 856.001h53c118.667 -296.667 263.834 -507.334 435.501 -632.001s351.5 -187 539.5 -187c94.667 0 187 19.167 277 57.5s162.667 94.833 218 169.5s83 162.667 83 264c0 288.667 -146.333 471.667 -439 549l-483 131
c-171.333 47.333 -311.166 136 -419.499 266s-162.5 316 -162.5 558c0 139.333 32.333 261.833 97 367.5s151 186.834 259 243.5c108 56.667 223 85 345 85s217.667 -9.16699 287 -27.5s141.666 -43 216.999 -74s132.666 -46.5 171.999 -46.5c30 0 61.333 34.333 94 103h65
l17 -647h-58c-96 222.667 -212.333 381.334 -349 476c-136.667 94.667 -281 142 -433 142c-102 0 -192.667 -21.5 -272 -64.5s-140.5 -101.667 -183.5 -176s-64.5 -155.166 -64.5 -242.499c0 -111.333 25.333 -201.5 76 -270.5s110.334 -119.5 179.001 -151.5
s151.667 -60.667 249 -86l418 -111c233.333 -62 393.333 -166 480 -312s130 -305.333 130 -478c0 -145.333 -30.5 -279.833 -91.5 -403.5s-148.833 -221.834 -263.5 -294.501s-247.667 -109 -399 -109c-218.667 0 -422 45 -610 135c-96.667 44 -158 66 -184 66
c-44 0 -81.667 -14 -113 -42s-51 -66 -59 -114h-99z" />
    <glyph glyph-name="afii10102" unicode="&#xbe;" horiz-adv-x="1503" 
d="M90 -16l-0.00390625 548h57c52.667 -148 134.834 -268.833 246.501 -362.5s239.834 -140.5 384.501 -140.5c111.333 0 204.666 23 279.999 69s113 107.667 113 185c0 78 -17.5 147.5 -52.5 208.5s-112.833 108.833 -233.5 143.5l-332 94
c-278.667 80.667 -418 259.667 -418 537c0 125.333 30.5 227.166 91.5 305.499s134.333 134.333 220 168s164.834 50.5 237.501 50.5c112.667 0 219.334 -23.333 320.001 -70c56.667 -21.333 93.334 -32 110.001 -32c50 0 85.667 19 107 57h53v-483h-53
c-122 308 -297 462 -525 462c-114 0 -203.167 -27.333 -267.5 -82s-96.5 -118.667 -96.5 -192c0 -144 77.667 -239.667 233 -287l484 -151c242.667 -78.667 364 -233 364 -463c0 -138.667 -33 -252.667 -99 -342s-150 -153.666 -252 -192.999s-207.667 -59 -317 -59
c-91.333 0 -186.666 20.333 -285.999 61c-6 2.66699 -25.333 12.5 -58 29.5s-55.334 28 -68.001 33s-25.334 7.5 -38.001 7.5c-71.333 0 -120.666 -34 -147.999 -102h-57z" />
    <glyph glyph-name="afii10104" unicode="&#xbf;" horiz-adv-x="1073" 
d="M164 70h258v1605h-258v70h405c87.333 0 172 6.66699 254 20v-1695h258v-70h-917v70zM-8 2408c0 57.333 18.001 102.5 54.001 135.5s78 49.5 126 49.5c53.333 0 97.333 -18.5 132 -55.5s52 -80.167 52 -129.5c0 -50 -17.5 -93.167 -52.5 -129.5
s-78.833 -54.5 -131.5 -54.5c-46.667 0 -88.334 16.5 -125.001 49.5s-55 77.833 -55 134.5zM709.001 2408c0 49.333 17.667 92.5 53 129.5s79 55.5 131 55.5c54.667 0 99.667 -18.5 135 -55.5s53 -80.167 53 -129.5c0 -48.667 -17.833 -91.5 -53.5 -128.5
s-80.5 -55.5 -134.5 -55.5c-48 0 -90.667 17.833 -128 53.5s-56 79.167 -56 130.5z" />
    <glyph glyph-name="afii10017" unicode="&#xc0;" horiz-adv-x="2527" 
d="M1765 82l-303 826.999h-803l-147 -364l-35 -82.5c-12 -28.333 -22.167 -58 -30.5 -89s-12.5 -64.167 -12.5 -99.5c0 -62 17.333 -108.167 52 -138.5s104.667 -48.166 210 -53.499v-82h-696v82c79.333 5.33301 148.333 35.5 207 90.5s101.667 117.5 129 187.5l905 2323h74
l934 -2601h278v-82h-1126v82h364zM1434 990.999l-353 1016l-401 -1016h754z" />
    <glyph glyph-name="afii10017" unicode="&#x410;" horiz-adv-x="2527" 
d="M1765 82l-303 826.999h-803l-147 -364l-35 -82.5c-12 -28.333 -22.167 -58 -30.5 -89s-12.5 -64.167 -12.5 -99.5c0 -62 17.333 -108.167 52 -138.5s104.667 -48.166 210 -53.499v-82h-696v82c79.333 5.33301 148.333 35.5 207 90.5s101.667 117.5 129 187.5l905 2323h74
l934 -2601h278v-82h-1126v82h364zM1434 990.999l-353 1016l-401 -1016h754z" />
    <glyph glyph-name="afii10018" unicode="&#xc1;" horiz-adv-x="2630" 
d="M946 2601l0.000976562 -1057c109.333 5.33301 188.666 8 237.999 8c326 0 580.667 -41.833 764 -125.5s306.666 -183 369.999 -298s95 -229.167 95 -342.5c0 -226 -57.667 -397.167 -173 -513.5s-251.5 -190.833 -408.5 -223.5s-329.167 -49 -516.5 -49h-1143v82h315
v2519h-315v82h1962l45 -750h-78c-51.333 204 -98.166 351 -140.499 441s-96.5 150.333 -162.5 181s-165.667 46 -299 46h-553zM946.001 82l253.999 -0.000976562c130 0 243.667 12.833 341 38.5s180.833 85.834 250.5 180.501s104.5 236 104.5 424
c0 186 -27.5 333.667 -82.5 443s-141.167 187.833 -258.5 235.5s-271 71.5 -461 71.5c-63.333 0 -112.666 -1.66699 -147.999 -5v-1388z" />
    <glyph glyph-name="afii10018" unicode="&#x411;" horiz-adv-x="2630" 
d="M946 2601l0.000976562 -1057c109.333 5.33301 188.666 8 237.999 8c326 0 580.667 -41.833 764 -125.5s306.666 -183 369.999 -298s95 -229.167 95 -342.5c0 -226 -57.667 -397.167 -173 -513.5s-251.5 -190.833 -408.5 -223.5s-329.167 -49 -516.5 -49h-1143v82h315
v2519h-315v82h1962l45 -750h-78c-51.333 204 -98.166 351 -140.499 441s-96.5 150.333 -162.5 181s-165.667 46 -299 46h-553zM946.001 82l253.999 -0.000976562c130 0 243.667 12.833 341 38.5s180.833 85.834 250.5 180.501s104.5 236 104.5 424
c0 186 -27.5 333.667 -82.5 443s-141.167 187.833 -258.5 235.5s-271 71.5 -461 71.5c-63.333 0 -112.666 -1.66699 -147.999 -5v-1388z" />
    <glyph glyph-name="afii10019" unicode="&#xc2;" horiz-adv-x="2724" 
d="M172 2683h1241c262.667 0 465.667 -34 609 -102s238.166 -147.333 284.499 -238s69.5 -180.667 69.5 -270c0 -118 -38.833 -220.833 -116.5 -308.5s-178.667 -156.167 -303 -205.5s-253.5 -80.333 -387.5 -93v-20c364 -56 611.333 -150.167 742 -282.5
s196 -278.5 196 -438.5c0 -206 -82.167 -378.333 -246.5 -517s-429.166 -208 -794.499 -208h-1294v82h315v2519h-315v82zM946 1495l299 -0.000976562c240.667 0 402.5 53.333 485.5 160s124.5 244.334 124.5 413.001c0 226 -51 371.333 -153 436s-238 97 -408 97h-348v-1106
zM946 81.999h463c388 0 582 206 582 618c0 190.667 -38.167 339 -114.5 445s-167.833 177.167 -274.5 213.5s-216 54.5 -328 54.5h-328v-1331z" />
    <glyph glyph-name="afii10019" unicode="&#x412;" horiz-adv-x="2724" 
d="M172 2683h1241c262.667 0 465.667 -34 609 -102s238.166 -147.333 284.499 -238s69.5 -180.667 69.5 -270c0 -118 -38.833 -220.833 -116.5 -308.5s-178.667 -156.167 -303 -205.5s-253.5 -80.333 -387.5 -93v-20c364 -56 611.333 -150.167 742 -282.5
s196 -278.5 196 -438.5c0 -206 -82.167 -378.333 -246.5 -517s-429.166 -208 -794.499 -208h-1294v82h315v2519h-315v82zM946 1495l299 -0.000976562c240.667 0 402.5 53.333 485.5 160s124.5 244.334 124.5 413.001c0 226 -51 371.333 -153 436s-238 97 -408 97h-348v-1106
zM946 81.999h463c388 0 582 206 582 618c0 190.667 -38.167 339 -114.5 445s-167.833 177.167 -274.5 213.5s-216 54.5 -328 54.5h-328v-1331z" />
    <glyph glyph-name="afii10020" unicode="&#xc3;" horiz-adv-x="2204" 
d="M946 2601v-2519h316v-82h-1090v82h315v2519h-315v82h1954l49 -778h-98c-23.333 202.667 -72.333 356 -147 460s-150 169.333 -226 196s-145.667 40 -209 40h-549z" />
    <glyph glyph-name="afii10020" unicode="&#x413;" horiz-adv-x="2204" 
d="M946 2601v-2519h316v-82h-1090v82h315v2519h-315v82h1954l49 -778h-98c-23.333 202.667 -72.333 356 -147 460s-150 169.333 -226 196s-145.667 40 -209 40h-549z" />
    <glyph glyph-name="afii10021" unicode="&#xc4;" horiz-adv-x="2748" 
d="M2666 -733l-113.998 0.000976562c-56.667 304 -162.834 502.167 -318.501 594.5s-325.5 138.5 -509.5 138.5h-852c-360.667 0 -602.334 -244.333 -725.001 -733h-114l45 815h160c86.667 0 162.167 25 226.5 75s122.333 149.333 174 298s92 367.667 121 657
s43.5 669.666 43.5 1141c0 89.333 -7.5 156.5 -22.5 201.5s-50.167 80.167 -105.5 105.5s-142.333 40.333 -261 45v78h2171v-78h-316v-2523h365zM1810 82.001v2523h-352c-159.333 0 -273.5 -7.66699 -342.5 -23s-120.5 -51.833 -154.5 -109.5s-57.167 -137.667 -69.5 -240
s-29.5 -307.166 -51.5 -614.499c-20 -291.333 -44.333 -537.833 -73 -739.5s-57.834 -355.5 -87.501 -461.5s-57.667 -181.333 -84 -226s-54.166 -81 -83.499 -109h1298z" />
    <glyph glyph-name="afii10021" unicode="&#x414;" horiz-adv-x="2748" 
d="M2666 -733l-113.998 0.000976562c-56.667 304 -162.834 502.167 -318.501 594.5s-325.5 138.5 -509.5 138.5h-852c-360.667 0 -602.334 -244.333 -725.001 -733h-114l45 815h160c86.667 0 162.167 25 226.5 75s122.333 149.333 174 298s92 367.667 121 657
s43.5 669.666 43.5 1141c0 89.333 -7.5 156.5 -22.5 201.5s-50.167 80.167 -105.5 105.5s-142.333 40.333 -261 45v78h2171v-78h-316v-2523h365zM1810 82.001v2523h-352c-159.333 0 -273.5 -7.66699 -342.5 -23s-120.5 -51.833 -154.5 -109.5s-57.167 -137.667 -69.5 -240
s-29.5 -307.166 -51.5 -614.499c-20 -291.333 -44.333 -537.833 -73 -739.5s-57.834 -355.5 -87.501 -461.5s-57.667 -181.333 -84 -226s-54.166 -81 -83.499 -109h1298z" />
    <glyph glyph-name="afii10022" unicode="&#xc5;" horiz-adv-x="2462" 
d="M487 82v2523h-315v78h2019l45 -774h-98c-64.667 464 -290 696 -676 696h-516v-1130h148c113.333 0 210.5 30.167 291.5 90.5s131.167 193.833 150.5 400.5h82v-1073h-82c-23.333 136.667 -48.5 239.167 -75.5 307.5s-66.167 117.5 -117.5 147.5s-126.333 45 -225 45h-172
v-1311h586c169.333 0 315.833 50.5 439.5 151.5s211.834 301.833 264.5 602.5h99l-86 -836h-2077v82h315z" />
    <glyph glyph-name="afii10022" unicode="&#x415;" horiz-adv-x="2462" 
d="M487 82v2523h-315v78h2019l45 -774h-98c-64.667 464 -290 696 -676 696h-516v-1130h148c113.333 0 210.5 30.167 291.5 90.5s131.167 193.833 150.5 400.5h82v-1073h-82c-23.333 136.667 -48.5 239.167 -75.5 307.5s-66.167 117.5 -117.5 147.5s-126.333 45 -225 45h-172
v-1311h586c169.333 0 315.833 50.5 439.5 151.5s211.834 301.833 264.5 602.5h99l-86 -836h-2077v82h315z" />
    <glyph glyph-name="afii10024" unicode="&#xc6;" horiz-adv-x="4342" 
d="M2400 1507l335.996 0.00292969c94.667 0 169 14.167 223 42.5s93.833 67.833 119.5 118.5s42.5 102.334 50.5 155.001s19 142.667 33 270c14.667 130.667 27 225.834 37 285.5c10 59.667 30 117.667 60 174s74.667 99.666 134 130c59.333 30.333 139.333 45.5 240 45.5
c105.333 0 194.5 -33.5 267.5 -100.5s109.5 -150.833 109.5 -251.5c0 -78 -22.667 -146 -68 -204s-110 -87 -194 -87c-70 0 -128.5 20 -175.5 60s-70.5 85.333 -70.5 136c0 53.333 9.66699 108 29 164c10.667 44 16 90.667 16 140c0 21.333 -24.667 32 -74 32
c-117.333 0 -186.666 -135 -208 -405c-16.667 -186.667 -32.834 -323.5 -48.5 -410.5c-15.667 -87 -39.334 -152.667 -71 -197c-31.667 -44.333 -80.834 -79.5 -147.5 -105.5v-45c208 -46.667 363.833 -101.334 467.5 -164.001s180.167 -181.334 229.5 -356.001
c17.333 -60.667 30.333 -174.334 39 -341.001s21.167 -291.5 37.5 -374.5s50.833 -124.5 103.5 -124.5c100.667 0 182.667 41 246 123l61 -57c-71.333 -78 -136 -131.667 -194 -161s-128.333 -44 -211 -44c-164 0 -286.667 35.333 -368 106s-134.5 163.667 -159.5 279
s-41.833 275 -50.5 479c-14 404 -168.333 606 -463 606h-336v-1343h316v-82h-1090v82h316v1343h-336c-294.667 0 -449 -202 -463 -606c-8.66699 -200 -25.667 -358.667 -51 -476s-78.666 -211.333 -159.999 -282s-203.666 -106 -366.999 -106
c-82.667 0 -152.667 14.5 -210 43.5s-122.333 82.833 -195 161.5l61 57c63.333 -82 145.333 -123 246 -123c52.667 0 87.167 41.833 103.5 125.5s28.833 208.834 37.5 375.501s21.667 279.667 39 339c35.333 123.333 85 218.166 149 284.499s134.833 114 212.5 143
s189.167 59.833 334.5 92.5v45c-96.667 36 -160.5 104.667 -191.5 206s-51.833 239.166 -62.5 413.499s-28.5 301 -53.5 380s-80.833 118.5 -167.5 118.5c-48.667 0 -73 -10.667 -73 -32c0 -49.333 5.33301 -96 16 -140c19.333 -59.333 29 -114 29 -164
c0 -50.667 -23.5 -96 -70.5 -136s-105.5 -60 -175.5 -60c-83.333 0 -147.833 29.167 -193.5 87.5s-68.5 126.166 -68.5 203.5c0 100.667 36.5 184.5 109.5 251.5s162.167 100.5 267.5 100.5c131.333 0 228.833 -26.167 292.5 -78.5s105.334 -118.833 125.001 -199.5
s37.5 -199.667 53.5 -357l28 -219c11.333 -86 30 -154.667 56 -206s65.833 -91 119.5 -119s127.834 -42 222.501 -42h336v1098h-316v78h1090v-78h-316v-1098z" />
    <glyph glyph-name="afii10024" unicode="&#x416;" horiz-adv-x="4342" 
d="M2400 1507l335.996 0.00292969c94.667 0 169 14.167 223 42.5s93.833 67.833 119.5 118.5s42.5 102.334 50.5 155.001s19 142.667 33 270c14.667 130.667 27 225.834 37 285.5c10 59.667 30 117.667 60 174s74.667 99.666 134 130c59.333 30.333 139.333 45.5 240 45.5
c105.333 0 194.5 -33.5 267.5 -100.5s109.5 -150.833 109.5 -251.5c0 -78 -22.667 -146 -68 -204s-110 -87 -194 -87c-70 0 -128.5 20 -175.5 60s-70.5 85.333 -70.5 136c0 53.333 9.66699 108 29 164c10.667 44 16 90.667 16 140c0 21.333 -24.667 32 -74 32
c-117.333 0 -186.666 -135 -208 -405c-16.667 -186.667 -32.834 -323.5 -48.5 -410.5c-15.667 -87 -39.334 -152.667 -71 -197c-31.667 -44.333 -80.834 -79.5 -147.5 -105.5v-45c208 -46.667 363.833 -101.334 467.5 -164.001s180.167 -181.334 229.5 -356.001
c17.333 -60.667 30.333 -174.334 39 -341.001s21.167 -291.5 37.5 -374.5s50.833 -124.5 103.5 -124.5c100.667 0 182.667 41 246 123l61 -57c-71.333 -78 -136 -131.667 -194 -161s-128.333 -44 -211 -44c-164 0 -286.667 35.333 -368 106s-134.5 163.667 -159.5 279
s-41.833 275 -50.5 479c-14 404 -168.333 606 -463 606h-336v-1343h316v-82h-1090v82h316v1343h-336c-294.667 0 -449 -202 -463 -606c-8.66699 -200 -25.667 -358.667 -51 -476s-78.666 -211.333 -159.999 -282s-203.666 -106 -366.999 -106
c-82.667 0 -152.667 14.5 -210 43.5s-122.333 82.833 -195 161.5l61 57c63.333 -82 145.333 -123 246 -123c52.667 0 87.167 41.833 103.5 125.5s28.833 208.834 37.5 375.501s21.667 279.667 39 339c35.333 123.333 85 218.166 149 284.499s134.833 114 212.5 143
s189.167 59.833 334.5 92.5v45c-96.667 36 -160.5 104.667 -191.5 206s-51.833 239.166 -62.5 413.499s-28.5 301 -53.5 380s-80.833 118.5 -167.5 118.5c-48.667 0 -73 -10.667 -73 -32c0 -49.333 5.33301 -96 16 -140c19.333 -59.333 29 -114 29 -164
c0 -50.667 -23.5 -96 -70.5 -136s-105.5 -60 -175.5 -60c-83.333 0 -147.833 29.167 -193.5 87.5s-68.5 126.166 -68.5 203.5c0 100.667 36.5 184.5 109.5 251.5s162.167 100.5 267.5 100.5c131.333 0 228.833 -26.167 292.5 -78.5s105.334 -118.833 125.001 -199.5
s37.5 -199.667 53.5 -357l28 -219c11.333 -86 30 -154.667 56 -206s65.833 -91 119.5 -119s127.834 -42 222.501 -42h336v1098h-316v78h1090v-78h-316v-1098z" />
    <glyph glyph-name="afii10025" unicode="&#xc7;" horiz-adv-x="2396" 
d="M373 1851l-78 0.000976562l82 877h78c26 -54.667 72.333 -82 139 -82c72.667 0 137 9.66699 193 29s104.833 33 146.5 41s136.167 12 283.5 12c122.667 0 237.5 -14.167 344.5 -42.5s200.833 -69.833 281.5 -124.5s143.834 -122 189.501 -202s68.5 -170 68.5 -270
c0 -308 -243 -519.667 -729 -635v-24c146 -25.333 280.5 -72.166 403.5 -140.499s221 -154.333 294 -258s109.5 -216.834 109.5 -339.501c0 -220 -94.167 -397.833 -282.5 -533.5s-465.5 -203.5 -831.5 -203.5c-151.333 0 -294.333 24.167 -429 72.5
s-243.667 118.333 -327 210s-125 198.167 -125 319.5c0 106.667 25.333 190 76 250s117 90 199 90c78 0 141.833 -24 191.5 -72s74.5 -101.667 74.5 -161c0 -96.667 -42.333 -169.334 -127 -218.001c-16 -8 -33.833 -17.5 -53.5 -28.5s-36.167 -23.833 -49.5 -38.5
s-20 -33 -20 -55c0 -43.333 25.333 -87.666 76 -132.999s121.167 -83 211.5 -113s191.166 -45 302.499 -45c398.667 0 598 218.333 598 655c0 195.333 -31 345.666 -93 450.999s-132.5 175.333 -211.5 210s-152.167 52 -219.5 52l-357 -4v82l340 4
c306 2.66699 459 204.667 459 606c0 99.333 -8.33301 188 -25 266s-57.167 145.333 -121.5 202s-160.166 85 -287.499 85c-162 0 -295.333 -31.5 -400 -94.5s-186.334 -152.667 -245.001 -269s-101.667 -258.833 -129 -427.5z" />
    <glyph glyph-name="afii10025" unicode="&#x417;" horiz-adv-x="2396" 
d="M373 1851l-78 0.000976562l82 877h78c26 -54.667 72.333 -82 139 -82c72.667 0 137 9.66699 193 29s104.833 33 146.5 41s136.167 12 283.5 12c122.667 0 237.5 -14.167 344.5 -42.5s200.833 -69.833 281.5 -124.5s143.834 -122 189.501 -202s68.5 -170 68.5 -270
c0 -308 -243 -519.667 -729 -635v-24c146 -25.333 280.5 -72.166 403.5 -140.499s221 -154.333 294 -258s109.5 -216.834 109.5 -339.501c0 -220 -94.167 -397.833 -282.5 -533.5s-465.5 -203.5 -831.5 -203.5c-151.333 0 -294.333 24.167 -429 72.5
s-243.667 118.333 -327 210s-125 198.167 -125 319.5c0 106.667 25.333 190 76 250s117 90 199 90c78 0 141.833 -24 191.5 -72s74.5 -101.667 74.5 -161c0 -96.667 -42.333 -169.334 -127 -218.001c-16 -8 -33.833 -17.5 -53.5 -28.5s-36.167 -23.833 -49.5 -38.5
s-20 -33 -20 -55c0 -43.333 25.333 -87.666 76 -132.999s121.167 -83 211.5 -113s191.166 -45 302.499 -45c398.667 0 598 218.333 598 655c0 195.333 -31 345.666 -93 450.999s-132.5 175.333 -211.5 210s-152.167 52 -219.5 52l-357 -4v82l340 4
c306 2.66699 459 204.667 459 606c0 99.333 -8.33301 188 -25 266s-57.167 145.333 -121.5 202s-160.166 85 -287.499 85c-162 0 -295.333 -31.5 -400 -94.5s-186.334 -152.667 -245.001 -269s-101.667 -258.833 -129 -427.5z" />
    <glyph glyph-name="afii10026" unicode="&#xc8;" horiz-adv-x="3101" 
d="M946 475l1208 1860v266h-286v82h1061v-82h-316v-2519h316v-82h-1061v82h286v2105l-1208 -1880v-225h287v-82h-1061v82h315v2519h-315v82h1061v-82h-287v-2126z" />
    <glyph glyph-name="afii10026" unicode="&#x418;" horiz-adv-x="3101" 
d="M946 475l1208 1860v266h-286v82h1061v-82h-316v-2519h316v-82h-1061v82h286v2105l-1208 -1880v-225h287v-82h-1061v82h315v2519h-315v82h1061v-82h-287v-2126z" />
    <glyph glyph-name="afii10027" unicode="&#xc9;" horiz-adv-x="3101" 
d="M1548 2847c-136.667 0 -255.829 18.833 -357.496 56.5s-179.334 88.834 -233.001 153.5c-53.667 64.667 -80.5 136.667 -80.5 216c0 74 25 132 75 174s105.333 63 166 63c66.667 0 118.834 -22.5 156.501 -67.5s56.5 -98.833 56.5 -161.5c0 -40 -23 -81 -69 -123
c-41.333 -33.333 -62 -67.333 -62 -102c0 -80 108 -123.667 324 -131h53c97.333 2.66699 175.666 12.167 234.999 28.5s89 50.5 89 102.5c0 14 -3.16699 27.167 -9.5 39.5s-14.5 24.166 -24.5 35.5l-28 31c-12.667 10 -24.334 20 -35.001 30s-19.834 22.167 -27.501 36.5
s-11.5 31.833 -11.5 52.5c0 61.333 19.5 114.833 58.5 160.5s90.5 68.5 154.5 68.5c63.333 0 120.166 -21.333 170.499 -64s75.5 -100.334 75.5 -173c0 -132.667 -66.833 -236.834 -200.5 -312.5c-133.667 -75.667 -292.167 -113.5 -475.5 -113.5zM946.005 475l1208 1860
v266h-286v82h1061v-82h-316v-2519h316v-82h-1061v82h286v2105l-1208 -1880v-225h287v-82h-1061v82h315v2519h-315v82h1061v-82h-287v-2126z" />
    <glyph glyph-name="afii10027" unicode="&#x419;" horiz-adv-x="3101" 
d="M1548 2847c-136.667 0 -255.829 18.833 -357.496 56.5s-179.334 88.834 -233.001 153.5c-53.667 64.667 -80.5 136.667 -80.5 216c0 74 25 132 75 174s105.333 63 166 63c66.667 0 118.834 -22.5 156.501 -67.5s56.5 -98.833 56.5 -161.5c0 -40 -23 -81 -69 -123
c-41.333 -33.333 -62 -67.333 -62 -102c0 -80 108 -123.667 324 -131h53c97.333 2.66699 175.666 12.167 234.999 28.5s89 50.5 89 102.5c0 14 -3.16699 27.167 -9.5 39.5s-14.5 24.166 -24.5 35.5l-28 31c-12.667 10 -24.334 20 -35.001 30s-19.834 22.167 -27.501 36.5
s-11.5 31.833 -11.5 52.5c0 61.333 19.5 114.833 58.5 160.5s90.5 68.5 154.5 68.5c63.333 0 120.166 -21.333 170.499 -64s75.5 -100.334 75.5 -173c0 -132.667 -66.833 -236.834 -200.5 -312.5c-133.667 -75.667 -292.167 -113.5 -475.5 -113.5zM946.005 475l1208 1860
v266h-286v82h1061v-82h-316v-2519h316v-82h-1061v82h286v2105l-1208 -1880v-225h287v-82h-1061v82h315v2519h-315v82h1061v-82h-287v-2126z" />
    <glyph glyph-name="afii10028" unicode="&#xca;" horiz-adv-x="2830" 
d="M946 1511h392.999c116.667 0 203.167 19.667 259.5 59s93.833 95.5 112.5 168.5s36.667 191.167 54 354.5c17.333 169.333 37.666 295.666 60.999 379c23.333 83.333 66 146.833 128 190.5s156 65.5 282 65.5c104.667 0 194.334 -34.667 269.001 -104s112 -152 112 -248
c0 -74.667 -20.833 -141.834 -62.5 -201.5c-41.667 -59.667 -109.5 -89.5 -203.5 -89.5c-72 0 -130.333 20.667 -175 62s-67 86 -67 134c0 50 12.333 117 37 201c2.66699 24.667 4 59 4 103c0 21.333 -24.333 32 -73 32c-82 0 -136.5 -48 -163.5 -144s-46.5 -220 -58.5 -372
c-11.333 -142 -24 -250.5 -38 -325.5s-42.5 -138.5 -85.5 -190.5s-108.167 -87.333 -195.5 -106v-21l216 -38c65.333 -11.333 126.5 -27.166 183.5 -47.499s112.5 -53.833 166.5 -100.5s101.667 -110.334 143 -191.001c32 -62.667 53 -134.167 63 -214.5
s21.167 -198 33.5 -353s27.5 -263.667 45.5 -326s48.333 -93.5 91 -93.5c100.667 0 182.667 41 246 123l61 -57c-124.667 -136.667 -259.667 -205 -405 -205c-134 0 -240.333 25.5 -319 76.5s-135.667 118.833 -171 203.5s-56.666 162 -63.999 232s-15.333 190 -24 360
c-4 152 -34 290.5 -90 415.5s-180.333 187.5 -373 187.5h-393v-1348h316v-82h-1090v82h315v2519h-315v82h1090v-82h-316v-1090z" />
    <glyph glyph-name="afii10028" unicode="&#x41a;" horiz-adv-x="2830" 
d="M946 1511h392.999c116.667 0 203.167 19.667 259.5 59s93.833 95.5 112.5 168.5s36.667 191.167 54 354.5c17.333 169.333 37.666 295.666 60.999 379c23.333 83.333 66 146.833 128 190.5s156 65.5 282 65.5c104.667 0 194.334 -34.667 269.001 -104s112 -152 112 -248
c0 -74.667 -20.833 -141.834 -62.5 -201.5c-41.667 -59.667 -109.5 -89.5 -203.5 -89.5c-72 0 -130.333 20.667 -175 62s-67 86 -67 134c0 50 12.333 117 37 201c2.66699 24.667 4 59 4 103c0 21.333 -24.333 32 -73 32c-82 0 -136.5 -48 -163.5 -144s-46.5 -220 -58.5 -372
c-11.333 -142 -24 -250.5 -38 -325.5s-42.5 -138.5 -85.5 -190.5s-108.167 -87.333 -195.5 -106v-21l216 -38c65.333 -11.333 126.5 -27.166 183.5 -47.499s112.5 -53.833 166.5 -100.5s101.667 -110.334 143 -191.001c32 -62.667 53 -134.167 63 -214.5
s21.167 -198 33.5 -353s27.5 -263.667 45.5 -326s48.333 -93.5 91 -93.5c100.667 0 182.667 41 246 123l61 -57c-124.667 -136.667 -259.667 -205 -405 -205c-134 0 -240.333 25.5 -319 76.5s-135.667 118.833 -171 203.5s-56.666 162 -63.999 232s-15.333 190 -24 360
c-4 152 -34 290.5 -90 415.5s-180.333 187.5 -373 187.5h-393v-1348h316v-82h-1090v82h315v2519h-315v82h1090v-82h-316v-1090z" />
    <glyph glyph-name="afii10029" unicode="&#xcb;" horiz-adv-x="2839" 
d="M1892 2605h-458.003c-132.667 0 -229.5 -22.667 -290.5 -68s-101.667 -122.5 -122 -231.5s-32.333 -268.167 -36 -477.5s-8.5 -510 -14.5 -902c-8 -290.667 -20.167 -497.5 -36.5 -620.5s-52.166 -212.167 -107.499 -267.5s-146.666 -83 -273.999 -83
c-148 0 -265.5 34.667 -352.5 104s-130.5 164.333 -130.5 285c0 89.333 25.5 162.166 76.5 218.499s119.5 84.5 205.5 84.5c77.333 0 139 -21.5 185 -64.5s69 -92.5 69 -148.5c0 -69.333 -21.667 -134.666 -65 -195.999c-27.333 -40.667 -41 -84.667 -41 -132
c0 -13.333 7.66699 -25.5 23 -36.5s30.666 -16.5 45.999 -16.5c138 0 232 97.667 282 293s75 454 75 776c0 122.667 -2.83301 272 -8.5 448s-8.5 298.333 -8.5 367v250c0 120.667 -22.667 221.167 -68 301.5s-142.666 120.5 -291.999 120.5
c-41.333 0 -72.666 -1.33301 -93.999 -4v78h2211v-78h-315v-2523h315v-82h-1089v82h315v2523z" />
    <glyph glyph-name="afii10029" unicode="&#x41b;" horiz-adv-x="2839" 
d="M1892 2605h-458.003c-132.667 0 -229.5 -22.667 -290.5 -68s-101.667 -122.5 -122 -231.5s-32.333 -268.167 -36 -477.5s-8.5 -510 -14.5 -902c-8 -290.667 -20.167 -497.5 -36.5 -620.5s-52.166 -212.167 -107.499 -267.5s-146.666 -83 -273.999 -83
c-148 0 -265.5 34.667 -352.5 104s-130.5 164.333 -130.5 285c0 89.333 25.5 162.166 76.5 218.499s119.5 84.5 205.5 84.5c77.333 0 139 -21.5 185 -64.5s69 -92.5 69 -148.5c0 -69.333 -21.667 -134.666 -65 -195.999c-27.333 -40.667 -41 -84.667 -41 -132
c0 -13.333 7.66699 -25.5 23 -36.5s30.666 -16.5 45.999 -16.5c138 0 232 97.667 282 293s75 454 75 776c0 122.667 -2.83301 272 -8.5 448s-8.5 298.333 -8.5 367v250c0 120.667 -22.667 221.167 -68 301.5s-142.666 120.5 -291.999 120.5
c-41.333 0 -72.666 -1.33301 -93.999 -4v78h2211v-78h-315v-2523h315v-82h-1089v82h315v2523z" />
    <glyph glyph-name="afii10030" unicode="&#xcc;" horiz-adv-x="3469" 
d="M1757 606l765.998 2077h774v-78h-315v-2523h315v-82h-1089v82h315v2355l-909 -2486h-74l-950 2466v-1995c0 -83.333 4.83301 -145 14.5 -185s36.834 -73.167 81.501 -99.5s116.334 -44.833 215.001 -55.5v-82h-729v82c131.333 0 219.5 37.167 264.5 111.5
s67.5 151.833 67.5 232.5v1946c0 155.333 -83.333 233 -250 233h-74l4 78h774z" />
    <glyph glyph-name="afii10030" unicode="&#x41c;" horiz-adv-x="3469" 
d="M1757 606l765.998 2077h774v-78h-315v-2523h315v-82h-1089v82h315v2355l-909 -2486h-74l-950 2466v-1995c0 -83.333 4.83301 -145 14.5 -185s36.834 -73.167 81.501 -99.5s116.334 -44.833 215.001 -55.5v-82h-729v82c131.333 0 219.5 37.167 264.5 111.5
s67.5 151.833 67.5 232.5v1946c0 155.333 -83.333 233 -250 233h-74l4 78h774z" />
    <glyph glyph-name="afii10031" unicode="&#xcd;" horiz-adv-x="3101" 
d="M946 1393v-1311h287v-82h-1061v82h315v2523h-315v78h1061v-78h-287v-1130h1208v1130h-286v78h1061v-78h-316v-2523h316v-82h-1061v82h286v1311h-1208z" />
    <glyph glyph-name="afii10031" unicode="&#x41d;" horiz-adv-x="3101" 
d="M946 1393v-1311h287v-82h-1061v82h315v2523h-315v78h1061v-78h-287v-1130h1208v1130h-286v78h1061v-78h-316v-2523h316v-82h-1061v82h286v1311h-1208z" />
    <glyph glyph-name="afii10032" unicode="&#xce;" horiz-adv-x="2994" 
d="M205 1343c0 206.667 37.002 396.665 111.002 569.998s174.167 320.666 300.5 441.999s265.5 213.833 417.5 277.5s305.667 95.5 461 95.5c166.667 0 327.5 -33.833 482.5 -101.5s294 -164.167 417 -289.5s219.5 -273 289.5 -443s105 -353.667 105 -551
c0 -283.333 -64.833 -530.166 -194.5 -740.499s-294.834 -370.833 -495.5 -481.5c-200.667 -110.667 -402 -166 -604 -166c-128 0 -266.833 28.333 -416.5 85s-291.334 142.834 -425.001 258.501s-241.834 261.334 -324.501 437.001s-124 378.167 -124 607.5zM1495 2650
c-93.333 0 -184.333 -19.002 -273 -57.002s-170.834 -104.5 -246.501 -199.5s-137 -230 -184 -405s-70.5 -390.167 -70.5 -645.5c0 -488.667 76.667 -829.167 230 -1021.5s334.666 -288.5 543.999 -288.5c92.667 0 183.5 18.833 272.5 56.5s172 104.834 249 201.501
s139 231.834 186 405.501s70.5 389.167 70.5 646.5c0 352 -42.667 625 -128 819s-185.666 323.833 -300.999 389.5s-231.666 98.5 -348.999 98.5z" />
    <glyph glyph-name="afii10032" unicode="&#x41e;" horiz-adv-x="2994" 
d="M205 1343c0 206.667 37.002 396.665 111.002 569.998s174.167 320.666 300.5 441.999s265.5 213.833 417.5 277.5s305.667 95.5 461 95.5c166.667 0 327.5 -33.833 482.5 -101.5s294 -164.167 417 -289.5s219.5 -273 289.5 -443s105 -353.667 105 -551
c0 -283.333 -64.833 -530.166 -194.5 -740.499s-294.834 -370.833 -495.5 -481.5c-200.667 -110.667 -402 -166 -604 -166c-128 0 -266.833 28.333 -416.5 85s-291.334 142.834 -425.001 258.501s-241.834 261.334 -324.501 437.001s-124 378.167 -124 607.5zM1495 2650
c-93.333 0 -184.333 -19.002 -273 -57.002s-170.834 -104.5 -246.501 -199.5s-137 -230 -184 -405s-70.5 -390.167 -70.5 -645.5c0 -488.667 76.667 -829.167 230 -1021.5s334.666 -288.5 543.999 -288.5c92.667 0 183.5 18.833 272.5 56.5s172 104.834 249 201.501
s139 231.834 186 405.501s70.5 389.167 70.5 646.5c0 352 -42.667 625 -128 819s-185.666 323.833 -300.999 389.5s-231.666 98.5 -348.999 98.5z" />
    <glyph glyph-name="afii10033" unicode="&#xcf;" horiz-adv-x="3101" 
d="M946 2605v-2523h287v-82h-1061v82h315v2523h-315v78h2757v-78h-316v-2523h316v-82h-1061v82h286v2523h-1208z" />
    <glyph glyph-name="afii10033" unicode="&#x41f;" horiz-adv-x="3101" 
d="M946 2605v-2523h287v-82h-1061v82h315v2523h-315v78h2757v-78h-316v-2523h316v-82h-1061v82h286v2523h-1208z" />
    <glyph glyph-name="afii10034" unicode="&#xd0;" horiz-adv-x="2572" 
d="M487 82l0.000976562 2523h-315v78h1180c142.667 0 292.167 -19.667 448.5 -59s295.333 -119.666 416.999 -241c121.667 -121.333 182.5 -293 182.5 -515c0 -234 -79.333 -426.333 -238 -577s-430 -226 -814 -226h-402v-983h316v-82h-1090v82h315zM946.001 1143h283
c256 0 426.833 56.167 512.5 168.5s133.167 244.5 142.5 396.5v299c0 398.667 -218.333 598 -655 598h-283v-1462z" />
    <glyph glyph-name="afii10034" unicode="&#x420;" horiz-adv-x="2572" 
d="M487 82l0.000976562 2523h-315v78h1180c142.667 0 292.167 -19.667 448.5 -59s295.333 -119.666 416.999 -241c121.667 -121.333 182.5 -293 182.5 -515c0 -234 -79.333 -426.333 -238 -577s-430 -226 -814 -226h-402v-983h316v-82h-1090v82h315zM946.001 1143h283
c256 0 426.833 56.167 512.5 168.5s133.167 244.5 142.5 396.5v299c0 398.667 -218.333 598 -655 598h-283v-1462z" />
    <glyph glyph-name="afii10035" unicode="&#xd1;" horiz-adv-x="2417" 
d="M2204 893h98.002l-33 -893h-106c-10.667 109.333 -54.334 164 -131 164c-42 0 -99.333 -22 -172 -66c-165.333 -95.333 -339 -143 -521 -143c-197.333 0 -379 51.333 -545 154s-299.667 246.167 -401 430.5s-160 393.5 -176 627.5v263c16 240.667 76.5 460 181.5 658
s246.167 354.167 423.5 468.5s377 171.5 599 171.5c79.333 0 145.666 -7.5 198.999 -22.5s117.166 -36.167 191.499 -63.5s125.833 -41 154.5 -41c82 0 136.667 42.333 164 127h98l8 -873h-90c-19.333 170 -53.666 312.833 -103 428.5
c-49.333 115.667 -122.5 205.667 -219.5 270s-222.833 96.5 -377.5 96.5c-107.333 0 -214.666 -28.5 -321.999 -85.5s-199.333 -163.5 -276 -319.5s-115 -369 -115 -639v-664c0 -344 76.167 -581.5 228.5 -712.5s311.166 -196.5 476.499 -196.5
c172.667 0 329.5 66.5 470.5 199.5s239.5 353.167 295.5 660.5z" />
    <glyph glyph-name="afii10035" unicode="&#x421;" horiz-adv-x="2417" 
d="M2204 893h98.002l-33 -893h-106c-10.667 109.333 -54.334 164 -131 164c-42 0 -99.333 -22 -172 -66c-165.333 -95.333 -339 -143 -521 -143c-197.333 0 -379 51.333 -545 154s-299.667 246.167 -401 430.5s-160 393.5 -176 627.5v263c16 240.667 76.5 460 181.5 658
s246.167 354.167 423.5 468.5s377 171.5 599 171.5c79.333 0 145.666 -7.5 198.999 -22.5s117.166 -36.167 191.499 -63.5s125.833 -41 154.5 -41c82 0 136.667 42.333 164 127h98l8 -873h-90c-19.333 170 -53.666 312.833 -103 428.5
c-49.333 115.667 -122.5 205.667 -219.5 270s-222.833 96.5 -377.5 96.5c-107.333 0 -214.666 -28.5 -321.999 -85.5s-199.333 -163.5 -276 -319.5s-115 -369 -115 -639v-664c0 -344 76.167 -581.5 228.5 -712.5s311.166 -196.5 476.499 -196.5
c172.667 0 329.5 66.5 470.5 199.5s239.5 353.167 295.5 660.5z" />
    <glyph glyph-name="afii10036" unicode="&#xd2;" horiz-adv-x="2597" 
d="M1069 82v2523c-200.667 0 -360.5 -26.5 -479.5 -79.5s-207.667 -134.667 -266 -245s-97.833 -257.5 -118.5 -441.5h-115l21 844h2375l21 -844h-115c-16 156.667 -43.333 284.167 -82 382.501c-38.667 98.333 -91.334 175.166 -158 230.5
c-66.667 55.333 -149.667 94.666 -249 118c-99.333 23.333 -224.333 35 -375 35v-2523h315v-82h-1089v82h315z" />
    <glyph glyph-name="afii10036" unicode="&#x422;" horiz-adv-x="2597" 
d="M1069 82v2523c-200.667 0 -360.5 -26.5 -479.5 -79.5s-207.667 -134.667 -266 -245s-97.833 -257.5 -118.5 -441.5h-115l21 844h2375l21 -844h-115c-16 156.667 -43.333 284.167 -82 382.501c-38.667 98.333 -91.334 175.166 -158 230.5
c-66.667 55.333 -149.667 94.666 -249 118c-99.333 23.333 -224.333 35 -375 35v-2523h315v-82h-1089v82h315z" />
    <glyph glyph-name="afii10037" unicode="&#xd3;" horiz-adv-x="2548" 
d="M1589 901l504 1286c38 100 57 182 57 246c0 51.333 -15.5 92.833 -46.5 124.5s-76.833 47.5 -137.5 47.5h-57v78h696v-78c-172.667 0 -294 -90 -364 -270l-578 -1495c-10 -25.333 -56.333 -122.333 -139 -291c-102.667 -223.333 -202.834 -378.166 -300.501 -464.499
s-199.5 -129.5 -305.5 -129.5c-100.667 0 -194.334 21.667 -281.001 65s-155.167 101.5 -205.5 174.5s-75.5 151.5 -75.5 235.5c0 90 24.167 166.5 72.5 229.5s114.5 94.5 198.5 94.5c82.667 0 148.334 -23.667 197.001 -71s73 -101.666 73 -162.999
c0 -33.333 -9.33301 -66.666 -28 -99.999s-35.334 -57.333 -50.001 -72c-8.66699 -9.33301 -28 -23.166 -58 -41.499s-53 -36 -69 -53s-24 -38.833 -24 -65.5c0 -40.667 25.833 -76.667 77.5 -108s119.834 -47 204.501 -47c82.667 0 150.334 29.333 203.001 88
s112 145.334 178 260.001l-1048 2224h-283v78h1126v-78h-344z" />
    <glyph glyph-name="afii10037" unicode="&#x423;" horiz-adv-x="2548" 
d="M1589 901l504 1286c38 100 57 182 57 246c0 51.333 -15.5 92.833 -46.5 124.5s-76.833 47.5 -137.5 47.5h-57v78h696v-78c-172.667 0 -294 -90 -364 -270l-578 -1495c-10 -25.333 -56.333 -122.333 -139 -291c-102.667 -223.333 -202.834 -378.166 -300.501 -464.499
s-199.5 -129.5 -305.5 -129.5c-100.667 0 -194.334 21.667 -281.001 65s-155.167 101.5 -205.5 174.5s-75.5 151.5 -75.5 235.5c0 90 24.167 166.5 72.5 229.5s114.5 94.5 198.5 94.5c82.667 0 148.334 -23.667 197.001 -71s73 -101.666 73 -162.999
c0 -33.333 -9.33301 -66.666 -28 -99.999s-35.334 -57.333 -50.001 -72c-8.66699 -9.33301 -28 -23.166 -58 -41.499s-53 -36 -69 -53s-24 -38.833 -24 -65.5c0 -40.667 25.833 -76.667 77.5 -108s119.834 -47 204.501 -47c82.667 0 150.334 29.333 203.001 88
s112 145.334 178 260.001l-1048 2224h-283v78h1126v-78h-344z" />
    <glyph glyph-name="afii10038" unicode="&#xd4;" horiz-adv-x="3629" 
d="M2044 2712v-234c418 -9.33301 758 -83.666 1020 -223c262 -139.333 393 -383 393 -731c0 -302 -104.833 -544.5 -314.5 -727.5s-575.834 -276.5 -1098.5 -280.5v-434h315v-82h-1089v82h315v434c-247.333 0.666992 -459.666 23.167 -636.999 67.5
s-323.5 109.333 -438.5 195s-200 190.667 -255 315s-82.5 267.833 -82.5 430.5c0 176 36 325.167 108 447.5s172.5 220 301.5 293s277.167 125.833 444.5 158.5s353.666 51 558.999 55v234h-315v81h1089v-81h-315zM1585 598v1806c-598 0 -897 -263.333 -897 -790v-266
c0 -126 18.667 -242.333 56 -349s122.333 -200.167 255 -280.5s328 -120.5 586 -120.5zM2044 2404v-1806c295.333 0 518.666 58.667 670 176c151.333 117.333 227 308.666 227 573.999v266c0 526.667 -299 790 -897 790z" />
    <glyph glyph-name="afii10038" unicode="&#x424;" horiz-adv-x="3629" 
d="M2044 2712v-234c418 -9.33301 758 -83.666 1020 -223c262 -139.333 393 -383 393 -731c0 -302 -104.833 -544.5 -314.5 -727.5s-575.834 -276.5 -1098.5 -280.5v-434h315v-82h-1089v82h315v434c-247.333 0.666992 -459.666 23.167 -636.999 67.5
s-323.5 109.333 -438.5 195s-200 190.667 -255 315s-82.5 267.833 -82.5 430.5c0 176 36 325.167 108 447.5s172.5 220 301.5 293s277.167 125.833 444.5 158.5s353.666 51 558.999 55v234h-315v81h1089v-81h-315zM1585 598v1806c-598 0 -897 -263.333 -897 -790v-266
c0 -126 18.667 -242.333 56 -349s122.333 -200.167 255 -280.5s328 -120.5 586 -120.5zM2044 2404v-1806c295.333 0 518.666 58.667 670 176c151.333 117.333 227 308.666 227 573.999v266c0 526.667 -299 790 -897 790z" />
    <glyph glyph-name="afii10039" unicode="&#xd5;" horiz-adv-x="2867" 
d="M1491 1675l410 627c24 39.333 36 92.666 36 160c0 36 -21.5 68.833 -64.5 98.5s-100.5 44.5 -172.5 44.5h-58v78h898v-78c-97.333 -7.33301 -175.666 -22 -235 -44c-59.333 -22 -113.5 -56.5 -162.5 -103.5s-102.5 -115.167 -160.5 -204.5l-430 -664l988 -1507h237v-82
h-1089v82h319l-762 1147l-475 -733c-38 -56 -57 -115 -57 -177c0 -145.333 106.333 -224.333 319 -237v-82h-942v82c130 30 233.833 70.167 311.5 120.5s148.5 124.833 212.5 223.5l582 889l-868 1290h-238v78h1049v-78h-267z" />
    <glyph glyph-name="afii10039" unicode="&#x425;" horiz-adv-x="2867" 
d="M1491 1675l410 627c24 39.333 36 92.666 36 160c0 36 -21.5 68.833 -64.5 98.5s-100.5 44.5 -172.5 44.5h-58v78h898v-78c-97.333 -7.33301 -175.666 -22 -235 -44c-59.333 -22 -113.5 -56.5 -162.5 -103.5s-102.5 -115.167 -160.5 -204.5l-430 -664l988 -1507h237v-82
h-1089v82h319l-762 1147l-475 -733c-38 -56 -57 -115 -57 -177c0 -145.333 106.333 -224.333 319 -237v-82h-942v82c130 30 233.833 70.167 311.5 120.5s148.5 124.833 212.5 223.5l582 889l-868 1290h-238v78h1049v-78h-267z" />
    <glyph glyph-name="afii10040" unicode="&#xd6;" horiz-adv-x="3084" 
d="M2138 82v2523h-287v78h1057v-78h-311v-2523h299l98 -827h-98c-29.333 180.667 -79.333 325.167 -150 433.5s-168.834 187.333 -294.5 237c-125.667 49.667 -286.167 74.5 -481.5 74.5h-1798v82h315v2523h-315v78h1061v-78h-287v-2523h1192z" />
    <glyph glyph-name="afii10040" unicode="&#x426;" horiz-adv-x="3084" 
d="M2138 82v2523h-287v78h1057v-78h-311v-2523h299l98 -827h-98c-29.333 180.667 -79.333 325.167 -150 433.5s-168.834 187.333 -294.5 237c-125.667 49.667 -286.167 74.5 -481.5 74.5h-1798v82h315v2523h-315v78h1061v-78h-287v-2523h1192z" />
    <glyph glyph-name="afii10041" unicode="&#xd7;" horiz-adv-x="2765" 
d="M1819 1434l-0.000976562 1171h-287v78h1061v-78h-316v-2523h316v-82h-1090v82h316v1274c-234 -87.333 -460.667 -131 -680 -131c-194 0 -370.167 40.167 -528.5 120.5s-237.5 228.5 -237.5 444.5v815h-316v78h1061v-78h-287v-807c0 -121.333 27.667 -228.166 83 -320.499
s183.333 -138.5 384 -138.5c176.667 0 350.334 31.667 521.001 95z" />
    <glyph glyph-name="afii10041" unicode="&#x427;" horiz-adv-x="2765" 
d="M1819 1434l-0.000976562 1171h-287v78h1061v-78h-316v-2523h316v-82h-1090v82h316v1274c-234 -87.333 -460.667 -131 -680 -131c-194 0 -370.167 40.167 -528.5 120.5s-237.5 228.5 -237.5 444.5v815h-316v78h1061v-78h-287v-807c0 -121.333 27.667 -228.166 83 -320.499
s183.333 -138.5 384 -138.5c176.667 0 350.334 31.667 521.001 95z" />
    <glyph glyph-name="afii10042" unicode="&#xd8;" horiz-adv-x="4399" 
d="M487 2605h-315v78h1061v-78h-287v-2523h1024v2523h-287v78h1033v-78h-287v-2523h1024v2523h-287v78h1061v-78h-315v-2523h315v-82h-4055v82h315v2523z" />
    <glyph glyph-name="afii10042" unicode="&#x428;" horiz-adv-x="4399" 
d="M487 2605h-315v78h1061v-78h-287v-2523h1024v2523h-287v78h1033v-78h-287v-2523h1024v2523h-287v78h1061v-78h-315v-2523h315v-82h-4055v82h315v2523z" />
    <glyph glyph-name="afii10043" unicode="&#xd9;" horiz-adv-x="4399" 
d="M3453 82v2523h-287v78h1061v-78h-315v-2523h299l98 -827h-98c-30.666 180.667 -80.666 325.334 -150 434.001c-69.333 108.667 -166.333 187.667 -291 237s-286.334 74 -485 74h-3113v82h315v2523h-315v78h1061v-78h-287v-2523h1024v2523h-287v78h1033v-78h-287v-2523
h1024z" />
    <glyph glyph-name="afii10043" unicode="&#x429;" horiz-adv-x="4399" 
d="M3453 82v2523h-287v78h1061v-78h-315v-2523h299l98 -827h-98c-30.666 180.667 -80.666 325.334 -150 434.001c-69.333 108.667 -166.333 187.667 -291 237s-286.334 74 -485 74h-3113v82h315v2523h-315v78h1061v-78h-287v-2523h1024v2523h-287v78h1033v-78h-287v-2523
h1024z" />
    <glyph glyph-name="afii10044" unicode="&#xda;" horiz-adv-x="3019" 
d="M1454 1483h355.998c729.333 0 1094 -236.333 1094 -709c0 -224 -53.333 -393.167 -160 -507.5s-234.667 -187.333 -384 -219s-317.666 -47.5 -504.999 -47.5h-1175v82h315v2523c-12.667 0 -30 0.666992 -52 2s-38.667 2 -50 2c-126.667 0 -231.167 -14.333 -313.5 -43
s-150.166 -73.667 -203.499 -135s-96.833 -142.5 -130.5 -243.5s-63.5 -229.5 -89.5 -385.5h-99l62 881h1650v-78h-315v-1122zM1454 82h496c118 0 219.333 32 304 96s128 178 130 342l4 316c0 120.667 -13.5 221.5 -40.5 302.5s-82.167 145.667 -165.5 194
s-204.333 72.5 -363 72.5h-365v-1323z" />
    <glyph glyph-name="afii10044" unicode="&#x42a;" horiz-adv-x="3019" 
d="M1454 1483h355.998c729.333 0 1094 -236.333 1094 -709c0 -224 -53.333 -393.167 -160 -507.5s-234.667 -187.333 -384 -219s-317.666 -47.5 -504.999 -47.5h-1175v82h315v2523c-12.667 0 -30 0.666992 -52 2s-38.667 2 -50 2c-126.667 0 -231.167 -14.333 -313.5 -43
s-150.166 -73.667 -203.499 -135s-96.833 -142.5 -130.5 -243.5s-63.5 -229.5 -89.5 -385.5h-99l62 881h1650v-78h-315v-1122zM1454 82h496c118 0 219.333 32 304 96s128 178 130 342l4 316c0 120.667 -13.5 221.5 -40.5 302.5s-82.167 145.667 -165.5 194
s-204.333 72.5 -363 72.5h-365v-1323z" />
    <glyph glyph-name="afii10045" unicode="&#xdb;" horiz-adv-x="3834" 
d="M946 1483l352.002 0.000976562c729.333 0 1094 -236.333 1094 -709c0 -223.333 -53.833 -392.333 -161.5 -507s-236.334 -187.834 -386.001 -219.501s-316.834 -47.5 -501.501 -47.5h-1171v82h315v2523h-315v82l1090 -4v-78h-316v-1122zM946.002 82.001
l492.001 0.000976562c171.333 0 287.166 45.667 347.499 137s90.5 191.666 90.5 300.999v316c0 120.667 -13.5 221.5 -40.5 302.5s-81.667 145.667 -164 194s-202.5 72.5 -360.5 72.5h-365v-1323zM2916 82.002v2523h-315v78h1061v-78h-287v-2523h287v-82h-1061v82h315z" />
    <glyph glyph-name="afii10045" unicode="&#x42b;" horiz-adv-x="3834" 
d="M946 1483l352.002 0.000976562c729.333 0 1094 -236.333 1094 -709c0 -223.333 -53.833 -392.333 -161.5 -507s-236.334 -187.834 -386.001 -219.501s-316.834 -47.5 -501.501 -47.5h-1171v82h315v2523h-315v82l1090 -4v-78h-316v-1122zM946.002 82.001
l492.001 0.000976562c171.333 0 287.166 45.667 347.499 137s90.5 191.666 90.5 300.999v316c0 120.667 -13.5 221.5 -40.5 302.5s-81.667 145.667 -164 194s-202.5 72.5 -360.5 72.5h-365v-1323zM2916 82.002v2523h-315v78h1061v-78h-287v-2523h287v-82h-1061v82h315z" />
    <glyph glyph-name="afii10046" unicode="&#xdc;" horiz-adv-x="2511" 
d="M946 1483h357.001c728.667 0 1093 -236.333 1093 -709c0 -224 -53.167 -393.167 -159.5 -507.5s-234.333 -187.333 -384 -219s-317.834 -47.5 -504.501 -47.5h-1176v82h315v2523h-315v78h1090v-78h-316v-1122zM946.001 82l496 -0.000976562
c179.333 0 296.5 47.833 351.5 143.5s82.5 193.834 82.5 294.501l4 316c0 120.667 -13.5 221.5 -40.5 302.5s-82.333 145.667 -166 194s-204.5 72.5 -362.5 72.5h-365v-1323z" />
    <glyph glyph-name="afii10046" unicode="&#x42c;" horiz-adv-x="2511" 
d="M946 1483h357.001c728.667 0 1093 -236.333 1093 -709c0 -224 -53.167 -393.167 -159.5 -507.5s-234.333 -187.333 -384 -219s-317.834 -47.5 -504.501 -47.5h-1176v82h315v2523h-315v78h1090v-78h-316v-1122zM946.001 82l496 -0.000976562
c179.333 0 296.5 47.833 351.5 143.5s82.5 193.834 82.5 294.501l4 316c0 120.667 -13.5 221.5 -40.5 302.5s-82.333 145.667 -166 194s-204.5 72.5 -362.5 72.5h-365v-1323z" />
    <glyph glyph-name="afii10047" unicode="&#xdd;" horiz-adv-x="2400" 
d="M299 1839l-111 -0.000976562l107 889h98c8 -74 46.333 -111 115 -111c54 0 122.333 15 205 45c72.667 24 131.5 41 176.5 51s107.5 15 187.5 15c195.333 0 366.333 -38.5 513 -115.5s267.167 -181.167 361.5 -312.5s164 -276.833 209 -436.5s67.5 -324.834 67.5 -495.501
c0 -204 -28.5 -393.167 -85.5 -567.5s-139.667 -324.666 -248 -450.999s-238.833 -223.666 -391.5 -291.999s-322 -102.5 -508 -102.5c-177.333 0 -332.833 29.667 -466.5 89s-236 135.5 -307 228.5s-106.5 187.833 -106.5 284.5c0 95.333 27 171.666 81 228.999
s114.333 86 181 86c74 0 137.5 -22.333 190.5 -67s79.5 -104 79.5 -178c0 -49.333 -8.66699 -88.833 -26 -118.5s-43.833 -57 -79.5 -82s-57.834 -41.5 -66.501 -49.5c-24.667 -22 -37 -57.667 -37 -107c0 -66 57 -122 171 -168s232 -69 354 -69
c213.333 0 391.5 76.667 534.5 230s214.5 422 214.5 806v315h-1081v78h1081v353c0 136 -19.833 266.5 -59.5 391.5s-108.667 229.5 -207 313.5s-229.166 126 -392.499 126s-298.5 -44 -405.5 -132s-186.833 -193.167 -239.5 -315.5s-89 -242.166 -109 -359.499z" />
    <glyph glyph-name="afii10047" unicode="&#x42d;" horiz-adv-x="2400" 
d="M299 1839l-111 -0.000976562l107 889h98c8 -74 46.333 -111 115 -111c54 0 122.333 15 205 45c72.667 24 131.5 41 176.5 51s107.5 15 187.5 15c195.333 0 366.333 -38.5 513 -115.5s267.167 -181.167 361.5 -312.5s164 -276.833 209 -436.5s67.5 -324.834 67.5 -495.501
c0 -204 -28.5 -393.167 -85.5 -567.5s-139.667 -324.666 -248 -450.999s-238.833 -223.666 -391.5 -291.999s-322 -102.5 -508 -102.5c-177.333 0 -332.833 29.667 -466.5 89s-236 135.5 -307 228.5s-106.5 187.833 -106.5 284.5c0 95.333 27 171.666 81 228.999
s114.333 86 181 86c74 0 137.5 -22.333 190.5 -67s79.5 -104 79.5 -178c0 -49.333 -8.66699 -88.833 -26 -118.5s-43.833 -57 -79.5 -82s-57.834 -41.5 -66.501 -49.5c-24.667 -22 -37 -57.667 -37 -107c0 -66 57 -122 171 -168s232 -69 354 -69
c213.333 0 391.5 76.667 534.5 230s214.5 422 214.5 806v315h-1081v78h1081v353c0 136 -19.833 266.5 -59.5 391.5s-108.667 229.5 -207 313.5s-229.166 126 -392.499 126s-298.5 -44 -405.5 -132s-186.833 -193.167 -239.5 -315.5s-89 -242.166 -109 -359.499z" />
    <glyph glyph-name="afii10048" unicode="&#xde;" horiz-adv-x="4293" 
d="M487 82l0.000976562 2523h-315v78h1090v-78h-316v-1163h557c21.333 185.333 68.333 357.166 141 515.499s166.667 295.166 282 410.5c115.333 115.333 246.166 204.166 392.499 266.5c146.333 62.333 303.166 93.5 470.499 93.5c166.667 0 327 -31.833 481 -95.5
s291.833 -156.167 413.5 -277.5s217.5 -267.666 287.5 -438.999s105 -362.333 105 -573c0 -182 -29.5 -356.667 -88.5 -524s-144.5 -315.833 -256.5 -445.5s-248.5 -231.834 -409.5 -306.501s-338.5 -112 -532.5 -112c-248 0 -469.167 65.5 -663.5 196.5
s-345.166 304.167 -452.499 519.5s-164 445 -170 689h-557v-1278h316v-82h-1090v82h315zM2019 1343c0 -368 45.834 -649.502 137.501 -844.502s194.167 -321.333 307.5 -379s221.666 -86.5 324.999 -86.5c130.667 0 253.5 37.333 368.5 112s210.667 209.334 287 404.001
s114.5 459.334 114.5 794.001c0 333.333 -38.167 597 -114.5 791s-172 328.5 -287 403.5s-237.833 112.5 -368.5 112.5c-98 0 -203.833 -28 -317.5 -84s-217.5 -181 -311.5 -375s-141 -476.667 -141 -848z" />
    <glyph glyph-name="afii10048" unicode="&#x42e;" horiz-adv-x="4293" 
d="M487 82l0.000976562 2523h-315v78h1090v-78h-316v-1163h557c21.333 185.333 68.333 357.166 141 515.499s166.667 295.166 282 410.5c115.333 115.333 246.166 204.166 392.499 266.5c146.333 62.333 303.166 93.5 470.499 93.5c166.667 0 327 -31.833 481 -95.5
s291.833 -156.167 413.5 -277.5s217.5 -267.666 287.5 -438.999s105 -362.333 105 -573c0 -182 -29.5 -356.667 -88.5 -524s-144.5 -315.833 -256.5 -445.5s-248.5 -231.834 -409.5 -306.501s-338.5 -112 -532.5 -112c-248 0 -469.167 65.5 -663.5 196.5
s-345.166 304.167 -452.499 519.5s-164 445 -170 689h-557v-1278h316v-82h-1090v82h315zM2019 1343c0 -368 45.834 -649.502 137.501 -844.502s194.167 -321.333 307.5 -379s221.666 -86.5 324.999 -86.5c130.667 0 253.5 37.333 368.5 112s210.667 209.334 287 404.001
s114.5 459.334 114.5 794.001c0 333.333 -38.167 597 -114.5 791s-172 328.5 -287 403.5s-237.833 112.5 -368.5 112.5c-98 0 -203.833 -28 -317.5 -84s-217.5 -181 -311.5 -375s-141 -476.667 -141 -848z" />
    <glyph glyph-name="afii10049" unicode="&#xdf;" horiz-adv-x="2851" 
d="M1905 82l-0.00292969 1294h-385c-102 0 -179.5 -4.83301 -232.5 -14.5s-100.333 -35.5 -142 -77.5s-76.5 -110.833 -104.5 -206.5s-51.333 -229.5 -70 -401.5c-16 -151.333 -28.833 -258.166 -38.5 -320.499s-29.5 -125.5 -59.5 -189.5s-77.667 -115.167 -143 -153.5
s-153 -57.5 -263 -57.5c-80.667 0 -160.334 18.667 -239.001 56s-143.667 92.333 -195 165l65 66c26.667 -30 62.334 -60.833 107.001 -92.5s81.334 -47.5 110.001 -47.5c48.667 0 84.334 46.667 107.001 140s42.834 224 60.501 392s31.5 269.333 41.5 304
c40 144.667 130.5 254 271.5 328s286.833 120.333 437.5 139v20c-116 10 -232.833 36.167 -350.5 78.5s-219 111 -304 206s-127.5 220.167 -127.5 375.5c0 166.667 51.5 293.834 154.5 381.5c103 87.667 234.5 145.667 394.5 174s349.667 42.5 569 42.5h1110v-78h-316v-2523
h316v-82h-1090v82h316zM1905 1458l0.00292969 1147h-312c-186.667 0 -325.834 -25.333 -417.501 -76s-149.334 -111.5 -173.001 -182.5s-35.5 -156.833 -35.5 -257.5c0 -184 41.667 -335.167 125 -453.5s258.666 -177.5 525.999 -177.5h287z" />
    <glyph glyph-name="afii10049" unicode="&#x42f;" horiz-adv-x="2851" 
d="M1905 82l-0.00292969 1294h-385c-102 0 -179.5 -4.83301 -232.5 -14.5s-100.333 -35.5 -142 -77.5s-76.5 -110.833 -104.5 -206.5s-51.333 -229.5 -70 -401.5c-16 -151.333 -28.833 -258.166 -38.5 -320.499s-29.5 -125.5 -59.5 -189.5s-77.667 -115.167 -143 -153.5
s-153 -57.5 -263 -57.5c-80.667 0 -160.334 18.667 -239.001 56s-143.667 92.333 -195 165l65 66c26.667 -30 62.334 -60.833 107.001 -92.5s81.334 -47.5 110.001 -47.5c48.667 0 84.334 46.667 107.001 140s42.834 224 60.501 392s31.5 269.333 41.5 304
c40 144.667 130.5 254 271.5 328s286.833 120.333 437.5 139v20c-116 10 -232.833 36.167 -350.5 78.5s-219 111 -304 206s-127.5 220.167 -127.5 375.5c0 166.667 51.5 293.834 154.5 381.5c103 87.667 234.5 145.667 394.5 174s349.667 42.5 569 42.5h1110v-78h-316v-2523
h316v-82h-1090v82h316zM1905 1458l0.00292969 1147h-312c-186.667 0 -325.834 -25.333 -417.501 -76s-149.334 -111.5 -173.001 -182.5s-35.5 -156.833 -35.5 -257.5c0 -184 41.667 -335.167 125 -453.5s258.666 -177.5 525.999 -177.5h287z" />
    <glyph glyph-name="afii10065" unicode="&#xe0;" horiz-adv-x="1925" 
d="M1868 217l57 -53.001c-98 -139.333 -234.333 -209 -409 -209c-175.333 0 -288.666 88.667 -339.999 266c-122 -106.667 -229.167 -177.667 -321.5 -213s-184.5 -53 -276.5 -53c-150 0 -266.833 42.167 -350.5 126.5s-125.5 192.5 -125.5 324.5
c0 127.333 38.833 234.666 116.5 321.999s187.167 152.333 328.5 195s305.666 64 492.999 64c60 0 105.333 -1.33301 136 -4v459c0 81.333 -16.167 147.333 -48.5 198s-107.833 76 -226.5 76c-70.667 0 -132 -8.16699 -184 -24.5s-78 -38.166 -78 -65.499
c0 -36 13.667 -82.333 41 -139c35.333 -65.333 53 -110.333 53 -135c0 -70 -22.167 -129.833 -66.5 -179.5s-105.5 -74.5 -183.5 -74.5c-76 0 -137.333 25.5 -184 76.5s-70 119.5 -70 205.5c0 78.667 31.5 149.334 94.5 212.001s146.667 111.334 251 146.001
s214.5 52 330.5 52c196 0 343.833 -25.333 443.5 -76s162.667 -111.334 189 -182.001s39.5 -152.667 39.5 -246v-1065c0 -90 31.333 -135 94 -135c32 0 68.333 14.333 109 43s70 58 88 88zM1176 347.999l0.000976562 570c-151.333 0 -270.333 -12.5 -357 -37.5
s-151.334 -74 -194.001 -147s-64 -180.833 -64 -323.5c0 -188.667 94.333 -283 283 -283c36 0 80.5 12.333 133.5 37s99.333 54.5 139 89.5s59.5 66.5 59.5 94.5z" />
    <glyph glyph-name="afii10065" unicode="&#x430;" horiz-adv-x="1925" 
d="M1868 217l57 -53.001c-98 -139.333 -234.333 -209 -409 -209c-175.333 0 -288.666 88.667 -339.999 266c-122 -106.667 -229.167 -177.667 -321.5 -213s-184.5 -53 -276.5 -53c-150 0 -266.833 42.167 -350.5 126.5s-125.5 192.5 -125.5 324.5
c0 127.333 38.833 234.666 116.5 321.999s187.167 152.333 328.5 195s305.666 64 492.999 64c60 0 105.333 -1.33301 136 -4v459c0 81.333 -16.167 147.333 -48.5 198s-107.833 76 -226.5 76c-70.667 0 -132 -8.16699 -184 -24.5s-78 -38.166 -78 -65.499
c0 -36 13.667 -82.333 41 -139c35.333 -65.333 53 -110.333 53 -135c0 -70 -22.167 -129.833 -66.5 -179.5s-105.5 -74.5 -183.5 -74.5c-76 0 -137.333 25.5 -184 76.5s-70 119.5 -70 205.5c0 78.667 31.5 149.334 94.5 212.001s146.667 111.334 251 146.001
s214.5 52 330.5 52c196 0 343.833 -25.333 443.5 -76s162.667 -111.334 189 -182.001s39.5 -152.667 39.5 -246v-1065c0 -90 31.333 -135 94 -135c32 0 68.333 14.333 109 43s70 58 88 88zM1176 347.999l0.000976562 570c-151.333 0 -270.333 -12.5 -357 -37.5
s-151.334 -74 -194.001 -147s-64 -180.833 -64 -323.5c0 -188.667 94.333 -283 283 -283c36 0 80.5 12.333 133.5 37s99.333 54.5 139 89.5s59.5 66.5 59.5 94.5z" />
    <glyph glyph-name="afii10066" unicode="&#xe1;" horiz-adv-x="1950" 
d="M1696 2961l65.0029 0.000976562c0 -152 -26.167 -273.5 -78.5 -364.5s-120 -159 -203 -204s-191.167 -87.5 -324.5 -127.5c-205.333 -59.333 -343.166 -101 -413.499 -125s-152.833 -69.5 -247.5 -136.5s-172 -162.667 -232 -287s-90 -282.833 -90 -475.5h37
c66.667 138 144.167 247.667 232.5 329s177.666 138.333 267.999 171s177.5 49 261.5 49c170.667 0 324 -43.5 460 -130.5s241.5 -201 316.5 -342s112.5 -289.5 112.5 -445.5c0 -159.333 -41.333 -309.833 -124 -451.5s-192.667 -254.667 -330 -339
s-282.333 -126.5 -435 -126.5c-129.333 0 -259.833 33 -391.5 99s-246.167 192.167 -343.5 378.5s-146 442.166 -146 767.499c0 256.667 27.333 471.667 82 645s130.167 313 226.5 419s205.166 188.667 326.499 248s268.666 112.333 441.999 159l243 55.5
c76.667 17.667 141.167 44.167 193.5 79.5s83.166 87 92.499 155zM553.003 1167c-5.33301 -130.667 -7.99902 -230.333 -7.99902 -299c0 -62 2.66699 -161.667 8 -299c8.66699 -126 41 -248.167 97 -366.5s164.333 -177.5 325 -177.5c259.333 0 401.333 181.333 426 544
c8 94.667 12 187.667 12 279c0 106.667 -4 213 -12 319c-14 214.667 -64 360.5 -150 437.5s-178 115.5 -276 115.5c-95.333 0 -185.833 -38 -271.5 -114s-135.834 -222.333 -150.501 -439z" />
    <glyph glyph-name="afii10066" unicode="&#x431;" horiz-adv-x="1950" 
d="M1696 2961l65.0029 0.000976562c0 -152 -26.167 -273.5 -78.5 -364.5s-120 -159 -203 -204s-191.167 -87.5 -324.5 -127.5c-205.333 -59.333 -343.166 -101 -413.499 -125s-152.833 -69.5 -247.5 -136.5s-172 -162.667 -232 -287s-90 -282.833 -90 -475.5h37
c66.667 138 144.167 247.667 232.5 329s177.666 138.333 267.999 171s177.5 49 261.5 49c170.667 0 324 -43.5 460 -130.5s241.5 -201 316.5 -342s112.5 -289.5 112.5 -445.5c0 -159.333 -41.333 -309.833 -124 -451.5s-192.667 -254.667 -330 -339
s-282.333 -126.5 -435 -126.5c-129.333 0 -259.833 33 -391.5 99s-246.167 192.167 -343.5 378.5s-146 442.166 -146 767.499c0 256.667 27.333 471.667 82 645s130.167 313 226.5 419s205.166 188.667 326.499 248s268.666 112.333 441.999 159l243 55.5
c76.667 17.667 141.167 44.167 193.5 79.5s83.166 87 92.499 155zM553.003 1167c-5.33301 -130.667 -7.99902 -230.333 -7.99902 -299c0 -62 2.66699 -161.667 8 -299c8.66699 -126 41 -248.167 97 -366.5s164.333 -177.5 325 -177.5c259.333 0 401.333 181.333 426 544
c8 94.667 12 187.667 12 279c0 106.667 -4 213 -12 319c-14 214.667 -64 360.5 -150 437.5s-178 115.5 -276 115.5c-95.333 0 -185.833 -38 -271.5 -114s-135.834 -222.333 -150.501 -439z" />
    <glyph glyph-name="afii10067" unicode="&#xe2;" horiz-adv-x="1958" 
d="M340 70l0.000976562 1605h-258v70h958c242 0 420.667 -33.5 536 -100.5s173 -159.167 173 -276.5c0 -106 -44.333 -199.667 -133 -281s-223.334 -131 -404.001 -149v-16c153.333 -11.333 296.833 -49.666 430.5 -114.999s200.5 -167.666 200.5 -306.999
c0 -84.667 -24.833 -165.667 -74.5 -243s-120 -139.5 -211 -186.5s-195.167 -70.5 -312.5 -70.5h-1163v70h258zM741.001 69.998h308.001c103.333 0 185 26 245 78s90 168 90 348c0 127.333 -23.833 225.333 -71.5 294s-132.834 103 -255.501 103h-316v-823zM741.002 957.998
h258c190 0 291.333 87.667 304 263v135c-2.66699 102.667 -24 181.5 -64 236.5s-133.667 82.5 -281 82.5h-217v-717z" />
    <glyph glyph-name="afii10067" unicode="&#x432;" horiz-adv-x="1958" 
d="M340 70l0.000976562 1605h-258v70h958c242 0 420.667 -33.5 536 -100.5s173 -159.167 173 -276.5c0 -106 -44.333 -199.667 -133 -281s-223.334 -131 -404.001 -149v-16c153.333 -11.333 296.833 -49.666 430.5 -114.999s200.5 -167.666 200.5 -306.999
c0 -84.667 -24.833 -165.667 -74.5 -243s-120 -139.5 -211 -186.5s-195.167 -70.5 -312.5 -70.5h-1163v70h258zM741.001 69.998h308.001c103.333 0 185 26 245 78s90 168 90 348c0 127.333 -23.833 225.333 -71.5 294s-132.834 103 -255.501 103h-316v-823zM741.002 957.998
h258c190 0 291.333 87.667 304 263v135c-2.66699 102.667 -24 181.5 -64 236.5s-133.667 82.5 -281 82.5h-217v-717z" />
    <glyph glyph-name="afii10068" unicode="&#xe3;" horiz-adv-x="1565" 
d="M340 70v1605h-258v70h1425l25 -565h-86c-35.333 147.333 -79.333 256.833 -132 328.5s-111 117.334 -175 137.001s-146 29.5 -246 29.5h-119h-33v-1605h258v-70h-917v70h258z" />
    <glyph glyph-name="afii10068" unicode="&#x433;" horiz-adv-x="1565" 
d="M340 70v1605h-258v70h1425l25 -565h-86c-35.333 147.333 -79.333 256.833 -132 328.5s-111 117.334 -175 137.001s-146 29.5 -246 29.5h-119h-33v-1605h258v-70h-917v70h258z" />
    <glyph glyph-name="afii10069" unicode="&#xe4;" horiz-adv-x="1876" 
d="M115 -537l-89.9961 -0.000976562l49 607h61c97.333 0 171.166 35 221.499 105s86.166 199.333 107.499 388s32 469.334 32 842.001c0 76.667 -8.33301 133.5 -25 170.5s-47.5 62.833 -92.5 77.5s-115.167 22 -210.5 22v70h1622v-70h-258v-1605h274l37 -607h-86
c-22.667 199.333 -93.5 338.666 -212.5 417.999s-288.5 119 -508.5 119h-340c-132 0 -235.333 -19 -310 -57s-131.334 -94.667 -170.001 -170s-72.334 -178.666 -101.001 -309.999zM1130 69.999l0.000976562 1605h-294c-90.667 0 -153.167 -13 -187.5 -39
s-54.833 -67.333 -61.5 -124s-14 -184 -22 -382c-9.33301 -288.667 -18.5 -492.167 -27.5 -610.5s-24.833 -210.833 -47.5 -277.5s-60.334 -124 -113.001 -172h753z" />
    <glyph glyph-name="afii10069" unicode="&#x434;" horiz-adv-x="1876" 
d="M115 -537l-89.9961 -0.000976562l49 607h61c97.333 0 171.166 35 221.499 105s86.166 199.333 107.499 388s32 469.334 32 842.001c0 76.667 -8.33301 133.5 -25 170.5s-47.5 62.833 -92.5 77.5s-115.167 22 -210.5 22v70h1622v-70h-258v-1605h274l37 -607h-86
c-22.667 199.333 -93.5 338.666 -212.5 417.999s-288.5 119 -508.5 119h-340c-132 0 -235.333 -19 -310 -57s-131.334 -94.667 -170.001 -170s-72.334 -178.666 -101.001 -309.999zM1130 69.999l0.000976562 1605h-294c-90.667 0 -153.167 -13 -187.5 -39
s-54.833 -67.333 -61.5 -124s-14 -184 -22 -382c-9.33301 -288.667 -18.5 -492.167 -27.5 -610.5s-24.833 -210.833 -47.5 -277.5s-60.334 -124 -113.001 -172h753z" />
    <glyph glyph-name="afii10070" unicode="&#xe5;" horiz-adv-x="1802" 
d="M1642 487l69.999 -45.002c-102.667 -163.333 -213.167 -285.333 -331.5 -366s-254.833 -121 -409.5 -121c-153.333 0 -297.666 36.5 -432.999 109.5s-243.833 179 -325.5 318s-122.5 302.167 -122.5 489.5c0 161.333 36 312.833 108 454.5s170.833 254.334 296.5 338.001
s265.167 125.5 418.5 125.5c108 0 218.333 -21.667 331 -65s212.667 -126 300 -248s138 -290.667 152 -506h-1147l4 -283c1.33301 -117.333 11.333 -222.666 30 -315.999s57.5 -171.833 116.5 -235.5s143.833 -95.5 254.5 -95.5c252.667 0 482 148.667 688 446z
M548.999 1036h720.999c0 15.333 0.666992 37 2 65s2 48.667 2 62c0 178.667 -23.5 316.167 -70.5 412.5s-136.833 144.5 -269.5 144.5c-149.333 0 -250.166 -47 -302.499 -141s-78.5 -189 -78.5 -285z" />
    <glyph glyph-name="afii10070" unicode="&#x435;" horiz-adv-x="1802" 
d="M1642 487l69.999 -45.002c-102.667 -163.333 -213.167 -285.333 -331.5 -366s-254.833 -121 -409.5 -121c-153.333 0 -297.666 36.5 -432.999 109.5s-243.833 179 -325.5 318s-122.5 302.167 -122.5 489.5c0 161.333 36 312.833 108 454.5s170.833 254.334 296.5 338.001
s265.167 125.5 418.5 125.5c108 0 218.333 -21.667 331 -65s212.667 -126 300 -248s138 -290.667 152 -506h-1147l4 -283c1.33301 -117.333 11.333 -222.666 30 -315.999s57.5 -171.833 116.5 -235.5s143.833 -95.5 254.5 -95.5c252.667 0 482 148.667 688 446z
M548.999 1036h720.999c0 15.333 0.666992 37 2 65s2 48.667 2 62c0 178.667 -23.5 316.167 -70.5 412.5s-136.833 144.5 -269.5 144.5c-149.333 0 -250.166 -47 -302.499 -141s-78.5 -189 -78.5 -285z" />
    <glyph glyph-name="afii10072" unicode="&#xe6;" horiz-adv-x="3105" 
d="M1753 1675l0.00195312 -725.001c120.667 0 209.667 13.167 267 39.5s96.833 64 118.5 113s46.167 130.833 73.5 245.5c24.667 98 48.667 175.833 72 233.5s59.666 106.834 109 147.501c49.333 40.667 114.666 61 196 61c96.667 0 174.667 -28.333 234 -85
s89 -124 89 -202c0 -82 -24.167 -144.833 -72.5 -188.5s-97.833 -65.5 -148.5 -65.5c-52 0 -100.5 15.167 -145.5 45.5s-67.5 73.833 -67.5 130.5c0 41.333 2.66699 71.666 8 90.999c1.33301 5.33301 3.83301 12.833 7.5 22.5s5.5 18.5 5.5 26.5
c0 21.333 -5.66699 37.666 -17 48.999c-8 8 -21.667 12 -41 12c-14 0 -27.667 -4 -41 -12c-16 -10 -31.667 -33.667 -47 -71s-24 -68.333 -26 -93c-36 -155.333 -65.833 -264.666 -89.5 -327.999s-64.834 -118 -123.5 -164c140.667 -37.333 244.667 -69.166 312 -95.499
s128 -74.666 182 -144.999s84.333 -171.5 91 -303.5c0 -81.333 13.5 -149.5 40.5 -204.5s55.833 -82.5 86.5 -82.5c27.333 0 59.166 12.167 95.5 36.5c36.333 24.333 64.5 51.833 84.5 82.5l54 -37c-107.333 -169.333 -250.666 -254 -430 -254
c-132.667 0 -219.834 46.333 -261.5 139c-41.667 92.667 -70.834 210 -87.5 352c-14.667 136 -51.5 243.167 -110.5 321.5s-165.5 117.5 -319.5 117.5c-40.667 0 -73.334 -1.33301 -98.001 -4v-811h258v-70h-917v70h258v811c-146.667 0 -254.834 -13 -324.501 -39
s-117.167 -67.5 -142.5 -124.5s-46 -147.5 -62 -271.5c-13.333 -103.333 -26.833 -184 -40.5 -242s-45.167 -114 -94.5 -168s-120.333 -81 -213 -81c-181.333 0 -324.666 84.667 -429.999 254l49 37c23.333 -32 52.833 -59.833 88.5 -83.5s67.834 -35.5 96.501 -35.5
c30.667 0 59.5 26.833 86.5 80.5s40.5 122.5 40.5 206.5c6.66699 132 37 233.167 91 303.5s114.667 118.666 182 144.999s171.333 58.166 312 95.499c-48.667 38.667 -87.5 92 -116.5 160s-61.167 178.667 -96.5 332c-2.66699 26.667 -11.334 58.334 -26.001 95.001
s-30.334 59.667 -47.001 69c-12.667 8 -26.334 12 -41.001 12c-15.333 0 -29 -4 -41 -12c-11.333 -10.667 -17 -27 -17 -49c0 -0.666992 4 -17 12 -49c6 -19.333 9 -49.666 9 -90.999c0 -56 -23 -99.333 -69 -130s-96.667 -46 -152 -46s-104.666 23.667 -147.999 71
s-65 108.333 -65 183c0 77.333 29.833 144.5 89.5 201.5s137.5 85.5 233.5 85.5c75.333 0 136 -16.333 182 -49s81.5 -75 106.5 -127s46.167 -110.5 63.5 -175.5l58 -217.5c23.333 -76 48.833 -132.333 76.5 -169s67.5 -62.834 119.5 -78.501s128.667 -23.5 230 -23.5v725
h-258v70h917v-70h-258z" />
    <glyph glyph-name="afii10072" unicode="&#x436;" horiz-adv-x="3105" 
d="M1753 1675l0.00195312 -725.001c120.667 0 209.667 13.167 267 39.5s96.833 64 118.5 113s46.167 130.833 73.5 245.5c24.667 98 48.667 175.833 72 233.5s59.666 106.834 109 147.501c49.333 40.667 114.666 61 196 61c96.667 0 174.667 -28.333 234 -85
s89 -124 89 -202c0 -82 -24.167 -144.833 -72.5 -188.5s-97.833 -65.5 -148.5 -65.5c-52 0 -100.5 15.167 -145.5 45.5s-67.5 73.833 -67.5 130.5c0 41.333 2.66699 71.666 8 90.999c1.33301 5.33301 3.83301 12.833 7.5 22.5s5.5 18.5 5.5 26.5
c0 21.333 -5.66699 37.666 -17 48.999c-8 8 -21.667 12 -41 12c-14 0 -27.667 -4 -41 -12c-16 -10 -31.667 -33.667 -47 -71s-24 -68.333 -26 -93c-36 -155.333 -65.833 -264.666 -89.5 -327.999s-64.834 -118 -123.5 -164c140.667 -37.333 244.667 -69.166 312 -95.499
s128 -74.666 182 -144.999s84.333 -171.5 91 -303.5c0 -81.333 13.5 -149.5 40.5 -204.5s55.833 -82.5 86.5 -82.5c27.333 0 59.166 12.167 95.5 36.5c36.333 24.333 64.5 51.833 84.5 82.5l54 -37c-107.333 -169.333 -250.666 -254 -430 -254
c-132.667 0 -219.834 46.333 -261.5 139c-41.667 92.667 -70.834 210 -87.5 352c-14.667 136 -51.5 243.167 -110.5 321.5s-165.5 117.5 -319.5 117.5c-40.667 0 -73.334 -1.33301 -98.001 -4v-811h258v-70h-917v70h258v811c-146.667 0 -254.834 -13 -324.501 -39
s-117.167 -67.5 -142.5 -124.5s-46 -147.5 -62 -271.5c-13.333 -103.333 -26.833 -184 -40.5 -242s-45.167 -114 -94.5 -168s-120.333 -81 -213 -81c-181.333 0 -324.666 84.667 -429.999 254l49 37c23.333 -32 52.833 -59.833 88.5 -83.5s67.834 -35.5 96.501 -35.5
c30.667 0 59.5 26.833 86.5 80.5s40.5 122.5 40.5 206.5c6.66699 132 37 233.167 91 303.5s114.667 118.666 182 144.999s171.333 58.166 312 95.499c-48.667 38.667 -87.5 92 -116.5 160s-61.167 178.667 -96.5 332c-2.66699 26.667 -11.334 58.334 -26.001 95.001
s-30.334 59.667 -47.001 69c-12.667 8 -26.334 12 -41.001 12c-15.333 0 -29 -4 -41 -12c-11.333 -10.667 -17 -27 -17 -49c0 -0.666992 4 -17 12 -49c6 -19.333 9 -49.666 9 -90.999c0 -56 -23 -99.333 -69 -130s-96.667 -46 -152 -46s-104.666 23.667 -147.999 71
s-65 108.333 -65 183c0 77.333 29.833 144.5 89.5 201.5s137.5 85.5 233.5 85.5c75.333 0 136 -16.333 182 -49s81.5 -75 106.5 -127s46.167 -110.5 63.5 -175.5l58 -217.5c23.333 -76 48.833 -132.333 76.5 -169s67.5 -62.834 119.5 -78.501s128.667 -23.5 230 -23.5v725
h-258v70h917v-70h-258z" />
    <glyph glyph-name="afii10073" unicode="&#xe7;" horiz-adv-x="1606" 
d="M225 1139l-68.9941 0.000976562l61 651h74c26.667 -35.333 62 -53 106 -53c39.333 0 79.666 6 120.999 18s78.166 20.833 110.499 26.5s93.166 8.5 182.499 8.5c146 0 265.5 -20.833 358.5 -62.5s159.667 -93.667 200 -156s60.5 -126.166 60.5 -191.499
c0 -104.667 -41.5 -197.834 -124.5 -279.501s-205.5 -130.5 -367.5 -146.5l4 -20c134 -17.333 261.667 -63.666 383 -138.999s182 -187.333 182 -336s-66.5 -269.834 -199.5 -363.501s-316.167 -140.5 -549.5 -140.5c-148.667 0 -277.334 19.5 -386.001 58.5
s-191 93 -247 162s-84 145.833 -84 230.5c0 72 20.833 131.5 62.5 178.5s97.167 70.5 166.5 70.5c61.333 0 113.666 -21.333 156.999 -64s65 -97.667 65 -165c0 -28.667 -9.66699 -60 -29 -94c-8 -13.333 -28.5 -37.333 -61.5 -72s-49.5 -62.667 -49.5 -84
c0 -34.667 28.667 -69.334 86 -104.001s144.666 -52 261.999 -52c222 0 338.333 123 349 369v176c-18 229.333 -138.333 344 -361 344h-188v66h168c214 0 326 106.333 336 319v156c-16.667 180 -105.667 270 -267 270c-273.333 0 -444 -193.667 -512 -581z" />
    <glyph glyph-name="afii10073" unicode="&#x437;" horiz-adv-x="1606" 
d="M225 1139l-68.9941 0.000976562l61 651h74c26.667 -35.333 62 -53 106 -53c39.333 0 79.666 6 120.999 18s78.166 20.833 110.499 26.5s93.166 8.5 182.499 8.5c146 0 265.5 -20.833 358.5 -62.5s159.667 -93.667 200 -156s60.5 -126.166 60.5 -191.499
c0 -104.667 -41.5 -197.834 -124.5 -279.501s-205.5 -130.5 -367.5 -146.5l4 -20c134 -17.333 261.667 -63.666 383 -138.999s182 -187.333 182 -336s-66.5 -269.834 -199.5 -363.501s-316.167 -140.5 -549.5 -140.5c-148.667 0 -277.334 19.5 -386.001 58.5
s-191 93 -247 162s-84 145.833 -84 230.5c0 72 20.833 131.5 62.5 178.5s97.167 70.5 166.5 70.5c61.333 0 113.666 -21.333 156.999 -64s65 -97.667 65 -165c0 -28.667 -9.66699 -60 -29 -94c-8 -13.333 -28.5 -37.333 -61.5 -72s-49.5 -62.667 -49.5 -84
c0 -34.667 28.667 -69.334 86 -104.001s144.666 -52 261.999 -52c222 0 338.333 123 349 369v176c-18 229.333 -138.333 344 -361 344h-188v66h168c214 0 326 106.333 336 319v156c-16.667 180 -105.667 270 -267 270c-273.333 0 -444 -193.667 -512 -581z" />
    <glyph glyph-name="afii10074" unicode="&#xe8;" 
d="M741 373l697 1175v127h-230v70h889v-70h-258v-1605h258v-70h-889v70h230v1339l-697 -1176v-163h230v-70h-889v70h258v1605h-258v70h889v-70h-230v-1302z" />
    <glyph glyph-name="afii10074" unicode="&#x438;" 
d="M741 373l697 1175v127h-230v70h889v-70h-258v-1605h258v-70h-889v70h230v1339l-697 -1176v-163h230v-70h-889v70h258v1605h-258v70h889v-70h-230v-1302z" />
    <glyph glyph-name="afii10075" unicode="&#xe9;" 
d="M1094 1978c-188 0 -338.834 42.333 -452.501 127s-170.5 192.667 -170.5 324c0 69.333 24.833 121.5 74.5 156.5s106.834 52.5 171.501 52.5c62.667 0 112.5 -20.667 149.5 -62s55.5 -90.333 55.5 -147c0 -98 -50.667 -154 -152 -168c-49.333 -6 -74 -32 -74 -78
c0 -34 33.333 -64.5 100 -91.5s142.667 -41.5 228 -43.5h131c83.333 2 158.833 15 226.5 39s101.5 56 101.5 96c0 32.667 -5.16699 52.334 -15.5 59c-10.333 6.66699 -29.833 13 -58.5 19c-101.333 16.667 -152 72.667 -152 168c0 55.333 19.167 104 57.5 146
s88.833 63 151.5 63c66 0 122.833 -17.333 170.5 -52s71.5 -87 71.5 -157c0 -150 -61.167 -262.667 -183.5 -338s-265.833 -113 -430.5 -113zM740.999 373l697 1175v127h-230v70h889v-70h-258v-1605h258v-70h-889v70h230v1339l-697 -1176v-163h230v-70h-889v70h258v1605
h-258v70h889v-70h-230v-1302z" />
    <glyph glyph-name="afii10075" unicode="&#x439;" 
d="M1094 1978c-188 0 -338.834 42.333 -452.501 127s-170.5 192.667 -170.5 324c0 69.333 24.833 121.5 74.5 156.5s106.834 52.5 171.501 52.5c62.667 0 112.5 -20.667 149.5 -62s55.5 -90.333 55.5 -147c0 -98 -50.667 -154 -152 -168c-49.333 -6 -74 -32 -74 -78
c0 -34 33.333 -64.5 100 -91.5s142.667 -41.5 228 -43.5h131c83.333 2 158.833 15 226.5 39s101.5 56 101.5 96c0 32.667 -5.16699 52.334 -15.5 59c-10.333 6.66699 -29.833 13 -58.5 19c-101.333 16.667 -152 72.667 -152 168c0 55.333 19.167 104 57.5 146
s88.833 63 151.5 63c66 0 122.833 -17.333 170.5 -52s71.5 -87 71.5 -157c0 -150 -61.167 -262.667 -183.5 -338s-265.833 -113 -430.5 -113zM740.999 373l697 1175v127h-230v70h889v-70h-258v-1605h258v-70h-889v70h230v1339l-697 -1176v-163h230v-70h-889v70h258v1605
h-258v70h889v-70h-230v-1302z" />
    <glyph glyph-name="afii10076" unicode="&#xea;" horiz-adv-x="2114" 
d="M741 958h147.999c116 0 196 32.333 240 97s77.333 151.334 100 260.001c22 112.667 45.333 201.834 70 267.501s61.5 116.667 110.5 153s115.833 54.5 200.5 54.5c86 0 160.667 -26.167 224 -78.5s95 -121.833 95 -208.5c0 -70.667 -19.333 -130.667 -58 -180
s-93 -74 -163 -74c-62 0 -113 17 -153 51s-60 75.667 -60 125c0 31.333 4 61.666 12 90.999c1.33301 5.33301 3.83301 12.833 7.5 22.5s5.5 18.5 5.5 26.5c0 38 -33 57 -99 57c-46 0 -84 -106.333 -114 -319c-26 -118 -53.5 -202.333 -82.5 -253
s-73.833 -85.334 -134.5 -104.001v-12c171.333 -10 301.166 -42.333 389.499 -97s146.333 -115.667 174 -183s47.167 -147.333 58.5 -240c12.667 -102.667 26.834 -176.167 42.501 -220.5s46.5 -66.5 92.5 -66.5c70 0 126 37 168 111l53 -29
c-36 -78 -91.167 -139.833 -165.5 -185.5s-159.5 -68.5 -255.5 -68.5c-94 0 -165.167 23 -213.5 69s-80.166 99 -95.499 159s-31.333 149.333 -48 268c-17.333 128 -41.333 223.667 -72 287s-69.167 105 -115.5 125s-107.833 30 -184.5 30h-87l-90 -4v-819h258v-70h-917v70
h258v1605h-258v70h917v-70h-258v-717z" />
    <glyph glyph-name="afii10076" unicode="&#x43a;" horiz-adv-x="2114" 
d="M741 958h147.999c116 0 196 32.333 240 97s77.333 151.334 100 260.001c22 112.667 45.333 201.834 70 267.501s61.5 116.667 110.5 153s115.833 54.5 200.5 54.5c86 0 160.667 -26.167 224 -78.5s95 -121.833 95 -208.5c0 -70.667 -19.333 -130.667 -58 -180
s-93 -74 -163 -74c-62 0 -113 17 -153 51s-60 75.667 -60 125c0 31.333 4 61.666 12 90.999c1.33301 5.33301 3.83301 12.833 7.5 22.5s5.5 18.5 5.5 26.5c0 38 -33 57 -99 57c-46 0 -84 -106.333 -114 -319c-26 -118 -53.5 -202.333 -82.5 -253
s-73.833 -85.334 -134.5 -104.001v-12c171.333 -10 301.166 -42.333 389.499 -97s146.333 -115.667 174 -183s47.167 -147.333 58.5 -240c12.667 -102.667 26.834 -176.167 42.501 -220.5s46.5 -66.5 92.5 -66.5c70 0 126 37 168 111l53 -29
c-36 -78 -91.167 -139.833 -165.5 -185.5s-159.5 -68.5 -255.5 -68.5c-94 0 -165.167 23 -213.5 69s-80.166 99 -95.499 159s-31.333 149.333 -48 268c-17.333 128 -41.333 223.667 -72 287s-69.167 105 -115.5 125s-107.833 30 -184.5 30h-87l-90 -4v-819h258v-70h-917v70
h258v1605h-258v70h917v-70h-258v-717z" />
    <glyph glyph-name="afii10077" unicode="&#xeb;" horiz-adv-x="2019" 
d="M1278 1675l-180 0.000976562c-112 0 -194.667 -9.5 -248 -28.5s-86.5 -44.667 -99.5 -77s-20.167 -77.5 -21.5 -135.5l-33 -1053c-4.66699 -136.667 -31.334 -241.834 -80.001 -315.501s-140.667 -110.5 -276 -110.5c-90 0 -167.167 24.667 -231.5 74
s-96.5 116 -96.5 200c0 70.667 21.333 128 64 172s92.334 66 149.001 66c58.667 0 108.167 -14.5 148.5 -43.5s60.5 -71.833 60.5 -128.5c0 -27.333 -2.66699 -48 -8 -62c-13.333 -26.667 -20 -41.667 -20 -45c0 -57.333 15 -86 45 -86c54 0 93.833 13.667 119.5 41
s41.834 64 48.501 110s10.667 106.333 12 181l28 1000c0 74 -12.833 132.667 -38.5 176s-87.834 65 -186.501 65h-86v70h1589v-70h-258v-1605h258v-70h-917v70h258v1605z" />
    <glyph glyph-name="afii10077" unicode="&#x43b;" horiz-adv-x="2019" 
d="M1278 1675l-180 0.000976562c-112 0 -194.667 -9.5 -248 -28.5s-86.5 -44.667 -99.5 -77s-20.167 -77.5 -21.5 -135.5l-33 -1053c-4.66699 -136.667 -31.334 -241.834 -80.001 -315.501s-140.667 -110.5 -276 -110.5c-90 0 -167.167 24.667 -231.5 74
s-96.5 116 -96.5 200c0 70.667 21.333 128 64 172s92.334 66 149.001 66c58.667 0 108.167 -14.5 148.5 -43.5s60.5 -71.833 60.5 -128.5c0 -27.333 -2.66699 -48 -8 -62c-13.333 -26.667 -20 -41.667 -20 -45c0 -57.333 15 -86 45 -86c54 0 93.833 13.667 119.5 41
s41.834 64 48.501 110s10.667 106.333 12 181l28 1000c0 74 -12.833 132.667 -38.5 176s-87.834 65 -186.501 65h-86v70h1589v-70h-258v-1605h258v-70h-917v70h258v1605z" />
    <glyph glyph-name="afii10078" unicode="&#xec;" horiz-adv-x="2531" 
d="M82 1675l0.000976562 70h696l508 -1213l463 1213h700v-70h-258v-1605h258v-70h-917v70h258v1560l-639 -1630h-37l-655 1614v-1315c0 -80.667 15.167 -139 45.5 -175s101.166 -54 212.499 -54v-70h-594v70c30 2.66699 51.667 4 65 4c51.333 4 95 18.333 131 43
s54 82.667 54 174v1155c0 152.667 -73.667 229 -221 229h-70z" />
    <glyph glyph-name="afii10078" unicode="&#x43c;" horiz-adv-x="2531" 
d="M82 1675l0.000976562 70h696l508 -1213l463 1213h700v-70h-258v-1605h258v-70h-917v70h258v1560l-639 -1630h-37l-655 1614v-1315c0 -80.667 15.167 -139 45.5 -175s101.166 -54 212.499 -54v-70h-594v70c30 2.66699 51.667 4 65 4c51.333 4 95 18.333 131 43
s54 82.667 54 174v1155c0 152.667 -73.667 229 -221 229h-70z" />
    <glyph glyph-name="afii10079" unicode="&#xed;" 
d="M741 909v-839h230v-70h-889v70h258v1605h-258v70h889v-70h-230v-700h697v700h-230v70h889v-70h-258v-1605h258v-70h-889v70h230v839h-697z" />
    <glyph glyph-name="afii10079" unicode="&#x43d;" 
d="M741 909v-839h230v-70h-889v70h258v1605h-258v70h889v-70h-230v-700h697v700h-230v70h889v-70h-258v-1605h258v-70h-889v70h230v839h-697z" />
    <glyph glyph-name="afii10080" unicode="&#xee;" horiz-adv-x="1954" 
d="M90 872c0 161.333 38.668 312.831 116.001 454.498s183.666 254.334 318.999 338.001s285.333 125.5 450 125.5c128 0 246.5 -24.833 355.5 -74.5s203.5 -118 283.5 -205s141.667 -185.5 185 -295.5s65 -224.333 65 -343c0 -158 -38.5 -307.667 -115.5 -449
s-183.667 -254.666 -320 -339.999s-287.5 -128 -453.5 -128c-124.667 0 -241.5 24.667 -350.5 74s-204 117.5 -285 204.5s-142.833 185.5 -185.5 295.5s-64 224.333 -64 343zM553.001 1167c-2.66699 -68 -4.00098 -170.333 -4.00098 -307c0 -200.667 11 -360 33 -478
s64.333 -207 127 -267s152.667 -90 270 -90c108.667 0 194 27.833 256 83.5s105.833 144 131.5 265s38.5 284.5 38.5 490.5c0 174.667 -8.66699 322 -26 442s-57 219 -119 297s-155.667 117 -281 117c-112 0 -209.167 -44.5 -291.5 -133.5
s-127.166 -228.833 -134.499 -419.5z" />
    <glyph glyph-name="afii10080" unicode="&#x43e;" horiz-adv-x="1954" 
d="M90 872c0 161.333 38.668 312.831 116.001 454.498s183.666 254.334 318.999 338.001s285.333 125.5 450 125.5c128 0 246.5 -24.833 355.5 -74.5s203.5 -118 283.5 -205s141.667 -185.5 185 -295.5s65 -224.333 65 -343c0 -158 -38.5 -307.667 -115.5 -449
s-183.667 -254.666 -320 -339.999s-287.5 -128 -453.5 -128c-124.667 0 -241.5 24.667 -350.5 74s-204 117.5 -285 204.5s-142.833 185.5 -185.5 295.5s-64 224.333 -64 343zM553.001 1167c-2.66699 -68 -4.00098 -170.333 -4.00098 -307c0 -200.667 11 -360 33 -478
s64.333 -207 127 -267s152.667 -90 270 -90c108.667 0 194 27.833 256 83.5s105.833 144 131.5 265s38.5 284.5 38.5 490.5c0 174.667 -8.66699 322 -26 442s-57 219 -119 297s-155.667 117 -281 117c-112 0 -209.167 -44.5 -291.5 -133.5
s-127.166 -228.833 -134.499 -419.5z" />
    <glyph glyph-name="afii10081" unicode="&#xef;" 
d="M741 1675v-1605h230v-70h-889v70h258v1605h-258v70h2015v-70h-258v-1605h258v-70h-889v70h230v1605h-697z" />
    <glyph glyph-name="afii10081" unicode="&#x43f;" 
d="M741 1675v-1605h230v-70h-889v70h258v1605h-258v70h2015v-70h-258v-1605h258v-70h-889v70h230v1605h-697z" />
    <glyph glyph-name="afii10082" unicode="&#xf0;" horiz-adv-x="2052" 
d="M729 1765v-245c91.333 180 228 270 410 270c102.667 0 203 -21.833 301 -65.5s186.5 -106.5 265.5 -188.5s141.5 -180.5 187.5 -295.5s69 -239.167 69 -372.5c0 -123.333 -22.167 -240.333 -66.5 -351s-106.333 -208.5 -186 -293.5s-171 -151 -274 -198
s-211.5 -70.5 -325.5 -70.5c-167.333 0 -294.333 65.667 -381 197v-955h258v-69h-917v69h258v2478h-258v70h405c87.333 0 172 6.66699 254 20zM1503 635v544.999c0 354.667 -122.667 532 -368 532c-111.333 0 -206.833 -41.667 -286.5 -125s-119.5 -186.333 -119.5 -309
v-913c0 -97.333 41.667 -179.166 125 -245.499s171.333 -99.5 264 -99.5c95.333 0 183.333 44 264 132s121 249 121 483z" />
    <glyph glyph-name="afii10082" unicode="&#x440;" horiz-adv-x="2052" 
d="M729 1765v-245c91.333 180 228 270 410 270c102.667 0 203 -21.833 301 -65.5s186.5 -106.5 265.5 -188.5s141.5 -180.5 187.5 -295.5s69 -239.167 69 -372.5c0 -123.333 -22.167 -240.333 -66.5 -351s-106.333 -208.5 -186 -293.5s-171 -151 -274 -198
s-211.5 -70.5 -325.5 -70.5c-167.333 0 -294.333 65.667 -381 197v-955h258v-69h-917v69h258v2478h-258v70h405c87.333 0 172 6.66699 254 20zM1503 635v544.999c0 354.667 -122.667 532 -368 532c-111.333 0 -206.833 -41.667 -286.5 -125s-119.5 -186.333 -119.5 -309
v-913c0 -97.333 41.667 -179.166 125 -245.499s171.333 -99.5 264 -99.5c95.333 0 183.333 44 264 132s121 249 121 483z" />
    <glyph glyph-name="afii10083" unicode="&#xf1;" horiz-adv-x="1692" 
d="M1536 455l66.0029 -28.998c-117.333 -314 -322.333 -471 -615 -471c-168 0 -320.333 39.667 -457 119s-244.167 189 -322.5 329s-117.5 296.333 -117.5 469c0 113.333 20 224.333 60 333s98.5 207.167 175.5 295.5s172.167 158.666 285.5 210.999
s238.666 78.5 375.999 78.5c108 0 208.167 -18.833 300.5 -56.5s165.666 -89.167 219.999 -154.5s81.5 -137 81.5 -215c0 -76 -21.333 -139.333 -64 -190s-99 -76 -169 -76c-78.667 0 -140.667 25.333 -186 76s-68 110 -68 178c0 24 8 55.333 24 94
c14 35.333 33.333 69.666 58 102.999s37 56.333 37 69c0 23.333 -17.833 46.833 -53.5 70.5s-91.834 35.5 -168.501 35.5c-136 0 -245 -37.5 -327 -112.5s-123 -232.5 -123 -472.5v-516c0 -127.333 13.5 -234.666 40.5 -321.999s73.5 -154.5 139.5 -201.5
s156 -70.5 270 -70.5c91.333 0 171 17 239 51s125.833 82.667 173.5 146s89.167 139.666 124.5 228.999z" />
    <glyph glyph-name="afii10083" unicode="&#x441;" horiz-adv-x="1692" 
d="M1536 455l66.0029 -28.998c-117.333 -314 -322.333 -471 -615 -471c-168 0 -320.333 39.667 -457 119s-244.167 189 -322.5 329s-117.5 296.333 -117.5 469c0 113.333 20 224.333 60 333s98.5 207.167 175.5 295.5s172.167 158.666 285.5 210.999
s238.666 78.5 375.999 78.5c108 0 208.167 -18.833 300.5 -56.5s165.666 -89.167 219.999 -154.5s81.5 -137 81.5 -215c0 -76 -21.333 -139.333 -64 -190s-99 -76 -169 -76c-78.667 0 -140.667 25.333 -186 76s-68 110 -68 178c0 24 8 55.333 24 94
c14 35.333 33.333 69.666 58 102.999s37 56.333 37 69c0 23.333 -17.833 46.833 -53.5 70.5s-91.834 35.5 -168.501 35.5c-136 0 -245 -37.5 -327 -112.5s-123 -232.5 -123 -472.5v-516c0 -127.333 13.5 -234.666 40.5 -321.999s73.5 -154.5 139.5 -201.5
s156 -70.5 270 -70.5c91.333 0 171 17 239 51s125.833 82.667 173.5 146s89.167 139.666 124.5 228.999z" />
    <glyph glyph-name="afii10084" unicode="&#xf2;" horiz-adv-x="1786" 
d="M1716 1745l37.001 -664h-86c-39.333 194 -103.5 341.5 -192.5 442.5s-215.833 151.5 -380.5 151.5v-1605h258v-70h-918v70h258v1605c-97.333 0 -178.5 -15.167 -243.5 -45.5s-117.167 -71.833 -156.5 -124.5s-69.833 -108 -91.5 -166s-48.834 -144 -81.501 -258h-86
l37 664h1646z" />
    <glyph glyph-name="afii10084" unicode="&#x442;" horiz-adv-x="1786" 
d="M1716 1745l37.001 -664h-86c-39.333 194 -103.5 341.5 -192.5 442.5s-215.833 151.5 -380.5 151.5v-1605h258v-70h-918v70h258v1605c-97.333 0 -178.5 -15.167 -243.5 -45.5s-117.167 -71.833 -156.5 -124.5s-69.833 -108 -91.5 -166s-48.834 -144 -81.501 -258h-86
l37 664h1646z" />
    <glyph glyph-name="afii10085" unicode="&#xf3;" horiz-adv-x="1913" 
d="M1032 -119l-848.001 1794h-184v70h885v-70h-258l602 -1261l327 929c16.667 47.333 25 92.666 25 135.999c0 130.667 -77.667 196 -233 196h-37v70h659v-70c-89.333 -5.33301 -155.833 -38.833 -199.5 -100.5s-86.5 -146.834 -128.5 -255.501l-724 -1950
c-38.667 -103.333 -94 -178.333 -166 -225s-149.333 -70 -232 -70c-125.333 0 -225.666 30 -300.999 90s-113 128.333 -113 205c0 79.333 20.833 147 62.5 203s93.5 84 155.5 84c59.333 0 114.333 -15.5 165 -46.5s76 -81.167 76 -150.5c0 -31.333 -5.33301 -60 -16 -86
c-16.667 -44.667 -25 -76 -25 -94c0 -46.667 46.667 -70 140 -70c72 0 130.667 56 176 168z" />
    <glyph glyph-name="afii10085" unicode="&#x443;" horiz-adv-x="1913" 
d="M1032 -119l-848.001 1794h-184v70h885v-70h-258l602 -1261l327 929c16.667 47.333 25 92.666 25 135.999c0 130.667 -77.667 196 -233 196h-37v70h659v-70c-89.333 -5.33301 -155.833 -38.833 -199.5 -100.5s-86.5 -146.834 -128.5 -255.501l-724 -1950
c-38.667 -103.333 -94 -178.333 -166 -225s-149.333 -70 -232 -70c-125.333 0 -225.666 30 -300.999 90s-113 128.333 -113 205c0 79.333 20.833 147 62.5 203s93.5 84 155.5 84c59.333 0 114.333 -15.5 165 -46.5s76 -81.167 76 -150.5c0 -31.333 -5.33301 -60 -16 -86
c-16.667 -44.667 -25 -76 -25 -94c0 -46.667 46.667 -70 140 -70c72 0 130.667 56 176 168z" />
    <glyph glyph-name="afii10086" unicode="&#xf4;" horiz-adv-x="2982" 
d="M1692 2589l0.00292969 -1045c97.333 164 240.666 246 429.999 246c137.333 0 265.166 -42.167 383.5 -126.5c118.333 -84.333 212.333 -198 282 -341s104.5 -297.167 104.5 -462.5c0 -140 -33.667 -280.167 -101 -420.5s-164 -256.166 -290 -347.499
s-271.667 -137 -437 -137c-155.333 0 -279.333 79.333 -372 238v-996h258v-69h-918v69h258v996c-44.667 -86 -100.334 -147.167 -167.001 -183.5s-133.667 -54.5 -201 -54.5c-126.667 0 -242.167 27.333 -346.5 82s-192.333 126.834 -264 216.501
s-126.5 188.167 -164.5 295.5s-57 211 -57 311c0 180.667 39 342.334 117 485.001s177.833 252.5 299.5 329.5s245.167 115.5 370.5 115.5c55.333 0 124 -16.333 206 -49s151 -98.334 207 -197.001v950h-258v70h410c111.333 0 194.666 8.33301 249.999 25zM2433 548.998
l0.000976562 630.999c0 182 -38.5 314.833 -115.5 398.5s-169.5 125.5 -277.5 125.5c-98.667 0 -181.334 -43.333 -248.001 -130s-100 -195 -100 -325v-717c0 -160.667 34.167 -284 102.5 -370s152.833 -129 253.5 -129c99.333 0 188.333 39.833 267 119.5
s118 211.834 118 396.501zM1290 531.997l-0.00195312 713c0 132 -32.833 241.5 -98.5 328.5s-147.5 130.5 -245.5 130.5c-106.667 0 -199.5 -42 -278.5 -126s-118.5 -216.667 -118.5 -398v-631c0 -112.667 17.833 -208 53.5 -286s83.334 -135.833 143.001 -173.5
s123.834 -56.5 192.501 -56.5c87.333 0 167.833 34.667 241.5 104s110.5 201 110.5 395z" />
    <glyph glyph-name="afii10086" unicode="&#x444;" horiz-adv-x="2982" 
d="M1692 2589l0.00292969 -1045c97.333 164 240.666 246 429.999 246c137.333 0 265.166 -42.167 383.5 -126.5c118.333 -84.333 212.333 -198 282 -341s104.5 -297.167 104.5 -462.5c0 -140 -33.667 -280.167 -101 -420.5s-164 -256.166 -290 -347.499
s-271.667 -137 -437 -137c-155.333 0 -279.333 79.333 -372 238v-996h258v-69h-918v69h258v996c-44.667 -86 -100.334 -147.167 -167.001 -183.5s-133.667 -54.5 -201 -54.5c-126.667 0 -242.167 27.333 -346.5 82s-192.333 126.834 -264 216.501
s-126.5 188.167 -164.5 295.5s-57 211 -57 311c0 180.667 39 342.334 117 485.001s177.833 252.5 299.5 329.5s245.167 115.5 370.5 115.5c55.333 0 124 -16.333 206 -49s151 -98.334 207 -197.001v950h-258v70h410c111.333 0 194.666 8.33301 249.999 25zM2433 548.998
l0.000976562 630.999c0 182 -38.5 314.833 -115.5 398.5s-169.5 125.5 -277.5 125.5c-98.667 0 -181.334 -43.333 -248.001 -130s-100 -195 -100 -325v-717c0 -160.667 34.167 -284 102.5 -370s152.833 -129 253.5 -129c99.333 0 188.333 39.833 267 119.5
s118 211.834 118 396.501zM1290 531.997l-0.00195312 713c0 132 -32.833 241.5 -98.5 328.5s-147.5 130.5 -245.5 130.5c-106.667 0 -199.5 -42 -278.5 -126s-118.5 -216.667 -118.5 -398v-631c0 -112.667 17.833 -208 53.5 -286s83.334 -135.833 143.001 -173.5
s123.834 -56.5 192.501 -56.5c87.333 0 167.833 34.667 241.5 104s110.5 201 110.5 395z" />
    <glyph glyph-name="afii10087" unicode="&#xf5;" horiz-adv-x="2056" 
d="M844 811l-593.996 864.003h-217v70h889v-70h-185l418 -598l184 271c8 12.667 21.833 30.667 41.5 54s34.167 45.666 43.5 66.999s14 47.666 14 78.999c0 84.667 -72.333 127 -217 127v70h708v-70h-61c-58.667 0 -121.834 -23.333 -189.501 -70
s-124.834 -102.334 -171.501 -167.001l-315 -439l647 -929h184v-70h-905v70h238l-471 667l-258 -356c-41.333 -54.667 -62 -121.667 -62 -201c0 -27.333 20.167 -52.5 60.5 -75.5s80.166 -34.5 119.499 -34.5h33v-70h-745v70h33c163.333 0 329.666 116 498.999 348z" />
    <glyph glyph-name="afii10087" unicode="&#x445;" horiz-adv-x="2056" 
d="M844 811l-593.996 864.003h-217v70h889v-70h-185l418 -598l184 271c8 12.667 21.833 30.667 41.5 54s34.167 45.666 43.5 66.999s14 47.666 14 78.999c0 84.667 -72.333 127 -217 127v70h708v-70h-61c-58.667 0 -121.834 -23.333 -189.501 -70
s-124.834 -102.334 -171.501 -167.001l-315 -439l647 -929h184v-70h-905v70h238l-471 667l-258 -356c-41.333 -54.667 -62 -121.667 -62 -201c0 -27.333 20.167 -52.5 60.5 -75.5s80.166 -34.5 119.499 -34.5h33v-70h-745v70h33c163.333 0 329.666 116 498.999 348z" />
    <glyph glyph-name="afii10088" unicode="&#xf6;" horiz-adv-x="2204" 
d="M340 70v1605h-258v70h889v-70h-230v-1605h697v1605h-230v70h889v-70h-258v-1605h307l58 -660h-86c-49.333 244 -130 403.333 -242 478s-260.667 112 -446 112h-1348v70h258z" />
    <glyph glyph-name="afii10088" unicode="&#x446;" horiz-adv-x="2204" 
d="M340 70v1605h-258v70h889v-70h-230v-1605h697v1605h-230v70h889v-70h-258v-1605h307l58 -660h-86c-49.333 244 -130 403.333 -242 478s-260.667 112 -446 112h-1348v70h258z" />
    <glyph glyph-name="afii10089" unicode="&#xf7;" horiz-adv-x="1933" 
d="M1192 70v749c-77.333 -30.667 -167.833 -56.667 -271.5 -78s-200.167 -32 -289.5 -32c-248.667 0 -373 125.333 -373 376v590h-258v70h889v-70h-230v-663c0 -67.333 25.167 -115 75.5 -143s107.166 -42 170.499 -42c76.667 0 172.334 19.333 287.001 58v790h-229v70h888
v-70h-258v-1605h258v-70h-917v70h258z" />
    <glyph glyph-name="afii10089" unicode="&#x447;" horiz-adv-x="1933" 
d="M1192 70v749c-77.333 -30.667 -167.833 -56.667 -271.5 -78s-200.167 -32 -289.5 -32c-248.667 0 -373 125.333 -373 376v590h-258v70h889v-70h-230v-663c0 -67.333 25.167 -115 75.5 -143s107.166 -42 170.499 -42c76.667 0 172.334 19.333 287.001 58v790h-229v70h888
v-70h-258v-1605h258v-70h-917v70h258z" />
    <glyph glyph-name="afii10090" unicode="&#xf8;" horiz-adv-x="3113" 
d="M3031 0h-2949v70h258v1605h-258v70h889v-70h-230v-1605h615v1605h-230v70h861v-70h-230v-1605h615v1605h-230v70h889v-70h-258v-1605h258v-70z" />
    <glyph glyph-name="afii10090" unicode="&#x448;" horiz-adv-x="3113" 
d="M3031 0h-2949v70h258v1605h-258v70h889v-70h-230v-1605h615v1605h-230v70h861v-70h-230v-1605h615v1605h-230v70h889v-70h-258v-1605h258v-70z" />
    <glyph glyph-name="afii10091" unicode="&#xf9;" horiz-adv-x="3125" 
d="M2773 70h295l57 -668h-86c-12 108 -42 206.667 -90 296s-123.667 162 -227 218s-236.666 84 -400 84h-2240v70h258v1605h-258v70h889v-70h-230v-1605h615v1605h-230v70h861v-70h-230v-1605h615v1605h-230v70h889v-70h-258v-1605z" />
    <glyph glyph-name="afii10091" unicode="&#x449;" horiz-adv-x="3125" 
d="M2773 70h295l57 -668h-86c-12 108 -42 206.667 -90 296s-123.667 162 -227 218s-236.666 84 -400 84h-2240v70h258v1605h-258v70h889v-70h-230v-1605h615v1605h-230v70h861v-70h-230v-1605h615v1605h-230v70h889v-70h-258v-1605z" />
    <glyph glyph-name="afii10092" unicode="&#xfa;" horiz-adv-x="2167" 
d="M1118 1016l196.999 -4.00098c303.333 -5.33301 511.5 -57.833 624.5 -157.5s169.5 -219.167 169.5 -358.5c0 -74 -19.833 -148.5 -59.5 -223.5s-109.667 -139.167 -210 -192.5s-234.166 -80 -401.499 -80h-979v70h258v1605h-86c-136.667 0 -257.667 -34.167 -363 -102.5
s-171.333 -229.166 -198 -482.499h-70l41 655h1335v-70h-258v-659zM1118 69.999l160 0.000976562c159.333 0 261.333 24 306 72s67 114 67 198v291c-2.66699 91.333 -26 166.666 -70 225.999s-132.667 89 -266 89h-197v-876z" />
    <glyph glyph-name="afii10092" unicode="&#x44a;" horiz-adv-x="2167" 
d="M1118 1016l196.999 -4.00098c303.333 -5.33301 511.5 -57.833 624.5 -157.5s169.5 -219.167 169.5 -358.5c0 -74 -19.833 -148.5 -59.5 -223.5s-109.667 -139.167 -210 -192.5s-234.166 -80 -401.499 -80h-979v70h258v1605h-86c-136.667 0 -257.667 -34.167 -363 -102.5
s-171.333 -229.166 -198 -482.499h-70l41 655h1335v-70h-258v-659zM1118 69.999l160 0.000976562c159.333 0 261.333 24 306 72s67 114 67 198v291c-2.66699 91.333 -26 166.666 -70 225.999s-132.667 89 -266 89h-197v-876z" />
    <glyph glyph-name="afii10093" unicode="&#xfb;" horiz-adv-x="2769" 
d="M2429 70h258v-70h-918v70h259v1605h-259v70h918v-70h-258v-1605zM741 1016h193c244.667 0 439 -44.833 583 -134.5s216 -216.834 216 -381.501c0 -73.333 -19.833 -148.166 -59.5 -224.499s-109.5 -141.333 -209.5 -195s-234.333 -80.5 -403 -80.5h-979v70h258v1605h-258
v70h917v-70h-258v-659zM741 70l160 0.00195312c157.333 0 258.833 24.167 304.5 72.5s68.5 114.166 68.5 197.499v291c-2.66699 91.333 -26 166.666 -70 225.999s-132.667 89 -266 89h-197v-876z" />
    <glyph glyph-name="afii10093" unicode="&#x44b;" horiz-adv-x="2769" 
d="M2429 70h258v-70h-918v70h259v1605h-259v70h918v-70h-258v-1605zM741 1016h193c244.667 0 439 -44.833 583 -134.5s216 -216.834 216 -381.501c0 -73.333 -19.833 -148.166 -59.5 -224.499s-109.5 -141.333 -209.5 -195s-234.333 -80.5 -403 -80.5h-979v70h258v1605h-258
v70h917v-70h-258v-659zM741 70l160 0.00195312c157.333 0 258.833 24.167 304.5 72.5s68.5 114.166 68.5 197.499v291c-2.66699 91.333 -26 166.666 -70 225.999s-132.667 89 -266 89h-197v-876z" />
    <glyph glyph-name="afii10094" unicode="&#xfc;" horiz-adv-x="1790" 
d="M741 1016l193.001 0.000976562c272.667 0 474 -50.333 604 -151s195 -223.667 195 -369c0 -72 -20.5 -145.833 -61.5 -221.5s-111.833 -140.334 -212.5 -194.001s-233.334 -80.5 -398.001 -80.5h-979v70h258v1605h-258v70h917v-70h-258v-659zM741.001 70.001h156.003
c103.333 0 179.166 6.33301 227.499 19s85.166 44.667 110.499 96s38.333 133 39 245v107c0 138.667 -20.833 241.5 -62.5 308.5s-132.834 100.5 -273.501 100.5h-197v-876z" />
    <glyph glyph-name="afii10094" unicode="&#x44c;" horiz-adv-x="1790" 
d="M741 1016l193.001 0.000976562c272.667 0 474 -50.333 604 -151s195 -223.667 195 -369c0 -72 -20.5 -145.833 -61.5 -221.5s-111.833 -140.334 -212.5 -194.001s-233.334 -80.5 -398.001 -80.5h-979v70h258v1605h-258v70h917v-70h-258v-659zM741.001 70.001h156.003
c103.333 0 179.166 6.33301 227.499 19s85.166 44.667 110.499 96s38.333 133 39 245v107c0 138.667 -20.833 241.5 -62.5 308.5s-132.834 100.5 -273.501 100.5h-197v-876z" />
    <glyph glyph-name="afii10095" unicode="&#xfd;" horiz-adv-x="1720" 
d="M238 1176l-81.999 0.00195312l20 614h90c25.333 -49.333 59.666 -74 102.999 -74c19.333 0 61.666 9.66699 126.999 29c84.667 30 180 45 286 45c170.667 0 320.5 -42.167 449.5 -126.5s227.667 -193.5 296 -327.5s102.5 -273.333 102.5 -418
c0 -126 -21 -246.5 -63 -361.5s-103 -218 -183 -309s-176.667 -162.5 -290 -214.5s-240.333 -78 -381 -78c-97.333 0 -196.166 18.5 -296.499 55.5s-183.166 92 -248.499 165s-98 160.5 -98 262.5c0 73.333 23.333 129.333 70 168s97 58 151 58
c64 0 115.5 -21.667 154.5 -65s58.5 -88.666 58.5 -135.999c0 -30.667 -6.33301 -56.334 -19 -77.001s-30.834 -42.834 -54.501 -66.501s-38.834 -41.5 -45.501 -53.5c-8 -22 -12 -60 -12 -114c0 -46.667 37.5 -80.334 112.5 -101.001s152.167 -31 231.5 -31
c102.667 0 185.167 22.5 247.5 67.5s107 100.167 134 165.5s43.5 125.5 49.5 180.5s11 126.167 15 213.5l8 225h-716v70h716l-8 234c-3.33301 150 -28.833 278.167 -76.5 384.5s-157.167 159.5 -328.5 159.5c-137.333 0 -253.166 -48.167 -347.499 -144.5
s-151.833 -229.5 -172.5 -399.5z" />
    <glyph glyph-name="afii10095" unicode="&#x44d;" horiz-adv-x="1720" 
d="M238 1176l-81.999 0.00195312l20 614h90c25.333 -49.333 59.666 -74 102.999 -74c19.333 0 61.666 9.66699 126.999 29c84.667 30 180 45 286 45c170.667 0 320.5 -42.167 449.5 -126.5s227.667 -193.5 296 -327.5s102.5 -273.333 102.5 -418
c0 -126 -21 -246.5 -63 -361.5s-103 -218 -183 -309s-176.667 -162.5 -290 -214.5s-240.333 -78 -381 -78c-97.333 0 -196.166 18.5 -296.499 55.5s-183.166 92 -248.499 165s-98 160.5 -98 262.5c0 73.333 23.333 129.333 70 168s97 58 151 58
c64 0 115.5 -21.667 154.5 -65s58.5 -88.666 58.5 -135.999c0 -30.667 -6.33301 -56.334 -19 -77.001s-30.834 -42.834 -54.501 -66.501s-38.834 -41.5 -45.501 -53.5c-8 -22 -12 -60 -12 -114c0 -46.667 37.5 -80.334 112.5 -101.001s152.167 -31 231.5 -31
c102.667 0 185.167 22.5 247.5 67.5s107 100.167 134 165.5s43.5 125.5 49.5 180.5s11 126.167 15 213.5l8 225h-716v70h716l-8 234c-3.33301 150 -28.833 278.167 -76.5 384.5s-157.167 159.5 -328.5 159.5c-137.333 0 -253.166 -48.167 -347.499 -144.5
s-151.833 -229.5 -172.5 -399.5z" />
    <glyph glyph-name="afii10096" unicode="&#xfe;" horiz-adv-x="2957" 
d="M741 938h364.998c10.667 160.667 56.334 306 137.001 436s186.167 231.833 316.5 305.5s271.166 110.5 422.499 110.5c142 0 281.5 -37.167 418.5 -111.5s249 -181.5 336 -321.5s130.5 -301.667 130.5 -485c0 -185.333 -43.5 -347.5 -130.5 -486.5
s-198.667 -245.5 -335 -319.5s-276.166 -111 -419.499 -111c-162 0 -309.667 40 -443 120s-238.166 189.833 -314.499 329.5s-115.833 295.5 -118.5 467.5h-365v-802h258v-70h-917v70h258v1605h-258v70h917v-70h-258v-737zM1565 1171c-6 -65.333 -9 -162 -9 -290
c0 -212.667 14 -381.5 42 -506.5s73 -214.5 135 -268.5s146.667 -81 254 -81c116 0 204.833 29.833 266.5 89.5s103.667 150.334 126 272.001s33.5 285.167 33.5 490.5c0 162.667 -7.16699 301 -21.5 415s-52.666 213.833 -115 299.5
c-62.333 85.667 -158.833 128.5 -289.5 128.5c-57.333 0 -116 -14.5 -176 -43.5s-113.5 -84.333 -160.5 -166s-75.5 -194.834 -85.5 -339.501z" />
    <glyph glyph-name="afii10096" unicode="&#x44e;" horiz-adv-x="2957" 
d="M741 938h364.998c10.667 160.667 56.334 306 137.001 436s186.167 231.833 316.5 305.5s271.166 110.5 422.499 110.5c142 0 281.5 -37.167 418.5 -111.5s249 -181.5 336 -321.5s130.5 -301.667 130.5 -485c0 -185.333 -43.5 -347.5 -130.5 -486.5
s-198.667 -245.5 -335 -319.5s-276.166 -111 -419.499 -111c-162 0 -309.667 40 -443 120s-238.166 189.833 -314.499 329.5s-115.833 295.5 -118.5 467.5h-365v-802h258v-70h-917v70h258v1605h-258v70h917v-70h-258v-737zM1565 1171c-6 -65.333 -9 -162 -9 -290
c0 -212.667 14 -381.5 42 -506.5s73 -214.5 135 -268.5s146.667 -81 254 -81c116 0 204.833 29.833 266.5 89.5s103.667 150.334 126 272.001s33.5 285.167 33.5 490.5c0 162.667 -7.16699 301 -21.5 415s-52.666 213.833 -115 299.5
c-62.333 85.667 -158.833 128.5 -289.5 128.5c-57.333 0 -116 -14.5 -176 -43.5s-113.5 -84.333 -160.5 -166s-75.5 -194.834 -85.5 -339.501z" />
    <glyph glyph-name="afii10097" unicode="&#xff;" horiz-adv-x="2068" 
d="M12 160l48.998 57.001c59.333 -65.333 112.666 -98 159.999 -98c42.667 0 70.5 18 83.5 54s26.167 94.333 39.5 175c16.667 103.333 38.5 187.5 65.5 252.5s82.833 123.5 167.5 175.5s210.334 87 377.001 105v16c-224.667 0 -385.167 42.833 -481.5 128.5
s-144.5 184.834 -144.5 297.501c0 68 21.167 134.167 63.5 198.5s113.5 117.666 213.5 159.999s231.333 63.5 394 63.5h988v-70h-258v-1605h258v-70h-918v70h258v790h-180c-98.667 0 -177.667 -26.5 -237 -79.5s-104.666 -171.167 -135.999 -354.5
c-28 -166.667 -69.167 -286.834 -123.5 -360.501s-129.166 -110.5 -224.499 -110.5c-164.667 0 -302.667 68.333 -414 205zM1327 930.001l-0.000976562 745h-229c-186.667 0 -290.667 -83.333 -312 -250c0 -14 -0.666992 -34.333 -2 -61s-2 -45.667 -2 -57
c0 -44 1.33301 -77 4 -99c30.667 -185.333 137.334 -278 320.001 -278h221z" />
    <glyph glyph-name="afii10097" unicode="&#x44f;" horiz-adv-x="2068" 
d="M12 160l48.998 57.001c59.333 -65.333 112.666 -98 159.999 -98c42.667 0 70.5 18 83.5 54s26.167 94.333 39.5 175c16.667 103.333 38.5 187.5 65.5 252.5s82.833 123.5 167.5 175.5s210.334 87 377.001 105v16c-224.667 0 -385.167 42.833 -481.5 128.5
s-144.5 184.834 -144.5 297.501c0 68 21.167 134.167 63.5 198.5s113.5 117.666 213.5 159.999s231.333 63.5 394 63.5h988v-70h-258v-1605h258v-70h-918v70h258v790h-180c-98.667 0 -177.667 -26.5 -237 -79.5s-104.666 -171.167 -135.999 -354.5
c-28 -166.667 -69.167 -286.834 -123.5 -360.501s-129.166 -110.5 -224.499 -110.5c-164.667 0 -302.667 68.333 -414 205zM1327 930.001l-0.000976562 745h-229c-186.667 0 -290.667 -83.333 -312 -250c0 -14 -0.666992 -34.333 -2 -61s-2 -45.667 -2 -57
c0 -44 1.33301 -77 4 -99c30.667 -185.333 137.334 -278 320.001 -278h221z" />
    <glyph glyph-name="afii10059" unicode="&#x152;" horiz-adv-x="4174" 
d="M946 1393v-1311h287v-82h-1061v82h315v2523h-315v78h1061v-78h-287v-1130h1208v1130h-286v78h1061v-78h-316v-1122h353c728.667 0 1093 -236.333 1093 -709c0 -224.667 -52.5 -394 -157.5 -508s-232 -186.833 -381 -218.5s-318.833 -47.5 -509.5 -47.5h-1143v82h286v1311
h-1208zM2613 82h496c275.333 0 420 146 434 438v316c-1.33301 111.333 -12.166 206 -32.5 284c-20.333 78 -71.833 145 -154.5 201s-208.667 84 -378 84h-365v-1323z" />
    <glyph glyph-name="afii10107" unicode="&#x153;" horiz-adv-x="2888" 
d="M741 909v-839h230v-70h-889v70h258v1605h-258v70h889v-70h-230v-700h697v700h-230v70h889v-70h-258v-659h193c206 0 368.667 -29 488 -87s200.833 -128 244.5 -210s65.5 -166 65.5 -252c0 -121.333 -51.333 -229.5 -154 -324.5s-275 -142.5 -517 -142.5h-951v70h230v839
h-697zM1839 70l156 0.00195312c105.333 0 184.833 11.5 238.5 34.5s89 53.5 106 91.5s27.833 87.333 32.5 148c0 18 0.666992 44.667 2 80s2 60.666 2 75.999c0 60 -1.33301 103.667 -4 131c-12.667 111.333 -43.167 191.666 -91.5 240.999s-129.833 74 -244.5 74h-197v-876
z" />
    <glyph glyph-name="afii10058" unicode="&#x160;" horiz-adv-x="3912" 
d="M2351 1483h352c729.333 0 1094 -236.333 1094 -709c0 -224.667 -52.5 -394 -157.5 -508s-232.167 -186.833 -381.5 -218.5s-319.333 -47.5 -510 -47.5h-1171v82h315v2523h-458c-132.667 0 -229.5 -22.667 -290.5 -68s-101.667 -122.5 -122 -231.5
s-32.333 -268.167 -36 -477.5s-8.5 -510 -14.5 -902c-8 -290.667 -20.167 -497.5 -36.5 -620.5s-52.166 -212.167 -107.499 -267.5s-146.666 -83 -273.999 -83c-148 0 -265.5 34.667 -352.5 104s-130.5 164.333 -130.5 285c0 89.333 25.5 162.166 76.5 218.499
s119.5 84.5 205.5 84.5c77.333 0 139 -21.5 185 -64.5s69 -92.5 69 -148.5c0 -69.333 -21.667 -134.666 -65 -195.999c-27.333 -40.667 -41 -84.667 -41 -132c0 -13.333 7.66699 -25.5 23 -36.5s30.666 -16.5 45.999 -16.5c138 0 232 97.667 282 293s75 454 75 776
c0 122.667 -2.83301 272 -8.5 448s-8.5 298.333 -8.5 367v250c0 92.667 -8.66699 167.5 -26 224.5s-58.833 103.5 -124.5 139.5s-166.834 54 -303.501 54v78h2211v-78h-315v-1122zM2351 82l496 0.000976562c275.333 0 420 146 434 438v316
c-1.33301 111.333 -12 206.166 -32 284.499s-71.167 145.333 -153.5 201s-208.833 83.5 -379.5 83.5h-365v-1323z" />
    <glyph glyph-name="afii10106" unicode="&#x161;" horiz-adv-x="2728" 
d="M1278 1675l-180 0.000976562c-112 0 -194.667 -9.5 -248 -28.5s-86.5 -44.667 -99.5 -77s-20.167 -77.5 -21.5 -135.5l-33 -1053c-4.66699 -136.667 -31.334 -241.834 -80.001 -315.501s-140.667 -110.5 -276 -110.5c-90 0 -167.167 24.667 -231.5 74
s-96.5 116 -96.5 200c0 70.667 21.333 128 64 172s92.334 66 149.001 66c58.667 0 108.167 -14.5 148.5 -43.5s60.5 -71.833 60.5 -128.5c0 -27.333 -2.66699 -48 -8 -62c-13.333 -26.667 -20 -41.667 -20 -45c0 -57.333 15 -86 45 -86c54 0 93.833 13.667 119.5 41
s41.834 64 48.501 110s10.667 106.333 12 181l28 1000c0 74 -12.833 132.667 -38.5 176s-87.834 65 -186.501 65h-86v70h1589v-70h-258v-659h197c268.667 0 468.334 -50.833 599 -152.5c130.667 -101.667 196 -235.167 196 -400.5c0 -120.667 -50.5 -228 -151.5 -322
s-274.5 -141 -520.5 -141h-979v70h258v1605zM1679 70.001h160c158.667 0 260.5 25.167 305.5 75.5s67.5 116.5 67.5 198.5v291c-2.66699 93.333 -25.834 168.5 -69.5 225.5c-43.667 57 -132.5 85.5 -266.5 85.5h-197v-876z" />
    <glyph glyph-name="afii10193" unicode="&#x178;" 
d="M1438 70l0.00195312 1605h-230v70h889v-70h-258v-1605h258v-70h-713c-78.667 -104 -145.334 -248.667 -200.001 -434l-25.5 -80.5l-23.5 -75.5h-91l-18 62.5c-6 21 -13.333 48.167 -22 81.5c-33.333 122.667 -62.333 212.834 -87 270.501s-65.334 116.167 -122.001 175.5
h-713v70h258v1605h-258v70h889v-70h-230v-1605h697z" />
    <glyph glyph-name="afii10100" unicode="&#x192;" horiz-adv-x="1565" 
d="M340 70v1605h-258v70h1425l25 -565h-86c-35.333 147.333 -79.333 256.833 -132 328.5s-111 117.334 -175 137.001s-146 29.5 -246 29.5h-119h-33v-1605h258v-70h-917v70h258z" />
    <glyph glyph-name="emdash" unicode="&#x2013;" horiz-adv-x="2859" 
d="M201 1380h2457v-172h-2457v172z" />
    <glyph glyph-name="endash" unicode="&#x2014;" horiz-adv-x="4026" 
d="M3797 823v-131h-3568v131h3568z" />
    <glyph glyph-name="quoteleft" unicode="&#x2018;" horiz-adv-x="1339" 
d="M766 2945l49.001 -66c-84 -60 -153.5 -137.5 -208.5 -232.5s-82.5 -181.167 -82.5 -258.5c0 -15.333 4.66699 -30.166 14 -44.5c9.33301 -14.333 19.666 -21.5 30.999 -21.5c14.667 0 39.334 8.33301 74.001 25s64.667 25 90 25c50 0 96.667 -19.5 140 -58.5
s65 -93.5 65 -163.5c0 -72.667 -26.333 -129 -79 -169s-115 -60 -187 -60c-66.667 0 -128.5 35.167 -185.5 105.5s-85.5 162.166 -85.5 275.5c0 83.333 16.333 167 49 251s76.667 159.5 132 226.5s116.666 122.167 183.999 165.5z" />
    <glyph glyph-name="quoteright" unicode="&#x2019;" horiz-adv-x="1339" 
d="M573 1692l-49 68.998c70.667 46.667 136.834 119.667 198.501 219s92.5 189 92.5 269c0 16.667 -4.33301 32.334 -13 47c-8.66699 14.667 -19.334 22 -32.001 22c-10.667 0 -35.334 -9.33301 -74.001 -28c-23.333 -14 -53.333 -21 -90 -21
c-56 0 -104.167 20.167 -144.5 60.5s-60.5 93.833 -60.5 160.5c0 72.667 25.5 128.5 76.5 167.5s114.5 58.5 190.5 58.5c68.667 0 130.834 -34.167 186.501 -102.5s83.5 -161.166 83.5 -278.499c0 -243.333 -121.667 -457.666 -365 -642.999z" />
    <glyph glyph-name="quotesinglbase" unicode="&#x201a;" horiz-adv-x="1343" 
d="M578 -623l-50 66c84 60.667 152.833 138.834 206.5 234.501s80.5 181.167 80.5 256.5c0 15.333 -4.16699 30.833 -12.5 46.5s-17.833 23.5 -28.5 23.5c-8.66699 0 -34.667 -9.66699 -78 -29c-26.667 -13.333 -56.667 -20 -90 -20c-56 0 -104.167 20.167 -144.5 60.5
s-60.5 93.833 -60.5 160.5c0 71.333 26 126.666 78 165.999s115 59 189 59c50.667 0 109 -28.5 175 -85.5s99 -155.5 99 -295.5c0 -134.667 -29.167 -248 -87.5 -340s-150.5 -193 -276.5 -303z" />
    <glyph glyph-name="quotedblleft" unicode="&#x201c;" horiz-adv-x="2150" 
d="M766 2953l49 -68.998c-101.333 -70 -175.166 -149.5 -221.499 -238.5s-69.5 -172.167 -69.5 -249.5c0 -15.333 4.66699 -30 14 -44s19.666 -21 30.999 -21c16 0 36.333 7.5 61 22.5s59 22.5 103 22.5c58.667 0 108.167 -19.833 148.5 -59.5s60.5 -93.834 60.5 -162.501
c0 -72.667 -26.167 -128.334 -78.5 -167.001s-114.833 -58 -187.5 -58c-74 0 -138.333 34 -193 102s-82 161 -82 279c0 242.667 121.667 457 365 643zM1573 2953l49 -64.998c-194 -142 -291 -306 -291 -492c0 -15.333 5 -30 15 -44s20 -21 30 -21c16 0 36.333 7.5 61 22.5
s59 22.5 103 22.5c60 0 109.833 -19.833 149.5 -59.5s59.5 -93.834 59.5 -162.501c0 -72.667 -26.167 -128.334 -78.5 -167.001s-114.833 -58 -187.5 -58c-76.667 0 -141.667 35.167 -195 105.5s-80 162.166 -80 275.5c0 245.333 121.667 459.666 365 643z" />
    <glyph glyph-name="quotedblright" unicode="&#x201d;" horiz-adv-x="2150" 
d="M1384 1700l-49 64.999c191.333 138.667 287 302.667 287 492.001c0 15.333 -4.16699 30 -12.5 44s-17.833 21 -28.5 21c-14.667 0 -36.334 -7.5 -65.001 -22.5s-63 -22.5 -103 -22.5c-55.333 0 -103.333 20.333 -144 61s-61 94.334 -61 161
c0 72.667 25.833 128.334 77.5 167c51.667 38.667 114.834 58 189.501 58c76 0 140.667 -35.167 194 -105.5s80 -162.166 80 -275.5c0 -94 -14.333 -177.5 -43 -250.5s-68 -138 -118 -195s-118 -122.833 -204 -197.5zM578 1700l-49.998 64.998
c191.333 138.667 287 302.667 287 492.001c0 15.333 -4.16699 30 -12.5 44s-17.833 21 -28.5 21c-14.667 0 -36.334 -7.5 -65.001 -22.5s-63 -22.5 -103 -22.5c-56 0 -104.167 19.833 -144.5 59.5s-60.5 92.167 -60.5 157.5c0 76.667 26.167 134.167 78.5 172.5
s115.166 57.5 188.499 57.5c76 0 140.667 -35.167 194 -105.5s80 -162.166 80 -275.5c0 -136.667 -29 -250.667 -87 -342s-150.333 -191.666 -277 -300.999z" />
    <glyph glyph-name="quotedblbase" unicode="&#x201e;" horiz-adv-x="2150" 
d="M1384 -627l-49.001 65.999c78.667 55.333 146.167 131.5 202.5 228.5s84.5 184.5 84.5 262.5c0 15.333 -4.16699 30.833 -12.5 46.5s-17.833 23.5 -28.5 23.5c-12 0 -33.333 -8.16699 -64 -24.5s-65.334 -24.5 -104.001 -24.5c-55.333 0 -103.333 19.667 -144 59
s-61 93.333 -61 162c0 72.667 25.833 128.334 77.5 167.001s114.834 58 189.501 58s139 -34 193 -102s81 -161 81 -279c0 -94 -14.333 -177.167 -43 -249.5s-68.667 -138 -120 -197s-118.666 -124.5 -201.999 -196.5zM577.999 -627.001l-50 65.998
c84.667 59.333 154.334 136.333 209.001 231s82 181.334 82 260.001c0 17.333 -4.33301 33.333 -13 48s-19.334 22 -32.001 22c-13.333 0 -34 -8.16699 -62 -24.5s-62 -24.5 -102 -24.5c-62.667 0 -113.167 21.833 -151.5 65.5s-57.5 95.5 -57.5 155.5
c0 72.667 26.5 128.334 79.5 167.001s116.833 58 191.5 58c70 0 132.5 -30.5 187.5 -91.5s82.5 -157.5 82.5 -289.5c0 -242 -121.333 -456.333 -364 -643z" />
    <glyph glyph-name="dagger" unicode="&#x2020;" horiz-adv-x="2363" 
d="M1126 1413l-0.000976562 139.002c-134 0 -270.333 -27.333 -409 -82c-154.667 -62.667 -261.334 -94 -320.001 -94c-65.333 0 -119.166 19.667 -161.499 59s-63.5 89.333 -63.5 150c0 65.333 15.333 124.666 46 177.999s79.667 80 147 80
c45.333 0 151.666 -26 318.999 -78c168.667 -54.667 316 -82 442 -82c0 165.333 -36.667 364.666 -110 597.999c-32.667 105.333 -49 193 -49 263c0 58.667 24 106.667 72 144s105.667 56 173 56c64 0 112.833 -23 146.5 -69s50.5 -102 50.5 -168
c0 -57.333 -30 -170.666 -90 -340c-57.333 -155.333 -86 -297.333 -86 -426v-58c122.667 0 270 27.333 442 82c156 52 264 78 324 78c59.333 0 106.166 -25.167 140.5 -75.5c34.333 -50.333 51.5 -111.166 51.5 -182.499c0 -62 -21.167 -112.333 -63.5 -151
s-96.166 -58 -161.499 -58c-59.333 0 -165.666 31.333 -318.999 94c-139.333 54.667 -277.333 82 -414 82v-139c0 -348.667 7.5 -583.834 22.5 -705.501s37.5 -218.167 67.5 -289.5s52.5 -167 67.5 -287s22.5 -350.667 22.5 -692c0 -243.333 -69.667 -365 -209 -365
c-152.667 0 -229 121.667 -229 365c0 161.333 19 397.333 57 708c20 132.667 40.667 316.5 62 551.5s32 473.167 32 714.5z" />
    <glyph glyph-name="daggerdbl" unicode="&#x2021;" horiz-adv-x="2335" 
d="M1749 1458l-0.00292969 -78.001h-717c0 -194 -31.167 -392.333 -93.5 -595s-151.166 -360.667 -266.499 -474l8 -20c139.333 112 278.666 168 417.999 168c78.667 0 212.334 -33 401.001 -99c128 -43.333 221 -65 279 -65c72 0 128.667 29.167 170 87.5
s81.333 138.5 120 240.5l95 -25c-52.667 -126.667 -92.167 -219.167 -118.5 -277.5s-59 -116 -98 -173s-87.167 -103.333 -144.5 -139s-124 -53.5 -200 -53.5c-66 0 -131.833 9.5 -197.5 28.5s-129.667 44 -192 75l-176.5 88.5c-86.667 44 -176.667 66 -270 66
c-22.667 0 -50.834 -5.33301 -84.501 -16s-75.5 -26.167 -125.5 -46.5s-92 -38.333 -126 -54l-94 -43.5l-29 86c98.667 31.333 172.167 76.333 220.5 135s79 123.5 92 194.5s19.5 155.167 19.5 252.5c0 64 -1.66699 123.167 -5 177.5s-8.16602 106 -14.499 155
s-13.166 99 -20.499 150l-26 176.5h-401v78h389c-8 86 -12 196.667 -12 332c0 194.667 40.833 363.167 122.5 505.501c81.667 142.333 190.5 250 326.5 323s282.667 109.5 440 109.5c145.333 0 267.666 -27.167 366.999 -81.5s172.833 -121.833 220.5 -202.5
s71.5 -160.667 71.5 -240c0 -66 -24.5 -122.167 -73.5 -168.5s-102.167 -69.5 -159.5 -69.5c-71.333 0 -132.166 23.833 -182.499 71.5s-75.5 101.834 -75.5 162.5c0 62.667 28.667 125.334 86 188c40.667 42 61 72 61 90c0 37.333 -26.333 72.666 -79 106
c-52.667 33.333 -128.667 50 -228 50c-130 0 -232 -24 -306 -72s-124.833 -106.333 -152.5 -175s-41.5 -139.334 -41.5 -212c0 -137.333 15 -269.666 45 -396.999c24.667 -112.667 38.334 -219.334 41.001 -320.001h717z" />
    <glyph glyph-name="bullet" unicode="&#x2022;" horiz-adv-x="2859" 
d="M1028 1434c0 73.333 18.333 140.832 55 202.499s85.5 110.167 146.5 145.5s127.833 53 200.5 53c111.333 0 206 -38.667 284 -116s117 -172.333 117 -285c0 -109.333 -38.833 -203.666 -116.5 -282.999s-172.5 -119 -284.5 -119c-72.667 0 -139.5 17.667 -200.5 53
s-109.833 83.833 -146.5 145.5s-55 129.5 -55 203.5z" />
    <glyph glyph-name="ellipsis" unicode="&#x2026;" horiz-adv-x="3555" 
d="M401 184c0 70.667 24.167 126.667 72.5 168s100.833 62 157.5 62c60.667 0 114 -23.333 160 -70s69 -100 69 -160c0 -56 -20.667 -108.167 -62 -156.5s-97 -72.5 -167 -72.5c-64.667 0 -119.167 21.833 -163.5 65.5s-66.5 98.167 -66.5 163.5zM1548 184
c0 70.667 24.167 126.667 72.5 168s100.833 62 157.5 62c60.667 0 114 -23.333 160 -70s69 -100 69 -160c0 -56 -20.667 -108.167 -62 -156.5s-97 -72.5 -167 -72.5c-64.667 0 -119.167 21.833 -163.5 65.5s-66.5 98.167 -66.5 163.5zM2695 184
c0 70.667 24.167 126.667 72.5 168s100.833 62 157.5 62c60 0 113.167 -23.5 159.5 -70.5s69.5 -100.167 69.5 -159.5c0 -56 -20.667 -108.167 -62 -156.5s-97 -72.5 -167 -72.5c-64.667 0 -119.167 21.833 -163.5 65.5s-66.5 98.167 -66.5 163.5z" />
    <glyph glyph-name="perthousand" unicode="&#x2030;" horiz-adv-x="4956" 
d="M344 2093c0 117.333 26.833 224.502 80.5 321.502s125.5 173.5 215.5 229.5s186.667 84 290 84c102.667 0 200.167 -28.333 292.5 -85s165.666 -133.834 219.999 -231.5c54.333 -97.667 81.5 -203.834 81.5 -318.5c0 -114.667 -27.167 -220.834 -81.5 -318.501
s-127.666 -174.834 -219.999 -231.501s-189.833 -85 -292.5 -85c-103.333 0 -200 28 -290 84s-161.833 132.5 -215.5 229.5s-80.5 204.167 -80.5 321.5zM639 2179l0.000976562 -172c0 -186.667 30.5 -314.5 91.5 -383.5s130.167 -103.5 207.5 -103.5
c81.333 0 150.166 37.333 206.499 112s84.5 199.667 84.5 375v172c0 170.667 -29 294.5 -87 371.5s-126 115.5 -204 115.5c-86 0 -157.333 -42.667 -214 -128s-85 -205 -85 -359zM942.001 -388.998l-127 57l1708 3384l131 -58zM1933 594.002
c0 111.333 25.332 215.671 75.999 313.004s121 175.333 211 234s189.667 88 299 88c102.667 0 200.167 -28.333 292.5 -85s165.666 -133.834 220 -231.501c54.333 -97.667 81.5 -203.834 81.5 -318.501s-27.167 -220.834 -81.5 -318.501
s-127.666 -174.834 -219.999 -231.501s-189.833 -85 -292.5 -85c-103.333 0 -200 28 -290 84s-161.833 132.5 -215.5 229.5s-80.5 204.167 -80.5 321.5zM2228 680.007v-172c0 -188 30.5 -316.333 91.5 -385s130.167 -103 207.5 -103c81.333 0 150.166 37.5 206.5 112.5
c56.333 75 84.5 200.167 84.5 375.5v172c0 170.667 -29 294.5 -87 371.5s-126 115.5 -204 115.5c-87.333 0 -159 -42.833 -215 -128.5s-84 -205.167 -84 -358.5zM3432 594.007c0 117.333 27 224.504 81 321.504s125.833 173.5 215.5 229.5s186.167 84 289.5 84
c104 0 201.834 -28.333 293.5 -85s164.666 -133.834 219 -231.501s81.5 -203.834 81.5 -318.501s-27.166 -220.834 -81.5 -318.501s-127.334 -174.834 -219 -231.501s-189.5 -85 -293.5 -85c-103.333 0 -200 28 -290 84s-161.833 132.5 -215.5 229.5
s-80.5 204.167 -80.5 321.5zM3727 680.011v-172c0 -188 30.5 -316.333 91.5 -385s130.167 -103 207.5 -103c82.666 0 151.833 37.5 207.5 112.5c55.666 75 83.5 200.167 83.5 375.5v172c0 170.667 -29 294.5 -87 371.5s-126 115.5 -204 115.5
c-85.333 0 -156.5 -43 -213.5 -129s-85.5 -205.333 -85.5 -358z" />
    <glyph glyph-name="quilsinglleft" unicode="&#x2039;" horiz-adv-x="1253" 
d="M1139 45l-37 -33c-291.333 338.667 -620.333 624 -987 856c375.333 234 704.333 519.333 987 856l37 -32c-162 -284 -352 -558.667 -570 -824c104.667 -126.667 205 -259 301 -397s185.667 -280 269 -426z" />
    <glyph glyph-name="quilsinglright" unicode="&#x203a;" horiz-adv-x="1253" 
d="M115 1692l36.999 32c271.333 -332.667 600.333 -618 987 -856c-371.333 -231.333 -700.333 -516.666 -987 -855.999l-37 33c164 295.333 352.333 569.666 565 822.999c-211.333 252 -399.666 526.667 -564.999 824z" />
    <glyph glyph-name="trademark" unicode="&#x2122;" horiz-adv-x="2294" 
d="M500 2118v860h-328v94h770v-94h-328v-860h-114zM1581 2118l-315 860v-860h-115v954h201l286 -807l283 807h201v-954h-115v860l-315 -860h-111z" />
    <glyph glyph-name=".null" horiz-adv-x="0" 
 />
    <glyph glyph-name="nonmarkingreturn" horiz-adv-x="0" 
 />
    <glyph glyph-name="afii10051" horiz-adv-x="3121" 
d="M1065 82v2523h-152c-152 0 -278 -28.167 -378 -84.5s-176 -137 -228 -242s-87.333 -232.5 -106 -382.5h-111l74 787h2261l74 -787h-111c-24.667 202 -74.167 355.5 -148.5 460.5s-157.5 172.667 -249.5 203s-197 45.5 -315 45.5h-151v-1278c213.333 126 440 189 680 189
c232.667 0 428.667 -56.5 588 -169.5s239 -321.5 239 -625.5c0 -148 -30.167 -280.833 -90.5 -398.5s-144.5 -209 -252.5 -274s-230 -97.5 -366 -97.5c-142 0 -247.667 36.833 -317 110.5s-104 159.5 -104 257.5c0 75.333 24.167 133.166 72.5 173.499
s104.5 60.5 168.5 60.5c62 0 116.5 -19.833 163.5 -59.5s70.5 -94.834 70.5 -165.501c0 -81.333 -26 -140 -78 -176c-27.333 -20.667 -41 -49.334 -41 -86.001c0 -10 9.33301 -20.167 28 -30.5s34 -15.5 46 -15.5c87.333 0 144.666 43.167 172 129.5
c27.333 86.333 42.333 198.833 45 337.5v258c0 121.333 -9.33301 227.166 -28 317.499s-65.334 169.333 -140.001 237s-186.667 101.5 -336 101.5c-92.667 0 -186.167 -15.167 -280.5 -45.5s-174.166 -65.833 -239.499 -106.5v-1167h258v-82h-1032v82h315z" />
    <glyph glyph-name="afii10052" horiz-adv-x="2204" 
d="M946 2601v-2519h316v-82h-1090v82h315v2519h-315v82h1954l49 -778h-98c-23.333 202.667 -72.333 356 -147 460s-150 169.333 -226 196s-145.667 40 -209 40h-549z" />
    <glyph glyph-name="afii10061" horiz-adv-x="2830" 
d="M946 1511h392.999c116.667 0 203.167 19.667 259.5 59s93.833 95.5 112.5 168.5s36.667 191.167 54 354.5c17.333 169.333 37.666 295.666 60.999 379c23.333 83.333 66 146.833 128 190.5s156 65.5 282 65.5c104.667 0 194.334 -34.667 269.001 -104s112 -152 112 -248
c0 -74.667 -20.833 -141.834 -62.5 -201.5c-41.667 -59.667 -109.5 -89.5 -203.5 -89.5c-72 0 -130.333 20.667 -175 62s-67 86 -67 134c0 50 12.333 117 37 201c2.66699 24.667 4 59 4 103c0 21.333 -24.333 32 -73 32c-82 0 -136.5 -48 -163.5 -144s-46.5 -220 -58.5 -372
c-11.333 -142 -24 -250.5 -38 -325.5s-42.5 -138.5 -85.5 -190.5s-108.167 -87.333 -195.5 -106v-21l216 -38c65.333 -11.333 126.5 -27.166 183.5 -47.499s112.5 -53.833 166.5 -100.5s101.667 -110.334 143 -191.001c32 -62.667 53 -134.167 63 -214.5
s21.167 -198 33.5 -353s27.5 -263.667 45.5 -326s48.333 -93.5 91 -93.5c100.667 0 182.667 41 246 123l61 -57c-124.667 -136.667 -259.667 -205 -405 -205c-134 0 -240.333 25.5 -319 76.5s-135.667 118.833 -171 203.5s-56.666 162 -63.999 232s-15.333 190 -24 360
c-4 152 -34 290.5 -90 415.5s-180.333 187.5 -373 187.5h-393v-1348h316v-82h-1090v82h315v2519h-315v82h1090v-82h-316v-1090z" />
    <glyph glyph-name="afii10060" horiz-adv-x="3342" 
d="M1065 82v2523h-152c-152 0 -278 -28.167 -378 -84.5s-176 -137 -228 -242s-87.333 -232.5 -106 -382.5h-111l74 787h2261l74 -787h-111c-24.667 202 -74.167 355.5 -148.5 460.5s-157.5 172.667 -249.5 203s-197 45.5 -315 45.5h-151v-1278c216 126 442.667 189 680 189
c201.333 0 379.333 -46.167 534 -138.5s232 -253.833 232 -484.5v-811h315v-82h-1061v82h287v807c0 134.667 -27.667 253.667 -83 357s-183.333 155 -384 155c-174.667 0 -348 -50.667 -520 -152v-1167h286v-82h-1060v82h315z" />
    <glyph glyph-name="afii10145" horiz-adv-x="3052" 
d="M2105 82l0.000976562 2523h-286v78h1060v-78h-315v-2523h315v-82h-929c-74 -56 -147.5 -149 -220.5 -279s-112.833 -315.667 -119.5 -557h-140c-7.33301 148 -39.333 296.333 -96 445s-147.334 279 -272.001 391h-930v82h315v2523h-315v78h1061v-78h-287v-2523h1159z" />
    <glyph glyph-name="afii10099" horiz-adv-x="1954" 
d="M754 2122l744.999 0.000976562v-82h-745v-533c176.667 188.667 348.667 283 516 283c70 0 138.333 -13 205 -39s129.667 -74.333 189 -145s107.5 -174.5 144.5 -311.5s55.5 -310.5 55.5 -520.5c0 -146 -21.333 -319.833 -64 -521.5s-134.167 -403.167 -274.5 -604.5
s-340.166 -343.333 -599.499 -426v69c172 41.333 294.833 128.666 368.5 261.999s110.5 307 110.5 521v1331c0 182.667 -69.667 274 -209 274c-146 0 -293.333 -90 -442 -270v-1339h258v-70h-918v70h258v1970h-377v82h377v479h-258v70h410c110.667 0 194 8 250 24v-573z" />
    <glyph glyph-name="afii10109" horiz-adv-x="2114" 
d="M741 958h147.999c116 0 196 32.333 240 97s77.333 151.334 100 260.001c22 112.667 45.333 201.834 70 267.501s61.5 116.667 110.5 153s115.833 54.5 200.5 54.5c86 0 160.667 -26.167 224 -78.5s95 -121.833 95 -208.5c0 -70.667 -19.333 -130.667 -58 -180
s-93 -74 -163 -74c-62 0 -113 17 -153 51s-60 75.667 -60 125c0 31.333 4 61.666 12 90.999c1.33301 5.33301 3.83301 12.833 7.5 22.5s5.5 18.5 5.5 26.5c0 38 -33 57 -99 57c-46 0 -84 -106.333 -114 -319c-26 -118 -53.5 -202.333 -82.5 -253
s-73.833 -85.334 -134.5 -104.001v-12c171.333 -10 301.166 -42.333 389.499 -97s146.333 -115.667 174 -183s47.167 -147.333 58.5 -240c12.667 -102.667 26.834 -176.167 42.501 -220.5s46.5 -66.5 92.5 -66.5c70 0 126 37 168 111l53 -29
c-36 -78 -91.167 -139.833 -165.5 -185.5s-159.5 -68.5 -255.5 -68.5c-94 0 -165.167 23 -213.5 69s-80.166 99 -95.499 159s-31.333 149.333 -48 268c-17.333 128 -41.333 223.667 -72 287s-69.167 105 -115.5 125s-107.833 30 -184.5 30h-87l-90 -4v-819h258v-70h-917v70
h258v1605h-258v70h917v-70h-258v-717z" />
    <glyph glyph-name="afii10108" horiz-adv-x="2195" 
d="M758 2122l744.999 -0.000976562v-82h-745v-533c165.333 188.667 356.333 283 573 283c152 0 267.833 -28 347.5 -84s131.167 -122.667 154.5 -200s35 -161.666 35 -252.999v-1183h258v-70h-889v70h229v1310c0 65.333 -16.667 131.5 -50 198.5
s-106.666 100.5 -219.999 100.5c-152.667 0 -298.667 -90 -438 -270v-1339h229v-70h-889v70h258v1970h-381v82h381v479h-258v70h406c113.333 0 198 8 254 24v-573z" />
  </font>
</defs>
</svg>
